<svg width="121" height="40" viewBox="0 0 121 40" fill="none" xmlns="http://www.w3.org/2000/svg">
    <path d="M76.4922 17.4927H70.4153V7.02344H67.8691V19.9542H76.4922V17.4927Z" fill="white" />
    <path
        d="M88.7695 14.4156C89.1197 13.9925 89.3813 13.5033 89.5387 12.9772C89.6987 12.4588 89.7816 11.9197 89.7849 11.3772C89.8069 10.5697 89.6074 9.77159 89.208 9.06947C88.8129 8.39692 88.2227 7.86037 87.5157 7.53101C86.6691 7.14547 85.7455 6.95864 84.8157 6.98484H80.8926V19.9156H83.4464V15.8618H85.2695C85.9971 15.8847 86.7212 15.7509 87.3926 15.4695C87.9299 15.2345 88.4024 14.8729 88.7695 14.4156ZM87.1157 12.031C87.0517 12.2642 86.9448 12.4833 86.8003 12.6771C86.6425 12.8928 86.4372 13.0691 86.2003 13.1925C85.8982 13.3279 85.5696 13.3936 85.2387 13.3848H83.4464V9.48484H85.2695C85.6341 9.46737 85.9971 9.54421 86.3233 9.70793C86.5678 9.8411 86.7743 10.0344 86.9233 10.2695C87.0421 10.4773 87.1253 10.7035 87.1695 10.9387C87.2093 11.1052 87.2325 11.2753 87.2387 11.4464C87.227 11.6463 87.1855 11.8433 87.1157 12.031Z"
        fill="white" />
    <path
        d="M96.3538 14.6994H102.131V19.9532H104.677V7.02246H102.131V12.2455H96.3538V7.02246H93.8076V19.9532H96.3538V14.6994Z"
        fill="white" />
    <path
        d="M55.2152 31.7463L53.4999 27.4463H52.5537L55.1691 33.6694L57.7999 27.4463H56.8691L55.2152 31.7463Z"
        fill="white" />
    <path
        d="M60.6154 30.7924H63.3539V30.0232H60.6154V28.2155H63.6847V27.4463H59.8154V33.4001H63.8V32.6386H60.6154V30.7924Z"
        fill="white" />
    <path
        d="M70.4155 31.7532L66.0463 27.2686H66.0078V33.3993H66.8078L66.7924 29.1532L71.1617 33.5916H71.1847V27.4455H70.4001L70.4155 31.7532Z"
        fill="white" />
    <path d="M73.2847 28.2155H74.8462V33.4001H75.6385V28.2155H77.2385V27.4463H73.2847V28.2155Z"
        fill="white" />
    <path
        d="M82.9382 31.2924C82.9394 31.5463 82.873 31.7958 82.7459 32.0155C82.6224 32.2237 82.4441 32.394 82.2305 32.5078C81.9946 32.6354 81.7294 32.699 81.4613 32.6924C81.2081 32.6963 80.9585 32.6326 80.7382 32.5078C80.5262 32.3918 80.3484 32.222 80.2228 32.0155C80.0921 31.7973 80.0254 31.5467 80.0305 31.2924V27.4463H79.2613V31.2924C79.2524 31.6926 79.3563 32.0871 79.5613 32.4309C79.7404 32.7545 80.007 33.021 80.3305 33.2001C80.6773 33.3794 81.0633 33.4693 81.4536 33.4617C81.8462 33.4683 82.2345 33.3785 82.5844 33.2001C82.9057 33.0181 83.1716 32.7523 83.3536 32.4309C83.5585 32.0871 83.6625 31.6926 83.6536 31.2924V27.4463H82.8843L82.9382 31.2924Z"
        fill="white" />
    <path
        d="M89.4234 30.6C89.5762 30.4207 89.689 30.2109 89.7542 29.9846C89.8274 29.7612 89.8637 29.5273 89.8619 29.2923C89.8653 29.0271 89.8102 28.7644 89.7003 28.523C89.6 28.2977 89.447 28.0999 89.2542 27.9461C89.0597 27.7806 88.8312 27.6599 88.5849 27.5923C88.3167 27.5055 88.036 27.4639 87.7542 27.4692H86.1772V33.423H86.9465V31.2307H88.0619L89.4619 33.4307H90.3696L88.8696 31.023C89.0799 30.9193 89.268 30.7756 89.4234 30.6ZM87.8388 30.4461H86.9773V28.2153H87.8926C88.0748 28.2082 88.2563 28.2424 88.4234 28.3153C88.5608 28.3796 88.6818 28.4743 88.7773 28.5923C88.8687 28.6973 88.9369 28.8205 88.9773 28.9538C89.0164 29.073 89.0371 29.1976 89.0388 29.323C89.0387 29.4481 89.0206 29.5724 88.985 29.6923C88.9459 29.8268 88.8805 29.9523 88.7926 30.0615C88.6948 30.1833 88.5678 30.2786 88.4234 30.3384C88.2384 30.4153 88.0391 30.452 87.8388 30.4461Z"
        fill="white" />
    <path
        d="M93.223 30.7924H95.9691V30.0232H93.223V28.2155H96.2999V27.4463H92.4307V33.4001H96.4153V32.6386H93.223V30.7924Z"
        fill="white" />
    <path
        d="M106.177 28.4303C105.898 28.1207 105.554 27.8764 105.169 27.7149C104.693 27.5237 104.183 27.4321 103.669 27.4456H102.046V33.3995H103.962C104.343 33.4007 104.72 33.333 105.077 33.1995C105.428 33.0689 105.75 32.8702 106.023 32.6149C106.303 32.3603 106.523 32.048 106.669 31.6995C106.835 31.3189 106.917 30.9069 106.908 30.4918C106.907 30.1276 106.844 29.7662 106.723 29.4226C106.609 29.0587 106.424 28.7213 106.177 28.4303ZM105.916 31.3764C105.807 31.6354 105.641 31.8666 105.431 32.0533C105.224 32.2479 104.978 32.395 104.708 32.4841C104.416 32.5854 104.109 32.6349 103.8 32.6303H102.846V28.2149H103.877C104.161 28.2121 104.442 28.2617 104.708 28.361C104.969 28.4522 105.209 28.5933 105.416 28.7764C105.628 28.9713 105.796 29.2102 105.908 29.4764C106.149 30.0868 106.149 30.7661 105.908 31.3764H105.916Z"
        fill="white" />
    <path
        d="M110.762 27.1992L108.154 33.3992H108.923L109.562 31.8608H111.869L112.477 33.3992H113.392L110.8 27.1992H110.762ZM109.862 31.1454L110.746 28.9685L111.6 31.1454H109.862Z"
        fill="white" />
    <path
        d="M120.5 29.2683C120.34 28.9034 120.113 28.5719 119.83 28.2914C119.556 28.0072 119.226 27.782 118.861 27.6299C118.495 27.4599 118.096 27.3732 117.692 27.376C117.283 27.3732 116.879 27.4598 116.507 27.6299C116.146 27.7841 115.819 28.009 115.546 28.2914C115.266 28.5723 115.041 28.9038 114.884 29.2683C114.73 29.6333 114.651 30.0259 114.654 30.4222C114.648 30.8362 114.727 31.247 114.884 31.6299C115.201 32.3513 115.782 32.924 116.507 33.2299C116.883 33.3843 117.286 33.4627 117.692 33.4607C118.089 33.4623 118.482 33.3857 118.849 33.2352C119.216 33.0848 119.549 32.8633 119.83 32.5837C120.111 32.3046 120.338 31.976 120.5 31.6145C120.661 31.238 120.742 30.8319 120.738 30.4222C120.742 30.025 120.66 29.6316 120.5 29.2683ZM119.73 31.3145C119.616 31.5781 119.457 31.8201 119.261 32.0299C119.063 32.2395 118.825 32.4069 118.561 32.5222C118.286 32.639 117.991 32.6992 117.692 32.6992C117.393 32.6992 117.098 32.639 116.823 32.5222C116.556 32.4071 116.316 32.2397 116.115 32.0299C115.7 31.6033 115.466 31.0328 115.461 30.4376C115.458 30.1344 115.515 29.8335 115.63 29.553C115.734 29.2792 115.894 29.0303 116.1 28.8222C116.302 28.6123 116.542 28.4427 116.807 28.3222C117.082 28.204 117.378 28.1437 117.677 28.1453C117.973 28.1437 118.266 28.204 118.538 28.3222C118.806 28.4396 119.048 28.6066 119.254 28.8145C119.461 29.0376 119.623 29.2989 119.73 29.5837C119.956 30.152 119.956 30.7848 119.73 31.353V31.3145Z"
        fill="white" />
    <path
        d="M58.2617 6.53125L52.4463 19.9313H54.9847L56.0386 17.4082H60.3155L61.3078 19.9313H64.2155L58.4001 6.53125H58.2617ZM56.8847 15.2697L58.2001 12.1312L59.4309 15.2697L58.1847 14.5697L56.8847 15.2697Z"
        fill="white" />
    <path
        d="M114.146 6.53125L108.331 19.9313H110.831L111.885 17.4082H116.162L117.154 19.9313H120.1L114.285 6.53125H114.146ZM112.77 15.2697L114.085 12.1312L115.323 15.2697L114.07 14.5697L112.77 15.2697Z"
        fill="white" />
    <path
        d="M20 40C31.0457 40 40 31.0457 40 20C40 8.9543 31.0457 0 20 0C8.9543 0 0 8.9543 0 20C0 31.0457 8.9543 40 20 40Z"
        fill="white" />
    <path
        d="M20 7.8877V15.8227L21.4385 19.3958L20 18.1893V21.9944C20 21.9944 20 21.9944 20.0464 22.0408C22.3666 24.9179 25.2436 27.3309 28.4919 29.0942L20 7.8877Z"
        fill="url(#paint0_linear_1334_15958)" />
    <path
        d="M19.9997 7.8877V15.8227L18.5612 19.3958L19.9997 18.1893V21.9944C19.9997 21.9944 19.9997 21.9944 19.9533 22.0408C17.6331 24.9179 14.7561 27.3309 11.5078 29.0942L19.9997 7.8877Z"
        fill="url(#paint1_linear_1334_15958)" />
    <path
        d="M20.0002 26.9126C21.0766 26.9126 21.9492 26.04 21.9492 24.9636C21.9492 23.8872 21.0766 23.0146 20.0002 23.0146C18.9238 23.0146 18.0513 23.8872 18.0513 24.9636C18.0513 26.04 18.9238 26.9126 20.0002 26.9126Z"
        fill="#F5CC02" />
    <defs>
        <linearGradient id="paint0_linear_1334_15958" x1="24.23" y1="7.82802" x2="24.23"
            y2="29.3421" gradientUnits="userSpaceOnUse">
            <stop stop-color="#000749" />
            <stop offset="1" stop-color="#000749" stop-opacity="0.6" />
        </linearGradient>
        <linearGradient id="paint1_linear_1334_15958" x1="15.7417" y1="29.1922" x2="15.7417"
            y2="8.07869" gradientUnits="userSpaceOnUse">
            <stop stop-color="#000749" />
            <stop offset="1" stop-color="#000749" stop-opacity="0.6" />
        </linearGradient>
    </defs>
</svg>
  