<svg width="3194" height="647" viewBox="0 0 3194 647" fill="none" xmlns="http://www.w3.org/2000/svg">
    <path
        d="M864.077 210.929H898.799L995.958 436.464H950.086L929.062 384.859H831.266L810.879 436.464H765.963L864.077 210.929ZM915.045 350.455L880.323 258.712L844.964 350.455H915.045Z"
        fill="#ffffff" />
    <path
        d="M1039.01 210.929H1085.2L1146.68 381.355L1210.07 210.929H1253.4L1162.29 436.464H1127.57L1039.01 210.929Z"
        fill="#ffffff" />
    <path
        d="M1396.84 210.929H1431.57L1528.72 436.464H1482.85L1461.83 384.859H1364.03L1343.64 436.464H1298.73L1396.84 210.929ZM1447.81 350.455L1413.09 258.712L1377.73 350.455H1447.81Z"
        fill="#ffffff" />
    <path d="M1617.5 210.929H1657.64V400.149H1753.52V436.464H1617.5V210.929Z" fill="#ffffff" />
    <path
        d="M1919.34 210.929H1954.07L2051.22 436.464H2005.35L1984.33 384.859H1886.53L1866.15 436.464H1821.23L1919.34 210.929ZM1970.31 350.455L1935.59 258.712L1900.23 350.455H1970.31Z"
        fill="#ffffff" />
    <path
        d="M2140 210.929H2193.2L2302.46 378.488H2303.1V210.929H2343.23V436.464H2292.27L2180.77 263.49H2180.14V436.464H2140V210.929Z"
        fill="#ffffff" />
    <path
        d="M2612.06 263.809C2603.78 254.889 2595.71 248.943 2587.85 245.97C2580.21 242.997 2572.45 241.51 2564.6 241.51C2552.92 241.51 2542.3 243.634 2532.74 247.881C2523.4 251.916 2515.33 257.65 2508.53 265.083C2501.74 272.304 2496.43 280.798 2492.6 290.567C2488.99 300.336 2487.19 310.848 2487.19 322.104C2487.19 334.209 2488.99 345.358 2492.6 355.552C2496.43 365.746 2501.74 374.559 2508.53 381.992C2515.33 389.425 2523.4 395.265 2532.74 399.512C2542.3 403.76 2552.92 405.883 2564.6 405.883C2573.73 405.883 2582.54 403.76 2591.04 399.512C2599.74 395.052 2607.81 388.044 2615.25 378.488L2648.38 402.061C2638.18 416.077 2625.76 426.271 2611.1 432.642C2596.45 439.013 2580.84 442.198 2564.28 442.198C2546.86 442.198 2530.83 439.437 2516.18 433.916C2501.74 428.182 2489.21 420.218 2478.59 410.024C2468.18 399.618 2460 387.195 2454.06 372.754C2448.11 358.313 2445.14 342.279 2445.14 324.652C2445.14 306.601 2448.11 290.249 2454.06 275.595C2460 260.73 2468.18 248.094 2478.59 237.688C2489.21 227.282 2501.74 219.318 2516.18 213.796C2530.83 208.062 2546.86 205.195 2564.28 205.195C2579.57 205.195 2593.69 207.956 2606.65 213.478C2619.81 218.787 2632.02 227.919 2643.28 240.873L2612.06 263.809Z"
        fill="#ffffff" />
    <path
        d="M2739.03 210.929H2779.16V300.761H2884.6V210.929H2924.74V436.464H2884.6V337.076H2779.16V436.464H2739.03V210.929Z"
        fill="#ffffff" />
    <path
        d="M3038.85 210.929H3188.25V247.244H3078.99V302.672H3182.52V338.987H3078.99V400.149H3193.99V436.464H3038.85V210.929Z"
        fill="black" />
    <path fill-rule="evenodd" clip-rule="evenodd"
        d="M323.652 647C502.316 647 647.152 502.164 647.152 323.5C647.152 144.836 502.316 0 323.652 0C144.988 0 0.152344 144.836 0.152344 323.5C0.152344 502.164 144.988 647 323.652 647ZM225.905 470.06H150.015C132.022 470.06 123.025 470.06 117.637 466.575C111.814 462.81 108.14 456.491 107.751 449.572C107.39 443.169 111.846 435.362 120.758 419.75L120.762 419.744L286.919 128.655C295.962 112.811 300.484 104.889 306.238 101.94C312.453 98.7542 319.824 98.7487 326.044 101.926C331.802 104.866 336.335 112.782 345.401 128.612L383.723 195.52L383.724 195.522C390.317 207.032 393.613 212.788 395.063 218.86C396.641 225.471 396.644 232.358 395.072 238.969C393.628 245.043 390.336 250.803 383.752 262.32L284.392 436.139C277.713 447.825 274.373 453.668 269.797 458.035C264.816 462.789 258.776 466.293 252.174 468.257C246.108 470.06 239.374 470.06 225.905 470.06ZM496.658 470.06H408.672C390.516 470.06 381.437 470.06 376.032 466.545C370.192 462.747 366.529 456.381 366.184 449.429C365.864 442.995 370.433 435.155 379.571 419.479L423.491 344.127C432.514 328.649 437.026 320.91 442.737 318.011C448.91 314.878 456.209 314.873 462.387 317.996C468.104 320.886 472.625 328.619 481.668 344.082L481.67 344.087L525.736 419.437C534.909 435.123 539.495 442.967 539.182 449.406C538.843 456.364 535.182 462.737 529.339 466.541C523.934 470.06 514.842 470.06 496.658 470.06Z"
        fill="#ffffff" />
</svg>