<svg width="114" height="30" viewBox="0 0 114 30" fill="none" xmlns="http://www.w3.org/2000/svg"><g clip-path="url(#clip0_1395_17319)" fill="#fff"><path d="M32.676 6.197h5.852c.84 0 1.58.124 2.222.37.659.248 1.202.577 1.63.99.428.411.749.897.963 1.458.23.56.346 1.145.346 1.755 0 .89-.165 1.63-.494 2.224a3.962 3.962 0 0 1-1.334 1.434c.873.33 1.589.848 2.149 1.557.56.692.84 1.631.84 2.817 0 .791-.149 1.5-.445 2.126a4.544 4.544 0 0 1-1.235 1.557c-.527.412-1.16.725-1.901.94-.741.214-1.564.32-2.47.32h-6.123V6.198zm5.803 7.563c.938 0 1.662-.255 2.172-.766.527-.527.79-1.186.79-1.977 0-.363-.065-.709-.197-1.038a2.348 2.348 0 0 0-.593-.89 2.693 2.693 0 0 0-.938-.593 3.234 3.234 0 0 0-1.234-.223h-3.556v5.487h3.556zm.592 7.91c1.186 0 2.066-.28 2.642-.84.576-.561.864-1.27.864-2.126 0-.857-.288-1.574-.864-2.15-.576-.577-1.456-.866-2.642-.866h-4.148v5.982h4.148zM57.734 22.51a5.443 5.443 0 0 1-1.803 1.088 6.377 6.377 0 0 1-2.123.346 6.359 6.359 0 0 1-2.519-.494 6.261 6.261 0 0 1-2-1.335 6.224 6.224 0 0 1-1.309-2.027 6.792 6.792 0 0 1-.469-2.52c0-.89.157-1.723.47-2.497a5.894 5.894 0 0 1 1.308-2.027 6.063 6.063 0 0 1 2-1.36 6.359 6.359 0 0 1 2.519-.494c.757 0 1.465.124 2.123.371.675.23 1.276.585 1.803 1.063v-1.236h2.123v12.358h-2.123v-1.235zm-3.877-.568c.889 0 1.663-.19 2.321-.568.675-.38 1.194-.857 1.556-1.434v-4.746c-.362-.576-.881-1.054-1.556-1.433-.658-.379-1.432-.568-2.32-.568-.61 0-1.17.115-1.68.346a4 4 0 0 0-1.309.914c-.362.396-.65.865-.864 1.409a4.823 4.823 0 0 0-.296 1.705c0 .61.099 1.187.296 1.73.214.528.502.99.864 1.385.38.395.815.708 1.31.939.51.214 1.07.321 1.678.321zM72.701 16.402a3.235 3.235 0 0 0-6.47 0v7.344h-2.123v-7.271a5.358 5.358 0 1 1 10.716 0v7.271h-2.123v-7.343zM84.577 23.944c-.922 0-1.77-.165-2.543-.494a6.066 6.066 0 0 1-2-1.36 6.57 6.57 0 0 1-1.334-2.026 6.602 6.602 0 0 1-.469-2.497c0-.89.156-1.722.47-2.496.328-.775.773-1.45 1.333-2.027a6.063 6.063 0 0 1 2-1.36c.773-.329 1.621-.494 2.543-.494 1.037 0 1.942.19 2.716.569.79.362 1.457.824 2 1.384l-1.358 1.483a5.454 5.454 0 0 0-1.432-1.013c-.543-.28-1.185-.42-1.926-.42-.61 0-1.169.115-1.68.346-.493.214-.93.518-1.308.914-.362.396-.65.865-.864 1.409a4.823 4.823 0 0 0-.296 1.705c0 .61.098 1.187.296 1.73.214.528.502.99.864 1.385a4.34 4.34 0 0 0 1.309.939c.51.214 1.07.321 1.679.321.74 0 1.383-.14 1.926-.42a5.451 5.451 0 0 0 1.432-1.013l1.358 1.483c-.543.56-1.21 1.03-2 1.408-.774.363-1.68.544-2.716.544zM97.732 23.944c-.938 0-1.802-.165-2.592-.494a6.349 6.349 0 0 1-2.025-1.36 6.57 6.57 0 0 1-1.333-2.026 6.604 6.604 0 0 1-.47-2.497c0-.89.157-1.722.47-2.496.329-.775.773-1.45 1.333-2.027a6.346 6.346 0 0 1 2.025-1.36c.79-.329 1.654-.494 2.592-.494.922 0 1.77.165 2.544.495.79.33 1.465.782 2.024 1.36a6.021 6.021 0 0 1 1.334 2.026c.329.774.494 1.606.494 2.496 0 .89-.165 1.722-.494 2.497a6.022 6.022 0 0 1-1.334 2.026 5.995 5.995 0 0 1-2.024 1.36c-.774.33-1.622.494-2.544.494zm0-2.002c.626 0 1.194-.107 1.704-.321.527-.23.971-.544 1.334-.94a4.03 4.03 0 0 0 .864-1.384 5.04 5.04 0 0 0 .296-1.73c0-.61-.099-1.178-.296-1.705a3.985 3.985 0 0 0-.864-1.409 3.646 3.646 0 0 0-1.334-.914 4.09 4.09 0 0 0-1.704-.346 4.26 4.26 0 0 0-1.728.346 3.93 3.93 0 0 0-1.333.914c-.363.396-.65.865-.865 1.409a4.82 4.82 0 0 0-.296 1.705c0 .61.099 1.187.296 1.73.214.528.502.99.865 1.385a4.25 4.25 0 0 0 1.333.939 4.545 4.545 0 0 0 1.728.321zM107.548 11.388h2.124v1.32c.428-.528.93-.785 1.506-1.048a4.515 4.515 0 0 1 1.901-.396c.297 0 .585.025.865.074v2.2a4.32 4.32 0 0 0-1.186-.148c-.675 0-1.292.165-1.851.494-.318.192-.59.485-.817.824-.324.482-.418 1.073-.418 1.653v7.385h-2.124V11.388zM8.476 0 1.004 4.318l7.472 4.34 7.472-4.34L8.476 0zM0 14.677l7.455 4.304v-8.617L0 6.06v8.616zM0 25.619l7.455 4.303v-8.616L0 17.003v8.616zM16.952 14.677l-7.455 4.304v-8.617l7.455-4.303v8.616zM20 15.243v8.617L9.498 29.922v-8.616L20 15.243z"/></g><defs><clipPath id="clip0_1395_17319"><path fill="#fff" d="M0 0h113.944v30H0z"/></clipPath></defs></svg>