<svg viewBox="0 0 101 52" fill="none" xmlns="http://www.w3.org/2000/svg" width="200" height="102">
    <path d="M30.315 16.145h-2.883v2.884h2.883v-2.884Z" fill="#000"></path>
    <path fill-rule="evenodd" clip-rule="evenodd"
        d="M23.588 25.9v-.397c.589-.528.96-1.294.96-2.147V19.87a3.725 3.725 0 0 0-3.724-3.726h-7.808v20.19h9.13a3.845 3.845 0 0 0 3.845-3.845v-3.365a3.365 3.365 0 0 0-2.403-3.224ZM15.9 19.03h4.325c.796 0 1.442.645 1.442 1.441v2.885c0 .796-.646 1.442-1.442 1.442H15.9V19.03Zm5.767 7.21h-.003.003Zm1.442 5.77c0 .796-.646 1.442-1.442 1.442H15.9v-5.77h5.767c.796 0 1.442.646 1.442 1.443v2.884Zm15.856-7.212v-2.884h-2.883v-5.77h-2.883v5.77h-5.767v14.422h2.883V24.798H33.2v11.538h5.766v-2.884h-2.883v-8.654h2.883Z"
        fill="#fff"></path>
    <path
        d="M75.009 13.02H54.825c-7.166 0-12.975 5.811-12.975 12.98 0 7.169 5.809 12.98 12.975 12.98h20.184c7.166 0 12.975-5.811 12.975-12.98 0-7.169-5.809-12.98-12.975-12.98Z"
        fill="#C1FF3C"></path>
    <path
        d="M56.68 21.266c-1.124-1.035-2.746-1.56-4.822-1.56H47.72a.061.061 0 0 0-.06.062v.511a.06.06 0 0 0 .06.061c.77 0 1.018.196 1.018.804v9.77c0 .61-.247.805-1.018.805a.061.061 0 0 0-.06.061v.511a.06.06 0 0 0 .06.061h4.14c2.066 0 3.688-.541 4.82-1.609 1.164-1.096 1.754-2.699 1.754-4.763 0-2.056-.59-3.642-1.754-4.714Zm-.41 4.714c0 1.81-.377 3.096-1.153 3.935-.756.817-1.899 1.214-3.494 1.214h-.802V20.93h.802c1.604 0 2.747.381 3.494 1.166.776.814 1.153 2.084 1.153 3.884Zm14.652 5.739c-.795 0-1.293-.125-1.486-.762l-3.39-11.206a.065.065 0 0 0-.063-.044h-4.52c-.036 0-.066.027-.066.06v.512c0 .034.03.061.066.061.727 0 1.21.04 1.366.235.082.101.087.258.015.493l-3.014 9.89c-.193.636-.691.76-1.486.76a.067.067 0 0 0-.046.019.06.06 0 0 0-.019.043v.511c0 .034.03.061.065.061h4.5c.036 0 .065-.027.065-.06v-.512c0-.034-.03-.061-.065-.061-.728 0-1.21-.04-1.367-.235-.081-.101-.086-.258-.014-.493l.677-2.256h4.4l.678 2.256c.071.235.066.392-.015.493-.157.195-.64.235-1.367.235-.036 0-.065.027-.065.061v.511c0 .034.03.061.065.061h5.086c.036 0 .065-.027.065-.06v-.512a.06.06 0 0 0-.02-.043.067.067 0 0 0-.045-.018Zm-4.753-4.207h-3.657l1.838-6.027 1.819 6.027Zm14.678-6.172c-.987-1.197-2.453-1.83-4.24-1.83-1.787 0-3.253.633-4.24 1.83-.924 1.121-1.412 2.698-1.412 4.562 0 1.878.488 3.49 1.411 4.658.998 1.263 2.464 1.93 4.241 1.93 1.777 0 3.244-.668 4.241-1.93.923-1.169 1.411-2.78 1.411-4.658 0-1.864-.488-3.44-1.412-4.561Zm-1.699 8.585c-.598.89-1.476 1.361-2.54 1.361-1.065 0-1.944-.47-2.542-1.361-.63-.937-.948-2.291-.948-4.023 0-1.718.318-3.038.947-3.924.595-.839 1.45-1.264 2.542-1.264 1.092 0 1.947.425 2.542 1.264.629.886.948 2.206.948 3.924 0 1.732-.32 3.086-.949 4.023Z"
        fill="#000"></path>
</svg>