<svg width="196" height="49" viewBox="0 0 196 49" fill="none" xmlns="http://www.w3.org/2000/svg">
<path d="M96.4 22.1V18.9H93.1V33.2H96.4V27.8C96.4 24 98.4 22.2 101.3 22.2H101.5V18.7C99 18.5 97.3 20 96.4 22.1Z" fill="white"/>
<path fill-rule="evenodd" clip-rule="evenodd" d="M75.8 26.1C75.8 22 79 18.6 83.4 18.6C87.7 18.6 91.1 21.9 91.1 26C91.1 30.1 87.8 33.5 83.4 33.5C79 33.5 75.8 30.2 75.8 26.1ZM79.1 26C79.1 28.5 80.9 30.6 83.4 30.6C86 30.6 87.7 28.6 87.8 26C87.8 23.5 86 21.4 83.4 21.4C80.8 21.4 79.1 23.5 79.1 26Z" fill="white"/>
<path fill-rule="evenodd" clip-rule="evenodd" d="M70.7 23.3C72.1 22.6 73.4 21.4 73.4 19.1C73.4 16.1 71 14.3 67.2 14.3H58.7V33.2H67.5C71.7 33.2 74.5 31.4 74.5 28C74.5 25.3 73 24.1 70.7 23.3ZM62 17.2H66.8C68.9 17.2 70.1 18.1 70.1 19.6C70.1 21.4 68.7 22.2 66.5 22.2H62V17.2ZM62 30.2H67.5C69.8 30.2 71.2 29.3 71.2 27.6C71.2 26 69.9 25 67.3 25H62V30.2Z" fill="white"/>
<path fill-rule="evenodd" clip-rule="evenodd" d="M176 23.7C176 18.4 180.1 13.9 185.9 13.9C191.7 13.9 195.8 18.3 195.8 23.6C195.8 28.9 191.7 33.4 185.9 33.4C180.1 33.4 176 29 176 23.7ZM179.5 23.6C179.5 27.3 182.1 30.4 185.9 30.4C189.6 30.4 192.3 27.4 192.3 23.7C192.3 20 189.7 16.9 185.9 16.9C182.1 16.9 179.5 19.9 179.5 23.6Z" fill="white"/>
<rect x="103.7" y="18.9" width="3.3" height="14.3" fill="white"/>
<path fill-rule="evenodd" clip-rule="evenodd" d="M157.2 33.1L165.5 14.1H168.5L176.8 33.1H173.3L171.4 28.5H162.5L160.6 33.1H157.2ZM167 18L163.8 25.6H170.3L167 18Z" fill="white"/>
<path fill-rule="evenodd" clip-rule="evenodd" d="M130.5 18.6C132.9 18.6 134.4 19.7 135.5 21V18.9H138.8V30.2C138.8 35.2 136 37.5 131.1 37.5C128.8 37.5 126.6 36.9 124.7 35.8L125.9 33.4C127.4 34.4 129.2 34.9 131 34.9C133.9 34.9 135.5 33.4 135.5 30.5V29.4C134.3 30.9 132.8 32 130.5 32C127.1 32 124 29.5 124 25.3C124 21.1 127.2 18.6 130.5 18.6ZM127.4 25.3C127.4 27.7 129.1 29.3 131.4 29.3C133.6 29.3 135.6 27.7 135.6 25.4C135.6 23 133.7 21.4 131.4 21.4C129.2 21.4 127.4 22.9 127.4 25.3Z" fill="white"/>
<path fill-rule="evenodd" clip-rule="evenodd" d="M141 14.2H148.1C154.1 14.2 158.2 18.2 158.2 23.6C158.2 29 154.1 33.1 148.1 33.1H141V14.2ZM144.4 30.1H148.1C152.1 30.1 154.7 27.4 154.7 23.8C154.7 20 152.1 17.3 148.1 17.3H144.4V30.1Z" fill="white"/>
<rect x="103.5" y="13.6" width="3.5" height="3.1" fill="white"/>
<path d="M116.8 18.6C114.6 18.6 113.3 19.8 112.3 21.1V18.9H109V33.2H112.3V25.1C112.3 22.9 113.6 21.6 115.5 21.6C117.4 21.6 118.6 22.9 118.6 25.1V33.2H121.9V24.1C121.9 20.7 120 18.6 116.8 18.6Z" fill="white"/>
<path fill-rule="evenodd" clip-rule="evenodd" d="M181.5 23.6C181.5 21.3 183.4 19.4 185.7 19.4C188.1 19.4 189.9 21.3 189.9 23.6C189.9 25.9 188 27.8 185.7 27.8C183.4 27.8 181.5 25.9 181.5 23.6ZM184.2 23.6C184.2 24.4 184.9 25.1 185.7 25.1C186.5 25.1 187.2 24.5 187.2 23.6C187.1 22.7 186.5 22.1 185.7 22.1C184.9 22.1 184.2 22.8 184.2 23.6Z" fill="white"/>
<path d="M13.8 2.8C14 2.7 14.1 2.6 14.3 2.6C14.1 2.6 13.9 2.7 13.8 2.8Z" fill="white"/>
<path d="M14.4 2.5C14.6 2.4 14.8 2.3 15 2.2C14.8 2.3 14.6 2.4 14.4 2.5Z" fill="white"/>
<path d="M15.2 2.1C15.4 2 15.5 2 15.7 1.9C15.5 2 15.4 2.1 15.2 2.1Z" fill="white"/>
<path d="M15.9 1.8C16.1 1.7 16.2 1.7 16.4 1.6C16.2 1.7 16.1 1.8 15.9 1.8Z" fill="white"/>
<path d="M9 5.9C9.1 5.8 9.2 5.8 9.2 5.7C9.2 5.7 9.1 5.8 9 5.9Z" fill="white"/>
<path d="M8.2 6.6C8.4 6.4 8.6 6.3 8.8 6.1C8.5 6.3 8.3 6.4 8.2 6.6Z" fill="white"/>
<path fill-rule="evenodd" clip-rule="evenodd" d="M16.5 1.6C19 0.799999 21.6 0.299999 24.4 0.299999C37.7 0.299999 48.4 11 48.3 24.3C48.3 37.5 37.5 48.3 24.3 48.3C11.1 48.3 0.299999 37.6 0.299999 24.3C0.299999 17.9691 2.75391 12.2925 6.7 8.01017V25.2C6.9 34.9 14.7 42.6 24.4 42.6C34.2 42.6 42.1 34.7 42.1 24.9C42.1 15.1 34.2 7.2 24.4 7.2H20.4V10H24.7C32.9 10.1 39.4 16.8 39.4 24.9C39.4 33.1 32.7 39.8 24.5 39.8C16.3 39.8 9.6 33.1 9.6 24.9V5.4C10.9 4.4 12.3 3.5 13.8 2.8V25C13.9 30.9 18.6 35.6 24.5 35.6C30.4 35.6 35.2 30.8 35.2 24.9C35.2 19 30.4 14.2 24.5 14.2H20.5V17H24.7C29 17.1 32.5 20.7 32.5 25C32.5 29.4 28.9 33 24.5 33C20.1 33 16.5 29.4 16.5 25V1.6ZM6.7 8.01017C7.11704 7.55758 7.55076 7.12057 8 6.7C7.66228 6.97018 7.37018 7.28598 7.09288 7.58577C6.95964 7.72982 6.82982 7.87018 6.7 8V8.01017ZM24.4 20.7H20.4V24.8C20.4 26.9 22.2 28.7 24.4 28.7C26.6 28.7 28.4 26.9 28.4 24.7C28.4 22.5 26.6 20.7 24.4 20.7Z" fill="white"/>
</svg>
