<svg version="1.0" xmlns="http://www.w3.org/2000/svg"
    width="950.000000pt" height="400.000000pt" viewBox="0 0 950.000000 400.000000"
    preserveAspectRatio="xMidYMid meet">

    <g transform="translate(0.000000,400.000000) scale(0.100000,-0.100000)"
        fill="#ffffff" stroke="none">
        <path
            d="M1810 3184 c-316 -50 -593 -217 -787 -471 -57 -75 -147 -258 -173
-353 -101 -366 -44 -761 154 -1058 162 -244 429 -416 746 -479 120 -24 412
-24 533 0 115 23 244 69 336 120 81 44 232 155 326 240 l59 54 -149 156 -149
156 -61 -58 c-122 -117 -251 -197 -390 -241 -89 -28 -272 -38 -382 -20 -391
62 -644 366 -643 772 1 213 65 382 203 534 153 167 371 253 616 241 224 -10
403 -90 586 -260 l71 -65 39 36 c22 19 91 85 153 146 l114 111 -89 85 c-180
176 -403 292 -658 345 -113 24 -337 28 -455 9z" />
        <path d="M5140 2020 l0 -1170 215 0 215 0 0 1170 0 1170 -215 0 -215 0 0
-1170z" />
        <path
            d="M3900 2574 c-214 -39 -396 -132 -511 -262 -103 -116 -181 -268 -215
-425 -20 -87 -22 -287 -5 -372 59 -288 220 -507 458 -620 278 -134 662 -120
928 33 56 33 255 219 255 240 0 5 -78 46 -173 91 l-174 83 -77 -56 c-98 -70
-177 -97 -311 -103 -253 -13 -441 114 -500 336 l-13 51 685 0 686 0 -6 118
c-13 259 -79 439 -225 610 -94 111 -260 211 -417 252 -78 21 -321 36 -385 24z
m262 -365 c134 -28 256 -120 309 -233 l29 -61 -452 -3 c-248 -1 -454 0 -457 4
-11 11 55 118 105 170 51 53 145 107 212 123 54 13 192 13 254 0z" />
        <path
            d="M6460 2561 c-175 -39 -300 -108 -425 -235 -237 -241 -316 -605 -204
-941 133 -399 503 -621 957 -576 243 25 390 90 543 241 132 131 138 113 -65
209 -96 44 -177 81 -181 81 -4 0 -25 -16 -46 -35 -139 -125 -403 -163 -588
-83 -112 48 -203 152 -241 275 -11 36 -20 67 -20 69 0 2 306 4 679 4 l679 0 4
43 c8 73 -12 254 -38 343 -85 296 -291 501 -589 590 -124 36 -338 43 -465 15z
m343 -356 c147 -38 268 -141 316 -267 l11 -28 -461 0 -460 0 32 61 c64 119
163 202 279 233 72 19 211 20 283 1z" />
        <path
            d="M8538 2540 c-169 -29 -322 -111 -380 -205 l-18 -30 0 113 0 112 -185
0 -185 0 0 -845 0 -845 210 0 210 0 0 443 c1 517 7 612 44 685 66 131 189 192
387 192 l79 0 0 195 0 195 -57 -1 c-32 -1 -79 -5 -105 -9z" />
    </g>
</svg>