<svg xmlns="http://www.w3.org/2000/svg" width="142" height="29" viewBox="0 0 142 29" fill="none">
    <g clip-path="url(#clip0)">
        <path
            d="M22.3749 11.3253V5.75494H19.5745V2.96976H13.9807V0.18457H8.39058V2.96976H2.79686V5.75494H0V22.466H2.79686V25.2512H8.38702V28.0364H13.9807V25.2512H19.5745V22.466H22.3749V16.8957H16.7776V19.6738H13.9807V22.459H8.39058V19.6738H5.59372V8.54012H8.39058V5.75494H13.9807V8.54012H16.7776V11.3253H22.3749Z"
            fill="white" />
        <path
            d="M37.5278 2.95508C43.9731 2.95508 48.6227 7.48366 48.6227 14.1348C48.6227 20.7859 43.9909 25.2649 37.5278 25.2649C31.0648 25.2649 26.4829 20.7363 26.4829 14.1348C26.4829 7.53327 31.1325 2.95508 37.5278 2.95508ZM37.5278 7.05136C33.9436 7.05136 31.3249 9.79756 31.3249 14.1383C31.3249 18.4791 33.9436 21.1722 37.5278 21.1722C41.2119 21.1722 43.7771 18.426 43.7771 14.1383C43.7771 9.85072 41.2119 7.05136 37.5278 7.05136Z"
            fill="white" />
        <path
            d="M52.5459 4.79133C55.6924 3.61527 59.0218 2.99644 62.383 2.96289C67.8592 2.96289 71.3472 5.03229 71.3472 11.0562V24.7837H66.5979V11.485C66.5979 8.39861 64.6597 7.29304 61.9947 7.29304C60.4219 7.28256 58.8554 7.49251 57.3415 7.91669V24.7837H52.5459V4.79133Z"
            fill="white" />
        <path
            d="M82.6836 24.7835L74.3999 3.4375H79.4877L85.5446 20.1592L91.5659 3.4375H96.5076L88.1597 24.7835H82.6836Z"
            fill="white" />
        <path
            d="M102.843 15.1948V15.2905C103.131 19.0997 106.427 21.1691 109.772 21.1691C112.726 21.1691 114.86 20.4959 116.991 19.0997V23.2917C115.053 24.6417 112.195 25.2654 109.434 25.2654C102.746 25.2654 98.1895 21.0132 98.1895 14.2806C98.1895 7.54794 102.65 2.94141 108.561 2.94141C114.81 2.94141 117.767 6.93847 117.767 12.7711V15.1806L102.843 15.1948ZM102.989 12.112H113.26C113.164 8.78462 111.515 6.95264 108.415 6.95264C105.654 6.95264 103.619 8.8803 102.989 12.112Z"
            fill="white" />
        <path
            d="M133.921 13.7987L141.87 24.7835H136.394L131.114 17.3138L125.83 24.7835H120.596L128.545 13.8447L121.063 3.4375H126.589L131.335 10.28L136.006 3.4375H141.446L133.921 13.7987Z"
            fill="white" />
    </g>
    <defs>
        <clipPath id="clip0">
            <rect width="141.87" height="27.8518" fill="white" transform="translate(0 0.18457)" />
        </clipPath>
    </defs>
    <deepl-alert xmlns="" />
    <deepl-alert xmlns="" />
    <deepl-alert xmlns="" />
</svg>