<svg xmlns="http://www.w3.org/2000/svg" viewBox="0 0 256 67" xml:space="preserve"><style>.curve-white_svg__st0{opacity:.8}.curve-white_svg__st1,.curve-white_svg__st2{fill:none;stroke:#fff;stroke-width:.1;stroke-miterlimit:10}.curve-white_svg__st2{opacity:.1;enable-background:new}</style><g id="curve-white_svg__Layer_1"><g id="curve-white_svg__line" class="curve-white_svg__st0"><path class="curve-white_svg__st1" d="m48.7 29.8-4 .1v2.9l4-.2v-2.8zM4.5 41.9l.4 2.1-1.3-3.7-.4-2.1 1.3 3.7zm44.2-15-4-.1v3l4-.1v-2.8z"></path><path class="curve-white_svg__st1" d="m44.7 26.8-3.2.2v3.2l3.3-.3-.1-3.1zm8.4.6-4.4-.4v2.8l4.4.2v-2.6zm4.5.6-4.5-.7v2.6l4.5.5V28zm-8.8-3.9-4-.3v3.1l4 .1v-2.9zM3.2 38.2l.4 2.1-.9-3.8-.4-2.1.9 3.8z"></path><path class="curve-white_svg__st1" d="m53.3 24.7-4.5-.6-.1 2.9 4.4.4.2-2.7zm-8.5-1h-3.4l.1 3.3 3.3-.2v-3.1zm13 1.9-4.5-.9-.1 2.7 4.5.7.1-2.5z"></path><path class="curve-white_svg__st1" d="m41.4 23.7-2.5.3.1 3.5 2.4-.5c.1 0 0-3.3 0-3.3zm7.6-2.5-4.2-.6v3.1l4 .3.2-2.8z"></path><path class="curve-white_svg__st1" d="m53.5 22.1-4.6-.9-.1 2.9 4.5.6.2-2.6zm-8.7-1.5-3.5-.2.1 3.3h3.4v-3.1zM62 26.7l-4.2-1.1-.2 2.4 4.2.9.2-2.2zM4.9 44l.7 2-1.3-3.6-.7-2c0-.1 1.3 3.6 1.3 3.6z"></path><path class="curve-white_svg__st1" d="m58.1 23.2-4.6-1.1-.2 2.6 4.5.9.3-2.4zM2.4 34.3l.4 2.1-.4-3.9-.4-2 .4 3.8zM58.6 9.7l-7-2.2-.3-.1L58 9.6l.6.1zm-9.5 8.7-4.4-.8v3l4.2.6.2-2.8zm-7.8 2-2.6.1.3 3.5 2.5-.3c-.1 0-.2-3.3-.2-3.3zm3.3-14.8-6.4-1.4.5.4L44.6 6v-.4z"></path><path class="curve-white_svg__st1" d="m51.3 7.4-6.7-1.8V6l6.3 1.7.4-.3zm2.6 12.1-4.7-1.1-.2 2.8 4.6.9c-.1 0 .3-2.6.3-2.6zm-9.1-1.8-3.7-.4.2 3.2 3.5.2v-3zm17.6 6.8-4.3-1.3-.3 2.4 4.2 1.1.4-2.2z"></path><path class="curve-white_svg__st1" d="m58 9.6-6.7-2.2-.3.3 6.4 2.1c-.1 0 .6-.2.6-.2zm.6 11.2-4.7-1.3-.4 2.5 4.6 1.1.5-2.3zm-9.2-5-4.6-1v2.8l4.4.8c-.1 0 .2-2.6.2-2.6zm15.8-3.6-6.6-2.5-.6-.1 6.3 2.4.9.2zM50.9 7.7 44.6 6v.9l5.9 1.6.4-.8z"></path><path class="curve-white_svg__st1" d="m54.3 17.1-4.9-1.3-.2 2.6 4.7 1.1.4-2.4zM44.6 6l-5.9-1.3.5 1 5.5 1.2-.1-.9zm-3.5 11.2-2.9-.1.4 3.4 2.6-.1c.1 0-.1-3.2-.1-3.2z"></path><path class="curve-white_svg__st1" d="m44.8 14.9-4-.6.3 3 3.7.4v-2.8zM3.6 40.3l.7 2-.8-3.8-.7-2.1.8 3.9zM57.3 9.8l-6.4-2.1-.3.8 6.1 2 .6-.7zm-7.7 3.7-4.9-1.2v2.5l4.6 1 .3-2.3zm9.6 5.2-4.9-1.5-.4 2.4 4.7 1.3.6-2.2zM50.6 8.6 44.7 7v1.4l5.6 1.5.3-1.3z"></path><path class="curve-white_svg__st1" d="m54.8 15-5.2-1.5-.3 2.3 4.9 1.3.6-2.1zm8.2 7.4-4.4-1.5-.5 2.3 4.3 1.3.6-2.1zM64.3 12 58 9.6l-.7.3 6 2.3 1-.2zM44.7 6.9l-5.5-1.2.5 1.5 5.1 1.1-.1-1.4zm-6-2.2-5.2-.8.9 1 4.8.8-.5-1zm11.2 6.8-5.2-1.4v2.2l4.9 1.2.3-2zM2 30.5l.4 2.1.1-3.8-.4-2.2-.1 3.9z"></path><path class="curve-white_svg__st1" d="m50.3 9.8-5.6-1.5v1.8l5.2 1.4.4-1.7zm6.4.7-6.1-2-.3 1.3 5.7 1.8c0 .1.7-1.1.7-1.1zm-12 1.8-4.3-.8.3 2.7 4 .6v-2.5z"></path><path class="curve-white_svg__st1" d="m55.4 13.2-5.5-1.7-.3 2 5.2 1.5.6-1.8zM66 25.9l-3.6-1.4-.4 2.2 3.5 1.2c.1 0 .5-2 .5-2zM32.5 3.4 27.6 3l1.4.5 4.4.3-.9-.4z"></path><path class="curve-white_svg__st1" d="m56 11.7-5.7-1.8-.3 1.7 5.4 1.7.6-1.6zM44.7 8.3l-5.1-1.1.4 2 4.7 1V8.3z"></path><path class="curve-white_svg__st1" d="m44.7 10.1-4.7-1 .4 2.4 4.3.8v-2.2zm15.2 6.7L54.8 15l-.5 2.1 4.9 1.5c0 .1.7-1.8.7-1.8zm-19.1-2.6-3.2-.2.6 3.2 2.9.1-.3-3.1zm22.6-2-6-2.3-.7.7 5.8 2.2.9-.6zM26.3 3.1l-4.3.2 1.8-.1 3.9-.2-1.4.1zm37.4 17.3-4.5-1.7-.6 2.2 4.4 1.5.7-2zm7.2-5.6-5.7-2.6-.9-.2 5.5 2.6 1.1.2zM39.2 5.7l-4.8-.8.9 1.6 4.3.7-.4-1.5zm21.5 9.4-5.3-1.9-.6 1.8 5.1 1.8.8-1.7zM3.5 20.7 2.7 23l1.1-3.4.7-2.2c0-.1-1 3.3-1 3.3z"></path><path class="curve-white_svg__st1" d="m38.2 17.1-1.9.3.7 3.5 1.7-.4c-.1 0-.5-3.4-.5-3.4zm24.2-4.3-5.8-2.2-.6 1.1 5.5 2.1.9-1z"></path><path class="curve-white_svg__st1" d="M61.6 13.8 56 11.7l-.6 1.5 5.3 1.9.9-1.3zm-21.2-2.3-3.5-.4.7 2.9 3.2.3-.4-2.8zM66.6 24 63 22.4l-.6 2.1 3.6 1.4.6-1.9zm9.7 20.6 2.1-.8 1.2-.5-2.1.9-1.2.4zM39.6 7.2l-4.3-.7.9 2.1 3.8.5-.4-1.9z"></path><path class="curve-white_svg__st1" d="m40 9.1-3.9-.6.8 2.5 3.5.4c0 .1-.4-2.3-.4-2.3zm-6.6-5.3-4.3-.3 1.4 1.1 3.9.3-1-1.1zm31.1 14.9-4.6-1.9-.7 1.9 4.5 1.7.8-1.7zm5.3-4.1L64.3 12l-.9.2 5.3 2.5 1.1-.1zM5.6 46l.7 1.8L5 44.2l-.8-1.9L5.6 46zm-2.8-9.5.7 2.1-.4-3.8-.7-2.1.4 3.8zm74.6 7.6 2.1-.9 1.1-.7-2.2 1-1 .6zM65.5 17.2l-4.8-2.1-.8 1.7 4.6 1.9 1-1.5zM37.6 14l-2.2.1.9 3.3 1.9-.3-.6-3.1zm29.8 8.3-3.7-1.9-.7 2 3.6 1.6.8-1.7zm9.1-4.2-4.6-2.7-1-.6 4.5 2.7 1.1.6zm-10-2.1-5-2.3-.9 1.3 4.8 2.1 1.1-1.1z"></path><path class="curve-white_svg__st1" d="m67.6 15.2-5.1-2.4-.9 1 5 2.3 1-.9zM27.7 3l-3.8.2 1.9.5 3.4-.2-1.5-.5zM84 37.7l.5-1.5.4-1.6-.5 1.7-.4 1.4zm-5.5 5.8 2.2-1 1-.9-2.2 1.1c0-.1-1 .8-1 .8zM34.4 4.9l-3.9-.3 1.4 1.7 3.4.2-.9-1.6zM2.1 26.6l.4 2.2.6-3.7-.4-2.1-.6 3.6zm34.8-15.5h-2.6l1 3 2.2-.1-.6-2.9z"></path><path class="curve-white_svg__st1" d="m35.3 6.5-3.4-.2 1.3 2.2 3 .1-.9-2.1zm33 14.2-3.8-2-.8 1.7 3.7 1.9.9-1.6zm7-3.2-4.5-2.7-1.1-.2 4.4 2.7c.1-.1 1.2.2 1.2.2zm-6.1 8.2L66.6 24l-.6 1.9 2.5 1.5.7-1.7z"></path><path class="curve-white_svg__st1" d="m36.2 8.6-3-.1 1.2 2.6H37c-.1 0-.8-2.5-.8-2.5zm43.3 34 2.2-1.1.9-1.1-2.2 1.2-.9 1zm4.8-6.4.5-1.7.2-1.7-.5 1.8-.2 1.6zM22 3.3l-3.2.7 2.2-.1 2.8-.7-1.8.1zm47.4 16.1-3.9-2.2-.9 1.5 3.8 2 1-1.3zm4.8-2.2-4.4-2.7-1.1.1 4.2 2.6h1.3zM4.3 42.3l.7 1.9-.8-3.7-.8-2 .9 3.8zm.2-25-.7 2.2 1.5-3.1.7-2.2-1.5 3.1zM29.1 3.5l-3.4.2 1.9 1.1 2.9-.2-1.4-1.1z"></path><path class="curve-white_svg__st1" d="m70.5 18.4-4-2.4-1 1.2 3.9 2.2 1.1-1zm-.5 5.8-2.6-1.9-.8 1.7 2.5 1.7.9-1.5zm10.4 17.4 2.2-1.2.7-1.3-2.3 1.3-.6 1.2zm-8.7-23.9-4.1-2.5-1.1.8 4 2.4 1.2-.7zm8.9 3.9L77.5 19l-1-.9 3.1 2.7 1 .8zm-78.2 11 .7 2.1.1-3.7-.7-2.2-.1 3.8zm33-18.5-1.2.5 1.2 3.4.9-.6-.9-3.3zM9.8 9.7l-2 2L10 9.6l1.8-1.9-2 2zm62.8 35.8 3.7-.9 1.2-.4-3.7 1-1.2.3zm11.9-10.9.5-1.8v-1.7l-.5 1.9v1.6zm-54-30-2.9.2 1.8 1.7 2.4-.2-1.3-1.7zM71 22.8l-2.6-2.1-.9 1.5 2.6 1.9.9-1.3zm8.5-2-3.1-2.7-1.1-.6 3 2.7 1.2.6z"></path><path class="curve-white_svg__st1" d="m81.1 40.4 2.3-1.3.6-1.4-2.3 1.5c0-.1-.6 1.2-.6 1.2zm-7.4 4.7 3.7-1 1.1-.7-3.8 1c.1.1-1 .7-1 .7zm-39.3-34-1.6.4 1.4 3.1 1.2-.5-1-3zM16.6 4.8l-2.5 1.3 2.5-.9L18.8 4l-2.2.8zm15.3 1.5-2.4.2 1.7 2.2 2-.3-1.3-2.1zm-8.1-3.1-2.8.7 2.3.5 2.3-.7-1.8-.5zm9.4 5.2-2 .3 1.6 2.7 1.6-.4c0 .1-1.2-2.6-1.2-2.6zm38.9 13.3-2.7-2.2-1 1.3 2.6 2.1c0-.1 1.1-1.2 1.1-1.2zM2.7 23l.4 2.2 1.1-3.4-.4-2.2L2.7 23zm81.8 10.1.5-1.9-.2-1.7-.5 2 .2 1.6z"></path><path class="curve-white_svg__st1" d="m74.8 44.5 3.8-1 1-.8-3.8 1.1-1 .7zM6.3 47.8l.7 1.5-1.2-3.5-.8-1.6 1.3 3.6zm67-27-2.7-2.4-1.1 1 2.7 2.2 1.1-.8zm3.8-.9-2.9-2.6-1.2.1 2.9 2.6 1.2-.1zM3.4 38.6l.8 2-.4-3.7-.8-2.1.4 3.8zm78.3.5 2.3-1.5.4-1.5-2.4 1.7-.3 1.3zM71.2 26 70 24.2l-.8 1.6 1.2 1.7.8-1.5z"></path><path class="curve-white_svg__st1" d="m74.5 20.2-2.8-2.5-1.2.7 2.7 2.4 1.3-.6z"></path><path class="curve-white_svg__st1" d="m75.8 19.9-2.9-2.6-1.2.4 2.8 2.5 1.3-.3zm7.1 5.3-1.4-2.5-.9-1.1 1.3 2.5 1 1.1zM6 14.2l-.7 2.2 1.9-2.7.6-2.2c.1.1-1.8 2.7-1.8 2.7zm69.7 29.6 3.8-1.1.9-1-3.8 1.2-.9.9zm8.6-12.3.5-2-.4-1.6-.5 2.1.4 1.5zM25.7 3.7l-2.3.7 2.3 1.1 1.9-.7-1.9-1.1zm46.5 21.1-1.2-2-1 1.4 1.2 1.9 1-1.3zm-69.7 4 .7 2.2.6-3.6-.7-2.2-.6 3.6zm79.5 9 2.3-1.6.2-1.6-2.3 1.7-.2 1.5zM11.8 7.6 10 9.5 12.6 8l1.5-1.8-2.3 1.4zm70.1 16.6-1.3-2.5-1.1-.9 1.3 2.6c0-.1 1.1.8 1.1.8zM18.8 4l-2.2 1.3 2.6-.2L21 3.9l-2.2.1zm48.9 42.5 5-1 1.1-.4-5 1-1.1.4zm8.9-3.7 3.8-1.2.7-1.2-3.9 1.3z"></path><path class="curve-white_svg__st1" d="m73.3 23.8-1.2-2.2-1.1 1.2 1.2 2 1.1-1zm10.5 6.3.5-2.1-.6-1.4-.5 2.2.6 1.3zm-3-6.8-1.3-2.6-1.2-.6 1.3 2.6 1.2.6zM27.6 4.8l-1.9.7L28 7.2l1.5-.7-1.9-1.7zm5.2 6.7-.7.8 1.7 3.2.4-.9-1.4-3.1z"></path><path class="curve-white_svg__st1" d="m74.5 23.1-1.2-2.3-1.2.9 1.2 2.2c0-.1 1.2-.8 1.2-.8zm-5.8 23.1 5-1 1.1-.6-5.1 1.1-1 .5zm13.5-9.9 2.3-1.7V33l-2.3 1.8v1.5zM29.5 6.5l-1.5.7 2.2 2.3 1.1-.7-1.8-2.3z"></path><path class="curve-white_svg__st1" d="m31.2 8.7-1.1.7 2 2.8.7-.8-1.6-2.7zm44.6 13.9-1.2-2.4-1.3.6 1.2 2.3 1.3-.5zm-72-3.1.4 2.2 1.5-3.1-.4-2.2-1.5 3.1zm73.4 22.2 3.9-1.3.5-1.3-3.9 1.4-.5 1.2zm1.2-19.3-1.3-2.5h-1.3l1.3 2.5h1.3z"></path><path class="curve-white_svg__st1" d="m77.1 22.3-1.3-2.5-1.3.3 1.2 2.4c.1.1 1.4-.2 1.4-.2zm-74 12.4.8 2.1.1-3.7-.8-2.1-.1 3.7zm80.1-6 .5-2.2-.8-1.3-.5 2.3.8 1.2zM69.7 45.6l5.1-1.1.9-.7-5.1 1.1zM21 3.9l-1.8 1.2 2.8.4 1.4-1.2-2.4-.4zm61.2 31 2.3-1.8-.2-1.5-2.3 1.9.2 1.4zM7.9 11.6l-.6 2.2 2.3-2.2.5-2.1-2.2 2.1z"></path><path class="curve-white_svg__st1" d="m82.4 27.5.5-2.3-1-1.1-.5 2.3c0 .1 1 1.1 1 1.1zm-4.6 13 3.9-1.4.4-1.4-3.9 1.5-.4 1.3zM14.1 6.2 12.6 8l2.8-1 1.2-1.7-2.5.9zM7 49.3l.5 1.2-1.2-3.3-.6-1.4L7 49.3zm63.6-4.4 5.1-1.2.8-.9-5.1 1.2-.8.9zm2.3-19 .4-2-1.1 1-.4 1.9 1.1-.9zm-69.8-.8.7 2.2 1-3.3-.7-2.3-1 3.4zm58.7 22.5 5.9-1.1 1.1-.3-6 1.1-1 .3z"></path><path class="curve-white_svg__st1" d="m81.4 26.5.5-2.3-1.1-.8-.5 2.4 1.1.7zm.5 6.9 2.3-1.9-.4-1.5-2.3 2 .4 1.4zM4.2 40.5l.8 1.8-.4-3.6-.8-1.9.4 3.7zm69.9-15.3.4-2.1-1.2.8-.4 2 1.2-.7zM23.4 4.4 22 5.5l2.7 1.1 1-1.1-2.3-1.1zm54.7 34.8 3.9-1.5.2-1.4-3.9 1.6-.2 1.3z"></path><path class="curve-white_svg__st1" d="m80.4 25.7.5-2.4-1.2-.6-.5 2.4 1.2.6zm-9 18.3 5.2-1.2.7-1.1-5.2 1.3-.7 1zm3.9-19.2.4-2.2-1.3.5-.4 2.1 1.3-.4zM62.8 47.3l6-1.1 1-.5-6 1.2-1 .4z"></path><path class="curve-white_svg__st1" d="m79.2 25.1.5-2.4-1.3-.3-.5 2.4 1.3.3zm-2.6-.5.4-2.3-1.3.2-.4 2.2 1.3-.1zm4.9 7.4 2.3-2-.6-1.4-2.3 2 .6 1.4zm-3.6-7.3.5-2.3h-1.3l-.4 2.3c-.1-.1 1.2 0 1.2 0zM32.1 12.3v1.1l2 3.2-.3-1.2-1.7-3.1zM5.3 16.4l.4 2.2 2-2.6-.4-2.2-2 2.6zm33.9 12.9.7 1.8.5 4-.7-1.8-.5-4zM25.7 5.5l-1 1.1 2.6 1.7.7-1.1-2.3-1.7zM3.2 31l.8 2.1.6-3.5-.8-2.2-.6 3.6zm5.9 22.7.3.7-1.5-3-.4-.9 1.6 3.2zm69.2-15.8 3.9-1.6v-1.5l-3.9 1.6v1.5zM16.6 5.3 15.4 7l2.9-.3.9-1.7c.1.1-2.6.3-2.6.3zM72.1 43l5.2-1.3.5-1.2-5.2 1.3-.5 1.2zm-8.4 3.8 6-1.2.9-.7-6.1 1.2c.1 0-.8.7-.8.7zm-57.9-.9.6 1.4-.8-3.4-.6-1.6.8 3.6zM18 63.1l-.3-.1-2.3-1.5.1.1 2.5 1.5z"></path><path class="curve-white_svg__st1" d="m15.5 61.6-.1-.1-2.2-1.9 2.3 2zm65.4-30.8 2.3-2-.8-1.2-2.3 2.1.8 1.1zM30.1 9.5l-.3 1.1 2.3 2.8v-1.1l-2-2.8z"></path><path class="curve-white_svg__st1" d="m28 7.2-.6 1.1 2.5 2.3.3-1.1c-.1 0-2.2-2.3-2.2-2.3zM10.1 9.5l-.5 2.1 2.7-1.6.3-2-2.5 1.5zm10.4 54.8-.4-.2-2.4-1.1.3.1 2.5 1.2zm35.4-15.7 6.3-1.2-1 .2-6.3 1.2 1-.2zM13.2 59.5l-2-2.2-.1-.2 2.1 2.4zm65-23 3.9-1.6-.2-1.4-3.9 1.6.2 1.4zm1.9-6.9 2.3-2.1-1-1-2.3 2.1 1 1zM64.6 46.1l6.1-1.2.8-.9-6.1 1.2-.8.9zm7.9-4.2 5.2-1.3.3-1.3-5.2 1.4-.3 1.2zm-.4-14.7 2-1.9-1.2.7-2 1.8 1.2-.6zm-49 37.7-.5-.2-2.5-.7.4.2 2.6.7zM3.9 36.8l.8 1.9.1-3.6-.8-2-.1 3.7zm.2-15.1.7 2.3 1.5-3-.7-2.3-1.5 3z"></path><path class="curve-white_svg__st1" d="m79.2 28.6 2.3-2.1-1.1-.8-2.2 2.1 1 .8zm-5.9-1.8 2.1-2-1.3.4-2 1.9 1.2-.3zM11.1 57.1l.1.2-1.7-2.6-.2-.3 1.8 2.7zm8.2-52-.9 1.7 3 .4.6-1.7-2.7-.4zm58.7 30 3.9-1.7-.4-1.4-3.9 1.7c0 .1.4 1.4.4 1.4zm.1-7.3 2.2-2.1-1.2-.6-2.1 2.1 1.1.6z"></path><path class="curve-white_svg__st1" d="m74.5 26.7 2.1-2.1-1.3.2-2.1 2 1.3-.1zm-9.2 18.6 6.1-1.2.6-1-6.2 1.3-.5.9zM77 27.2l2.2-2.1-1.3-.3-2.2 2.1 1.3.3zm-1.2-.4 2.2-2.1-1.3-.1-2.1 2.1 1.2.1zm-2.9 13.8 5.2-1.4.2-1.4-5.3 1.5-.1 1.3zM38.2 25.4l.7 1.8 1 3.9-.7-1.8-1-3.9zM25.7 65l-.7-.3-2.4-.1.5.2 2.6.2zM5 42.3l.6 1.5-.3-3.5-.6-1.6.3 3.6zm2.2-28.5.4 2.2 2.3-2.1-.4-2.2c.1-.1-2.3 2.1-2.3 2.1zm70.4 20 3.9-1.8-.6-1.3-3.9 1.8.6 1.3zM17.7 63l-.3-.6-2.2-1.4.1.5 2.4 1.5zm13.6.4-.7.3-2.4.9.6-.2 2.5-1z"></path><path class="curve-white_svg__st1" d="m15.4 61.5-.2-.5-2-1.8v.4l2.2 1.9zM12.6 8l-.4 2 2.9-1 .3-2-2.8 1zM3.8 27.4l.8 2.2 1-3.3-.8-2.3-1 3.4zm5.6 27 .2.3-1.4-2.8-.3-.5 1.5 3zm10.7 9.7-.4-.6-2.3-1 .3.6 2.4 1zm45.8-19.8 6.2-1.3.5-1.2-6.2 1.3-.5 1.2zm7.1-5 5.3-1.4v-1.4L73 38v1.3zM22 5.5l-.6 1.6 3 1 .3-1.5L22 5.5zm36.6 41.3 6.3-1.1-.8.8-6.3 1.1.8-.8zM13.2 59.6v-.4l-1.8-2.1-.1.2c-.1 0 1.9 2.3 1.9 2.3zm37.3-10.1 6.4-1.3-1 .4-6.4 1.3 1-.4zm26.5-17 3.9-1.8-.8-1.2-3.9 1.8.8 1.2zM32.1 13.4l.6 1.4 2.2 3.2-.8-1.4-2-3.2zM6.3 47.2l.4 1L6 45l-.5-1.2c.1 0 .8 3.4.8 3.4zm16.3 17.4L22 64l-2.3-.6.4.6 2.5.6zm5.6 0-.8-.2-2.4.3.7.3 2.5-.4z"></path><path class="curve-white_svg__st1" d="m76.2 31.4 3.9-1.8-.9-1-3.8 1.9.8.9zM24.7 6.6l-.3 1.5 2.9 1.7V8.3c.1 0-2.6-1.7-2.6-1.7zm45 22 3.6-1.7-1.2.3-3.6 1.7 1.2-.3zM73 38l5.3-1.5-.3-1.4-5.3 1.5.3 1.4zM11.3 57.3l.1-.2-1.6-2.4-.2.1c0-.1 1.7 2.5 1.7 2.5zm55.1-14.2 6.2-1.3.3-1.3-6.2 1.3-.3 1.3zM4 33.1l.8 2 .6-3.4-.7-2.1-.7 3.5zm25.9-22.5.3 1.5 2.5 2.8-.6-1.4c0-.1-2.2-2.9-2.2-2.9zm29.4 35.3 6.3-1.1-.7.9-6.3 1.1.7-.9zM39.9 31.2l.3 2.2.5 4-.3-2.2-.5-4zm11.6 17.7 6.4-1.3-.9.6-6.4 1.3c-.1 0 .9-.6.9-.6z"></path><path class="curve-white_svg__st1" d="M27.4 8.3v1.5l2.8 2.2-.3-1.5c0 .1-2.5-2.2-2.5-2.2zm47.9 22.2 3.8-1.9-1.1-.8-3.8 1.9 1.1.8zM5.7 18.7l.6 2.3 1.9-2.6-.6-2.4-1.9 2.7zm65.2 9.8 3.7-1.8-1.2.1-3.6 1.7c-.1.1 1.1 0 1.1 0zm-34.1-6.9.6 1.8 1.5 3.8-.7-1.8-1.4-3.8zM17.4 62.4v-.9l-2-1.3-.2.8 2.2 1.4zM15.2 61l.1-.8-1.9-1.7-.3.7 2.1 1.8z"></path><path class="curve-white_svg__st1" d="m74.3 29.7 3.8-1.9-1.1-.6-3.8 1.8 1.1.7zm-2.2-1 3.7-1.8-1.3-.1-3.7 1.8 1.3.1zM25 64.7l-.7-.7H22l.6.7H25z"></path><path class="curve-white_svg__st1" d="m73.2 29.1 3.8-1.8-1.2-.4-3.7 1.8 1.1.4zM19.7 63.4l-.2-1-2.1-.9v.9l2.3 1zM15.4 7l-.3 2 3.1-.3.1-2-2.9.3zm18.2 54.9-.8.3-2.2 1.4.7-.3 2.3-1.4zm39.1-25.3 5.3-1.5-.4-1.3-5.2 1.5.3 1.3zM13.2 59.2l.3-.7-1.7-2-.4.6 1.8 2.1zm53.5-17.3 6.2-1.3.1-1.3-6.2 1.3-.1 1.3zM4.6 38.7l.6 1.6.1-3.4-.6-1.8-.1 3.6zm39.9 12.2 6.1-1.4-1 .4-6.1 1.4 1-.4zm15.3-6.1 6.3-1.1-.5 1.1-6.3 1.1.5-1.1zm-7.5 3.3 6.3-1.2-.8.8-6.4 1.2c.1 0 .9-.8.9-.8zM26.6 53l5.1-1.5-1.1-1-5.2 1.4 1.2 1.1zm-17 1.7.3-.1L8.5 52l-.3-.1 1.4 2.8zm0-43.1.4 2.2 2.6-1.6-.4-2.2c0 .1-2.6 1.6-2.6 1.6z"></path><path class="curve-white_svg__st1" d="m22 64-.4-1.1-2.1-.5.2 1 2.3.6zm3.4-12.1 5.2-1.4-1-1.2-5.3 1.3 1.1 1.3zm5.2 11.8-1-.2-2.2.9.8.2 2.4-.9zm41.7-28.4 5.2-1.5-.5-1.3-5.2 1.6.5 1.2zM29.2 54.4l1.4.3 1.4-.5m-14.6 7.3.4-1.2-1.9-1.3-.6 1.1c.1.1 2.1 1.4 2.1 1.4z"></path><path class="curve-white_svg__st2" d="m11.4 57.1.4-.6-1.5-2.2-.5.4 1.6 2.4z"></path><path class="curve-white_svg__st1" d="M5.6 43.8 6 45l-.3-3.3-.5-1.4.4 3.5zm9.8 16.4.6-1.1-1.7-1.5-.7 1c-.1-.1 1.8 1.6 1.8 1.6zM4.8 24l.8 2.3 1.5-3-.8-2.3-1.5 3zm19.5 26.6 5.3-1.3-.8-1.3-5.4 1.2.9 1.4zm-.4 4.9 4-1.7-1.3-.8-4.2 1.6 1.5.9zm21.5-5.3 6-1.4-.9.6-6.1 1.4c.1.1 1-.6 1-.6z"></path><path class="curve-white_svg__st1" d="m22.4 54.6 4.2-1.6-1.2-1.1-4.3 1.5 1.3 1.2zm-2.9 7.8.2-1.3-1.9-.8-.4 1.2 2.1.9zm47.3-21.8 6.2-1.3V38l-6.2 1.3v1.3zM27.4 64.4l-.9-.7-2.2.4.7.7 2.4-.4zM34.9 18l.5 1.8 1.9 3.5-.6-1.8-1.8-3.5zm-9.6 38.1 3.9-1.7-1.4-.6-4 1.7c.1 0 1.5.6 1.5.6zm27.7-9 6.3-1.2-.7.9-6.3 1.2.7-.9zm7.2-3.5 6.3-1.1-.4 1.2-6.3 1.1.4-1.2zM13.5 58.5l.7-1-1.6-1.8-.8.9 1.7 1.9zm58.3-24.4 5.2-1.6-.8-1.1L71 33l.8 1.1z"></path><path class="curve-white_svg__st1" d="m21.1 53.4 4.3-1.5-1.1-1.3-4.4 1.4 1.2 1.4zM64.8 30l4.9-1.5-1.2.3-4.8 1.4 1.1-.2zm-58 18.3.3.7-.7-3.1L6 45l.8 3.3zm17.5 15.8-.5-1.1-2.1-.1.3 1.1 2.3.1zM18.4 6.8l-.1 2 3.2.3v-2l-3.1-.3zm-.6 53.4 1.1-1.5-1.7-1.1-1.3 1.4 1.9 1.2zm3.1-3.1 3-1.7-1.4-.9-3.1 1.6 1.5 1zm-5 1.9 1.3-1.4-1.6-1.4-1.4 1.2c0 .1 1.7 1.6 1.7 1.6z"></path><path class="curve-white_svg__st1" d="m19.3 56.1 3.1-1.6-1.3-1.2-3.3 1.5 1.5 1.3zm7.6.4 3.8-1.8-1.4-.3-3.9 1.7 1.5.4zm-5.3 6.4.1-1.4-2-.5-.2 1.3c0 .1 2.1.6 2.1.6zm17.3-35.7.3 2.2 1 3.9-.3-2.2-1-3.9zm-1 29.3-.6 1-1.7 2.4.6-.9 1.7-2.5zm-19 2.3 2-1.6-1.6-1-2.1 1.5 1.7 1.1z"></path><path class="curve-white_svg__st1" d="m22.5 57.9 2.8-1.7-1.5-.6-3 1.7c.1-.2 1.7.6 1.7.6zm-2.8 3.2.9-1.5-1.8-.8-1.1 1.5c.1-.1 2 .8 2 .8zM8.2 51.9l.3.1-1-2.8-.4-.3 1.1 3zM71 33l5.2-1.6-.9-1-5.1 1.6.8 1zM17.2 57.7l2.1-1.5-1.4-1.3-2.3 1.4 1.6 1.4zm2.7-5.7 4.4-1.4-.9-1.4-4.5 1.2 1 1.6z"></path><path class="curve-white_svg__st1" d="m17.9 54.9 3.3-1.5-1.3-1.4-3.4 1.3 1.4 1.6zm-3.7 2.6 1.4-1.2-1.4-1.7-1.5 1.1 1.5 1.8z"></path><path class="curve-white_svg__st2" d="m9.8 54.7.5-.4-1.2-2.5-.6.2 1.3 2.7z"></path><path class="curve-white_svg__st1" d="m20.7 59.5 1.8-1.7-1.6-.7-2 1.6c0 .1 1.8.8 1.8.8zm46-20.2L73 38l-.2-1.3-6.3 1.3.2 1.3zM11.8 56.5l.8-.9-1.4-2.1-1 .7 1.6 2.3zm34.5-7.1 6-1.3-.8.8-6 1.4c-.1-.1.8-.9.8-.9zM4.6 29.6l.7 2.1 1-3.2-.7-2.2-1 3.3zM70.2 32l5.2-1.6-1-.8-5.1 1.6.9.8zM15.6 56.2l2.3-1.4-1.3-1.5-2.4 1.2 1.4 1.7zm51.5-26 5-1.5-1.2-.2-5 1.5 1.2.2zm-42.9 28 2.7-1.8-1.5-.4-2.8 1.7 1.6.5zm11.4 1.7-.9.4-1.9 1.9.8-.3 2-2zM7.6 16l.6 2.4 2.3-2.1-.5-2.4L7.6 16zm52.8 26.3 6.3-1.1-.2 1.3-6.3 1.1.2-1.3zM21.7 61.6l.8-1.6-1.8-.4-.9 1.5 1.9.5zm47.5-30.4 5.1-1.6-1.1-.6-5.1 1.6 1.1.6zM53.5 46l6.3-1.1-.5 1.1-6.3 1.1.5-1.1z"></path><path class="curve-white_svg__st1" d="m68.2 30.6 5.1-1.6-1.2-.4-5 1.5 1.1.5zm-45.6 17 5.5-1.1-.5-1.5-5.5 1 .5 1.6zM22.5 60l1.7-1.7-1.7-.4-1.8 1.7 1.8.4zm-6-6.7 3.4-1.3-1-1.6-3.5 1.2 1.1 1.7zm16.2-38.5.5 1.9 2.3 3.2-.6-1.9-2.2-3.2zM23.8 63l-.1-1.4-2-.1-.1 1.4 2.2.1z"></path><path class="curve-white_svg__st1" d="m18.9 50.4 4.5-1.2-.8-1.6-4.6 1.1.9 1.7zm-6.3 5.3 1.5-1.1-1.2-1.9-1.7.9c.1 0 1.4 2.1 1.4 2.1zm20.2 6.6-1.1-.1-2 1.3 1 .2 2.1-1.4zM12.2 10.1l.4 2.2 2.9-1-.4-2.3-2.9 1.1zm9.2-3v2l3.2 1-.1-1.9-3.1-1.1zm5.1 56.6-.7-1-2 .3.5 1.1 2.2-.4zm-12.3-9.1 2.4-1.2-1.1-1.7-2.5 1.1 1.2 1.8zm15.4 8.9-1-.6-2.1.8.9.7 2.2-.9zM66.5 38l6.2-1.4-.4-1.3-6.2 1.4zM4.7 35.1l.6 1.8.5-3.3-.6-1.9-.5 3.4zm21.1 23.2 2.6-1.8-1.5-.1-2.7 1.8 1.6.1z"></path><path class="curve-white_svg__st1" d="m10.3 54.3 1-.7-1.1-2.3-1.1.5 1.2 2.5zm13.4 7.3.6-1.6h-1.8l-.8 1.6h2zM47 48.3l5.9-1.3-.7 1-6 1.3c.1.1.8-1 .8-1zM24.3 60l1.5-1.7-1.6-.1-1.7 1.8h1.8zm-8.9-8.4 3.5-1.2-.8-1.7-3.6 1 .9 1.9zm14.8-39.5.4 1.9 2.6 2.7-.5-1.9-2.5-2.7zM60.4 41l6.3-1v1.3l-6.3 1.1V41zM8.5 52l.6-.2-.9-2.6h-.7l1 2.8zM5.2 40.3l.5 1.3.1-3.3-.5-1.5-.1 3.5zM24.4 8.2l.1 1.9 3.1 1.6-.2-1.9-3-1.6zm29.5 36.5 6.3-1.1-.4 1.2-6.3 1.2zm-31.8 1.2 5.5-.9-.3-1.6-5.6.8zm-4 2.8 4.6-1.1-.6-1.7-4.6.9.6 1.9zm48-12 6.2-1.3-.6-1.2-6.2 1.3.6 1.2zm-59 12.2.4.3-.6-2.9-.4-.5.6 3.1z"></path><path class="curve-white_svg__st1" d="m11.3 53.6 1.6-.9-1-2.1-1.7.7 1.1 2.3zM6 45l.4.8-.3-3.1-.4-1L6 45zM27.4 9.8l.2 1.9 2.9 2.2-.4-1.9-2.7-2.2z"></path><path class="curve-white_svg__st1" d="m12.9 52.7 2.5-1.1-.9-1.9-2.6.9 1 2.1zm46-21.5 5.8-1.2-1.1.2-5.8 1.1c.1.1 1.1-.1 1.1-.1zM41 50.8l5.3-1.4-.9.9-5.3 1.5c0-.1.9-1 .9-1zm-.5-2-.3 1.6-.9 3.2.3-1.5c-.1.1.9-3.3.9-3.3zM25.8 62.7l-.2-1.3-1.9.3.1 1.4 2-.4zm1.6-4.7 2.4-1.8-1.5.2-2.6 1.8c.1.1 1.7-.2 1.7-.2zm12.8-24.6.3 2.2.5 3.9-.3-2.1c0-.1-.5-4-.5-4zm-2.8-10 .3 2.2 1.5 3.8-.3-2.2-1.5-3.8zM6.3 21l.7 2.4 2-2.6-.7-2.4-2 2.6zm59.3 14.4 6.2-1.3L71 33l-6.2 1.3c.1 0 .8 1.1.8 1.1zM60 31.2l5.9-1.2h-1.1L59 31.2h1z"></path><path class="curve-white_svg__st1" d="m26 59.7 1.4-1.7-1.6.3-1.5 1.7 1.7-.3z"></path><path class="curve-white_svg__st1" d="m25.6 61.3.5-1.6-1.8.3-.6 1.6 1.9-.3zm34.7-21.7 6.3-1 .1 1.3-6.3 1-.1-1.3zM14.5 49.7l3.6-1-.6-1.8-3.6.8c-.1 0 .6 2 .6 2zm33.1-2.5 5.9-1.2-.5 1.1-6 1.2.6-1.1zm-19 15.7-.8-1-1.9.8.7 1 2-.8zM9.1 51.8l1.1-.5-.8-2.4-1.1.3.8 2.6zm45-8.4 6.3-1-.2 1.3-6.3 1.1.2-1.4zM39.3 53.6l-.7 1.1-1.3 2.8.6-1 1.4-2.9zm25.6-19.3L71 33l-.9-1-6.1 1.3.9 1zm-43.2 9.9 5.6-.8-.1-1.6-5.6.7.1 1.7zm39.4-12.8 6-1.2-1.2-.2-5.9 1.2 1.1.2zM17.4 46.9 22 46l-.4-1.7-4.6.7.4 1.9zM15.1 9.1l.4 2.3 3.1-.3-.4-2.3-3.1.3zm16.6 53-1.2-.5-1.9 1.3 1 .6 2.1-1.4z"></path><path class="curve-white_svg__st1" d="m11.9 50.6 2.6-.9-.7-2-2.7.7.8 2.2z"></path><path class="curve-white_svg__st1" d="m10.2 51.3 1.7-.7-.8-2.2-1.8.5.9 2.4zm53.9-18 6.1-1.3-1-.8-6.1 1.3 1 .8zm-1.9-1.4 6-1.3-1.2-.4-6 1.2c.1 0 1.2.5 1.2.5zM37.3 57.5l-1 .6-1.6 2.3.9-.4 1.7-2.5z"></path><path class="curve-white_svg__st1" d="m63.2 32.5 6.1-1.3-1.1-.6-6 1.3 1 .6zM41.8 49.7l5.2-1.3-.7 1-5.3 1.4.8-1.1zm-7.1 10.7h-1.2l-1.8 1.8 1.1.1 1.9-1.9zM10 13.9l.6 2.4 2.6-1.5-.6-2.4c0-.1-2.6 1.5-2.6 1.5zM5.6 26.3l.7 2.2 1.5-2.9-.7-2.3-1.5 3zm1.9 22.9h.7l-.6-2.7-.7-.2.6 2.9zM60 38.3l6.4-1 .3 1.3-6.3 1c-.1 0-.4-1.3-.4-1.3zM27.8 61.9l-.4-1.3-1.8.7.2 1.3 2-.7zM48 45.8l5.9-1.1-.4 1.3-5.9 1.2.4-1.4zM27.7 59.1l1.2-1.6-1.5.5-1.4 1.7 1.7-.6zM13.8 47.7l3.6-.8L17 45l-3.7.6.5 2.1zM54.1 42l6.3-1v1.3l-6.3 1V42z"></path><path class="curve-white_svg__st1" d="m27.4 60.6.3-1.5-1.7.6-.5 1.6 1.9-.7zm-21-14.8.4.5-.3-2.9-.5-.7.4 3.1zm29.1-25.9.3 2.2 1.9 3.5-.3-2.2-1.9-3.5zM5.3 31.7l.6 1.9 1-3.1-.6-2-1 3.2zm16.3 10.8 5.6-.7.1-1.6-5.6.5-.1 1.8zM17 45l4.7-.7-.1-1.7-4.7.6c0-.1.1 1.8.1 1.8zm42.5-8 6.4-1 .5 1.3-6.4 1-.5-1.3zM8.2 49.2l1.1-.3-.5-2.5-1.2.1.6 2.7zm-2.5-7.5.4 1 .1-3.1-.4-1.2-.1 3.3zm-.3-4.8.5 1.5.5-3.1-.4-1.7-.6 3.3zm5.7 11.5 2.7-.7-.4-2.1-2.7.5.4 2.3zm40.8-16.3 6.5-.9 1.1-.1-6.5 1h-1.1zM30.5 61.6l-1-.9-1.8 1.2.8 1 2-1.3zm11.9-13.2 5.2-1.2-.6 1.1-5.2 1.3.6-1.2z"></path><path class="curve-white_svg__st1" d="m9.3 48.9 1.8-.5-.5-2.3-1.9.3.6 2.5zm8.9-40.1.4 2.3 3.2.3-.3-2.3-3.3-.3zm21 20.6.3 2.2 1 3.9-.3-2.2-1-3.9zm19.7 6.4 6.4-1 .6 1.2-6.4 1-.6-1.2zm-10.7 8.6 5.9-1-.2 1.3-5.9 1.1.2-1.4zM53 32.1l6.5-.9 1.1.1-6.5.9-1.1-.1zM41 45.2l-.3 1.7-.5 3.5.3-1.6.5-3.6zM8.3 18.4l.7 2.4 2.3-2.1-.7-2.5c0 .1-2.3 2.2-2.3 2.2zm5.1 27.2L17 45l-.2-1.9-3.7.5c.1-.1.3 2 .3 2zm15.8 12.5 1.1-1.6-1.4.9-1.2 1.6c0 .1 1.5-.9 1.5-.9zm4.3 2.3-1.3-.4-1.7 1.7 1.2.5 1.8-1.8z"></path><path class="curve-white_svg__st1" d="m58.1 34.8 6.4-.9.8 1.1-6.4 1-.8-1.2zM29.5 60.7l-.5-1.2-1.6 1.1.4 1.3 1.7-1.2zm3.7-44 .3 2.2 2.3 3.2-.3-2.2-2.3-3.2zM6.9 46.3l.7.2-.3-2.7-.7-.4.3 2.9zm47.2-14.1 6.5-.9 1.1.3-6.4.9c-.1 0-1.2-.3-1.2-.3zm-32.5 8.6 5.6-.5.3-1.5-5.6.4c0-.1-.3 1.6-.3 1.6z"></path><path class="curve-white_svg__st1" d="m29 59.5.2-1.4-1.5 1-.3 1.5 1.6-1.1zM16.9 43.1l4.7-.6.1-1.7-4.7.4c-.1 0-.1 1.9-.1 1.9zm40.3-9.3 6.4-.9.9.9-6.4.9c0 .1-.9-.9-.9-.9zm-2-1.3 6.4-.9 1 .5-6.4.9-1-.5zM12.6 12.3l.6 2.4 2.9-.9-.6-2.4c0-.1-2.9.9-2.9.9z"></path><path class="curve-white_svg__st1" d="m56.2 33.1 6.4-.9 1 .7-6.4.9-1-.7zm-16 17.3-.7 1.2-.9 3.1.7-1.1.9-3.2zm13.4-11.2 6.3-.9.3 1.3-6.2 1-.4-1.4zM36.3 58.1l-1.3.1-1.5 2.2h1.2l1.6-2.3zm-14.9-49 .3 2.3 3.2 1-.3-2.3-3.2-1zm-10.8 37 2.7-.5-.2-2.1-2.7.3.2 2.3z"></path><path class="curve-white_svg__st1" d="m38.6 54.7-1.1.7-1.2 2.7 1-.6 1.3-2.8zm9.6-11.8 5.9-.9v1.4l-5.9 1v-1.5zM7.6 46.5l1.2-.1-.2-2.5-1.2-.1c-.1 0 .2 2.7.2 2.7zm22.9-32.6.3 2.3 2.6 2.7-.3-2.2c.1 0-2.6-2.8-2.6-2.8zM8.8 46.4l1.9-.3-.2-2.3-1.9.1.2 2.5zm-2.7-3.7.5.7.1-2.9-.5-.9-.1 3.1zm1-19.4.7 2.3 1.8-2.5-.6-2.3-1.9 2.5zm17.4-13.2.3 2.3L28 14l-.3-2.3-3.2-1.6zm28.6 27.8 6.4-.8.5 1.3-6.3.9-.6-1.4zM32.2 60l-1.1-.8-1.6 1.5 1 .9 1.7-1.6z"></path><path class="curve-white_svg__st1" d="M27.6 11.7 28 14l2.9 2.2-.3-2.3c-.1 0-3-2.2-3-2.2zm12.9 23.8.1 2.1.5 3.8-.1-2c0 .1-.5-3.9-.5-3.9zm-27.3 8 3.7-.5.1-1.9-3.7.3-.1 2.1zm32-10.7 6.7-.6 1.1-.1-6.6.6-1.2.1zm-23.3 6.3 5.6-.4.5-1.4-5.5.3-.6 1.5zm8.6 17.7 1-1.5-1.2 1.2-1.1 1.6 1.3-1.3zm7.2-31.2.3 2.3 1.5 3.7-.3-2.2-1.5-3.8zM5.8 38.4l.4 1.2.5-2.9-.4-1.4-.5 3.1zM17 41.2l4.7-.4.3-1.6-4.7.3-.3 1.7zM6.3 28.5l.6 2 1.4-2.7-.5-2.2-1.5 2.9zm36.8 16.9 5.1-1-.2 1.4-5.1 1.2.2-1.6zM5.9 33.6l.4 1.7.9-2.9-.4-1.8-.9 3zm46.6 3 6.4-.8.6 1.2-6.4.8-.6-1.2zM31.1 59.2l-.7-1.1-1.4 1.4.5 1.2 1.6-1.5z"></path><path class="curve-white_svg__st1" d="M30.4 58.1v-1.3l-1.3 1.3-.1 1.4 1.4-1.4zm16-25.4 6.6-.6 1.1.1-6.6.6-1.1-.1zM6.6 43.4l.7.4.1-2.7-.7-.6-.1 2.9zm3.8.4 2.7-.3.1-2.1-2.7.1-.1 2.3zM35 58.2l-1.4-.3-1.4 2 1.3.4c0 .1 1.5-2.1 1.5-2.1zm16.7-22.7 6.4-.7.8 1.1-6.4.8-.8-1.2zM15.5 11.3l.6 2.4 3-.3-.5-2.4-3.1.3zm-4.9 5 .7 2.5 2.6-1.5-.6-2.5-2.7 1.5z"></path><path class="curve-white_svg__st1" d="m47.5 32.8 6.6-.6 1.1.3-6.6.6-1.1-.3zM41 41.5l-.3 1.8V47l.3-1.7v-3.8zm9.7-7 6.5-.7.9.9-6.4.7-1-.9zm-2.1-1.3 6.6-.6 1 .6-6.5.7c0-.1-1.1-.7-1.1-.7zM7.3 43.8l1.2.1.1-2.4-1.2-.4z"></path><path class="curve-white_svg__st1" d="m8.5 43.9 1.9-.1.1-2.2-1.9-.1zM47.7 40l6-.8.3 1.4-5.9.9c0-.1-.4-1.5-.4-1.5zm2-6.2 6.5-.7 1 .7-6.5.7-1-.7zm-27.2 3.8 5.5-.3.7-1.2-5.5.1c0 .1-.7 1.4-.7 1.4zm20.6 6.2 5.2-.9v1.5l-5.1 1-.1-1.6zm-29.8-2.3 3.7-.3.3-1.8-3.7.1-.3 2zm24.2 13.9-1.4.3-1.1 2.5 1.3-.1 1.2-2.7zm-20.2-16 4.7-.3.5-1.5-4.6.1-.6 1.7zm23.4 7.5-.7 1.4-.5 3.4.7-1.2c0-.1.5-3.6.5-3.6zM6.2 39.6l.5.9.5-2.8-.4-1.1-.6 3zm29.6-17.5.3 2.3 1.9 3.5-.3-2.3-1.9-3.5zm-2.2 35.8-1.2-.6-1.3 1.9 1.1.8 1.4-2.1zm5.9-6.3-1.1.8-.9 3 1.1-.7.9-3.1zm7.6-13.1 6-.7.5 1.3-5.9.9-.6-1.5zm-7.6-6.8.1 2.2 1 3.8-.1-2.1c0-.1-1-3.9-1-3.9zM9 20.8l.6 2.4 2.2-2-.6-2.4-2.2 2zm22.6 35.6-.1-1.2-1.1 1.6v1.3l1.2-1.7z"></path><path class="curve-white_svg__st1" d="m32.4 57.3-.8-.9-1.2 1.7.7 1.1 1.3-1.9zM10.5 41.6l2.7-.1.3-2-2.7-.1-.3 2.2zM18.6 11l.5 2.4 3.1.3-.5-2.5-3.1-.2zm24.3 31.2 5.2-.8.2 1.5-5.2.9-.2-1.6zM6.4 35.3l.4 1.4.9-2.7-.3-1.6c-.1 0-1 2.9-1 2.9zm40 1.9 6-.6.7 1.2-6 .7-.7-1.3zM6.7 40.5l.7.6.4-2.6-.7-.8-.4 2.8zm1.1-14.9.5 2.2 1.8-2.4-.4-2.3c-.1.1-1.9 2.5-1.9 2.5zm5.8 13.9 3.7-.1.6-1.7-3.6-.1-.7 1.9z"></path><path class="curve-white_svg__st1" d="m8.6 41.5 1.9.1.4-2.2-1.9-.3-.4 2.4zm-1.7-11 .4 1.8 1.3-2.6-.3-2c0 .1-1.4 2.8-1.4 2.8zm10.9 7.2 4.6-.1.7-1.3h-4.6l-.7 1.4zm15.7-18.8.4 2.4 2.3 3.1-.3-2.3-2.4-3.2zM45.6 36l6.1-.5.8 1.1-6 .6c-.1 0-.9-1.2-.9-1.2zm-9.4 19.7-1.5-.1-1.1 2.4 1.4.3 1.2-2.6zm-23-41 .6 2.5 2.8-.9-.6-2.5-2.8.9zM7.4 41.1l1.2.3.4-2.3-1.2-.5c.1 0-.4 2.5-.4 2.5zm33.7-7.9 6.4-.4 1.1.4-6.3.4-1.2-.4zm1.4 7.4 5.2-.7.4 1.5-5.2.8-.4-1.6z"></path><path class="curve-white_svg__st1" d="m44.6 35 6.2-.5.9 1-6.1.5-1-1zm-2.3-1.4 6.3-.4 1.1.6-6.2.4-1.2-.6zM21.7 11.4l.5 2.5 3.1 1-.5-2.4c.1-.1-3.1-1.1-3.1-1.1zm18.8 26.2-.3 1.9.5 3.7.3-1.8-.5-3.8zm-9.7-21.4.4 2.4 2.6 2.7-.4-2.4-2.6-2.7zm3.9 39.4-1.3-.5-1 2.2 1.2.6 1.1-2.3zm3.7-3.2-1.4.5-.8 2.8 1.4-.3.8-3zm-5.8 1.9-.1-1-.8 1.8.1 1.2.8-2zM10.9 39.4l2.7.1.6-1.8-2.7-.3-.6 2zm14-27 .5 2.4 3 1.6L28 14l-3.1-1.6zM6.7 36.7l.4 1.1.9-2.6-.4-1.3-.9 2.8zm35.2 2.4 5.3-.6.5 1.4-5.2.7-.6-1.5zM38 27.9l.1 2.3 1.4 3.7-.1-2.2c.1 0-1.4-3.8-1.4-3.8z"></path><path class="curve-white_svg__st1" d="m28 14 .4 2.4 2.9 2.2-.4-2.4L28 14zm5.4 41.1-.8-.8-.9 2 .8.9.9-2.1zm7.3-11.9-.7 1.5v3.5l.7-1.4v-3.6zm-22.1-6.9h4.6l.9-1.2-4.5-.1-1 1.3zm21.4 12-1.2 1-.4 3.2 1.1-.8c0-.1.5-3.4.5-3.4zM14.2 37.7l3.6.1.8-1.5-3.5-.3-.9 1.7zm-2.9-19 .6 2.4 2.5-1.5-.5-2.5-2.6 1.6zM9 39.1l1.9.3.7-2-1.8-.5c-.1 0-.8 2.2-.8 2.2zm32.1-1.4 5.3-.4.7 1.3-5.3.6-.7-1.5zm-33.9.1.7.8.8-2.4-.6-1-.9 2.6zm8.9-24 .6 2.5 3-.3-.5-2.5c-.1 0-3.1.3-3.1.3zM7.3 32.4l.3 1.6 1.3-2.5-.2-1.7-1.4 2.6z"></path><path class="curve-white_svg__st1" d="m7.9 38.6 1.1.5.7-2.2-1.1-.7-.7 2.4zm1.7-15.4.4 2.3 2.1-1.9-.4-2.3-2.1 1.9zM37 52.9l-1.5.1-.7 2.6 1.5.1.7-2.8zM8.3 27.8l.3 2 1.7-2.2-.3-2.1-1.7 2.3zM19.6 35l4.5.1 1.1-.9-4.4-.2-1.2 1zm-8.1 2.4 2.7.3.9-1.6-2.6-.4c0-.1-1 1.7-1 1.7zm24.6-13 .2 2.3 1.9 3.4-.2-2.2-1.9-3.5zm3.5 9.4-.3 2 .9 3.7.3-1.9-.9-3.8zm-6.4 18.3-.2-.8-.6 2.1.1 1 .7-2.3z"></path><path class="curve-white_svg__st1" d="m15.1 36 3.6.2 1-1.3-3.5-.3c-.1.1-1.1 1.4-1.1 1.4zm20.3 16.9-1.3-.3-.7 2.4 1.3.5.7-2.6z"></path><path class="curve-white_svg__st1" d="m34.1 52.7-.9-.6-.6 2.2.8.8.7-2.4zM7.6 33.9l.4 1.3 1.2-2.3-.3-1.4-1.3 2.4zm11.5-20.4.5 2.5 3 .3-.4-2.5-3.1-.3zM9.7 36.9l1.8.5.9-1.8-1.6-.6-1.1 1.9zm4.1-19.7.5 2.5 2.7-.9-.4-2.5-2.8.9zm26.5 22.3-.7 1.6.5 3.6.7-1.5-.5-3.7zm-.3 5.2-1.2 1.2v3.3l1.2-1v-3.5z"></path><path class="curve-white_svg__st1" d="m8 35.2.6 1 1.1-2.1-.6-1.2L8 35.2zm25.9-13.9.2 2.4 2.2 3.1-.2-2.3-2.2-3.2z"></path><path class="curve-white_svg__st1" d="m8.6 36.2 1.1.7 1-2-1-.9-1.1 2.2zm3.9-.6 2.6.4 1.1-1.4-2.5-.6-1.2 1.6z"></path><path class="curve-white_svg__st1" d="m16.1 34.7 3.5.3 1.2-1-3.4-.4c0-.1-1.3 1.1-1.3 1.1zm-7.5-4.9.2 1.7 1.6-2.1-.2-1.8-1.6 2.2zm13.6-16 .4 2.5 3.1 1-.4-2.5-3.1-1zm11.3 35.9-.2-.6-.3 2.2.2.8.3-2.4zm3.9.2-1.5.3-.4 2.8 1.5-.1.4-3zM11.8 21.2l.4 2.3 2.4-1.4-.3-2.4-2.5 1.5zm26.4 9-.2 2.1 1.4 3.5.3-2-1.5-3.6zm-7-11.6.3 2.5 2.6 2.7-.2-2.4c0-.1-2.7-2.8-2.7-2.8zm-21.1 6.8.3 2.1 2-1.8-.2-2.2-2.1 1.9zm15.3-10.6.4 2.5 3 1.6-.3-2.5-3.1-1.6z"></path><path class="curve-white_svg__st1" d="m28.4 16.4.3 2.5 2.8 2.1-.3-2.5-2.8-2.1zm6 33.6-.9-.4-.3 2.4.9.6.3-2.6z"></path><path class="curve-white_svg__st1" d="m35.8 50.1-1.4-.1-.3 2.6 1.3.3.4-2.8zM10.8 35l1.7.6 1.2-1.5-1.7-.8-1.2 1.7zm5.8-18.7.4 2.5 2.9-.3-.3-2.5-3 .3zM8.9 31.5l.3 1.4 1.5-2-.2-1.6-1.6 2.2zm8.5 2 3.4.4 1.3-.7-3.2-.5-1.5.8zm21.4 12.4-1.4.8v3.1l1.4-.6v-3.3zM13.7 34.1l2.5.6 1.3-1.1-2.4-.7-1.4 1.2zm25.6 1.8-.7 1.8.9 3.5.7-1.6-.9-3.7zM9.7 34.1l1 .9 1.3-1.7-.9-1-1.4 1.8z"></path><path class="curve-white_svg__st1" d="m9.2 32.9.6 1.2 1.4-1.8-.4-1.3c-.1-.1-1.6 1.9-1.6 1.9zm30.3 8.3-1.1 1.3.4 3.4 1.2-1.2-.5-3.5zm-3.2-14.4-.2 2.2 1.8 3.3.2-2.1-1.8-3.4zm-26 .7.1 1.8 1.9-1.7v-2l-2 1.9zm4-7.8.3 2.4 2.6-.8-.2-2.5-2.7.9zm4.6 13 3.2.5 1.4-.4-3.1-.6-1.5.5zm18.5 14-1.5.5v2.9l1.5-.3v-3.1zM19.6 16l.3 2.5 3 .3-.2-2.5c0 .1-3.1-.3-3.1-.3zM12 33.3l1.6.8 1.4-1.2-1.4-.9-1.6 1.3zm22.4 14-.9-.1v2.5l.9.4v-2.8zM12.2 23.5l.2 2.2 2.3-1.3v-2.2c-.1-.1-2.5 1.3-2.5 1.3zm23.6 23.7-1.4.1V50l1.4.1v-2.9zM15 32.9l2.4.7 1.4-.8-2.2-.8-1.6.9z"></path><path class="curve-white_svg__st1" d="M34.1 23.7 34 26l2.2 3 .2-2.2c-.1 0-2.3-3.1-2.3-3.1zm-23.6 5.7.2 1.6 1.8-1.6-.1-1.7-1.9 1.7zm27.4 2.9-.6 1.9 1.3 3.4.7-1.8c0 .1-1.4-3.5-1.4-3.5zm-26.8 0 .9 1 1.5-1.3-.8-1.2-1.6 1.5zm27.3 10.2-1.4 1 .4 3.2 1.4-.8-.4-3.4zM22.7 16.4l.2 2.5 3 .9-.1-2.5-3.1-.9zm10.5 28.2-.2-.2.3 2.3.2.4-.3-2.5z"></path><path class="curve-white_svg__st1" d="m10.7 30.9.4 1.3 1.7-1.5-.3-1.4c0 .1-1.8 1.6-1.8 1.6zm27.9 6.7-1.1 1.5.9 3.4 1.1-1.3-.9-3.6zm-7.1-16.5v2.4L34 26l.1-2.3-2.6-2.6zM17 18.8l.2 2.4L20 21v-2.5l-3 .3zm8.7-1.5.1 2.5 2.9 1.5-.1-2.5-2.9-1.5zM16.6 32l2.3.7 1.5-.5-2-.8zm-3 0 1.4.9 1.6-.9-1.3-1zm15.1-13.1.1 2.5 2.7 2.1v-2.4l-2.8-2.2zm-16.4 6.8v2l2.2-1.2.1-2-2.3 1.2zm21.9 18.8-1 .1.3 2.6.9.1-.2-2.8zm2.8-1-1.5.7.4 3 1.5-.5-.4-3.2zM14.6 22.1v2.2l2.5-.8.1-2.3c0 .1-2.6.9-2.6.9zM36.1 29l-.6 2.1 1.7 3.2.6-1.9c.1-.1-1.7-3.4-1.7-3.4zm-3.6 13.1h-.1l.6 2.3.2.2-.7-2.5z"></path><path class="curve-white_svg__st1" d="m12.8 30.8.8 1.2 1.7-1-.6-1.3-1.9 1.1zm5.6.6 2.1.8 1.7-.1-1.9-.8c-.1 0-1.9.1-1.9.1zm-6-3.7.1 1.7 2-1.2.1-1.8c-.1 0-2.2 1.3-2.2 1.3zm7.5-9.1v2.5l2.9.3.1-2.5-3-.3zm17.6 20.6-1.4 1.2.8 3.2 1.4-1c.1-.1-.8-3.4-.8-3.4z"></path><path class="curve-white_svg__st1" d="m12.5 29.4.3 1.4 1.9-1.1-.2-1.5-2 1.2zm2.8 1.6 1.3 1 1.7-.5-1.2-1.1c.1 0-1.8.6-1.8.6zm22 3.2-1 1.7 1.3 3.2 1.1-1.5c-.1 0-1.4-3.4-1.4-3.4zM34 26l-.5 2.2 2.1 2.9.6-2.1c-.1 0-2.2-3-2.2-3zm-13.8 5.3 1.9.8 1.7.2-1.8-.8-1.8-.2zm-5.6-6.9-.1 2 2.4-.7.2-2.1-2.5.8zm2.6-3.1-.1 2.3 2.6-.2.3-2.4-2.8.3zm14.3 18.4v.3l.9 2.2h.1l-1-2.5zm4.6.7-1.5.9.8 3 1.5-.7-.8-3.2zM22.9 18.9l-.1 2.5 2.8.9.2-2.4c.1-.1-2.9-1-2.9-1z"></path><path class="curve-white_svg__st1" d="m14.6 29.7.6 1.3 1.9-.6-.5-1.3-2 .6zm2.6.7 1.2 1 1.8-.2-1-1.1-2 .3zm14.3-6.9-.4 2.3 2.4 2.5.5-2.3-2.5-2.5zm-5.6-3.7-.2 2.4 2.8 1.5.3-2.4-2.9-1.5zm-11.4 6.6-.1 1.8 2.2-.7.2-1.8c.1 0-2.3.7-2.3.7zm21.1 4.7-1 1.8 1.7 3 1-1.7-1.7-3.1zm-6.8-9.7-.3 2.4 2.6 2 .4-2.3-2.7-2.1zm7.4 14.5-1.3 1.4 1.2 3.1 1.4-1.2-1.3-3.3z"></path><path class="curve-white_svg__st2" d="m14.5 28.2.2 1.5 2-.6v-1.6l-2.2.7z"></path><path class="curve-white_svg__st1" d="m30.3 37.4.1.4 1.1 2.1v-.3c0 .1-1.2-2.2-1.2-2.2zM20 21l-.2 2.3 2.7.3.4-2.3L20 21zm-.8 9.2 1 1.1 1.9.2-.8-1-2.1-.3zm-2.1-6.6-.2 2.1 2.5-.2.4-2.1c0-.1-2.7.2-2.7.2zm17.8 13.7-1.4 1.1 1.1 2.8 1.5-.9-1.2-3z"></path><path class="curve-white_svg__st1" d="m16.7 29.1.5 1.3 2-.2-.3-1.3c-.1 0-2.2.2-2.2.2zm12.1 6.3.2.6 1.4 1.9-.1-.4-1.5-2.1zm4.7-7.2-.9 2 2 2.7 1-1.8-2.1-2.9zm-12.3 2.3.8 1 1.9.6-.7-1-2-.6zm-4.3-4.8-.2 1.8 2.3-.2.4-1.9-2.5.3z"></path><path class="curve-white_svg__st2" d="M16.7 27.5v1.6l2.2-.2.2-1.6c-.1 0-2.4.2-2.4.2z"></path><path class="curve-white_svg__st1" d="m34.6 32.9-1.2 1.6 1.6 2.8 1.3-1.4c-.1 0-1.7-3-1.7-3zM22.8 21.4l-.4 2.3 2.7.9.5-2.3-2.8-.9zm4.3 12.2.3.8L29 36l-.2-.6-1.7-1.8zm-3.9-2.5.7 1 1.8 1-.5-.9-2-1.1z"></path><path class="curve-white_svg__st1" d="m25.2 32.2.5.9 1.7 1.3-.3-.8-1.9-1.4zm5.9-6.5-.7 2.1 2.3 2.3.9-2-2.5-2.4zm-12.3 3.2.3 1.3 2 .2-.1-1.3c.1.1-2.2-.2-2.2-.2zm1-5.6-.4 2.1 2.6.3.5-2.1-2.7-.3zm5.9-1-.5 2.3 2.6 1.4.6-2.2-2.7-1.5zm2.8 1.4-.6 2.2 2.5 1.9.7-2.1-2.6-2zm4.9 10.8-1.3 1.3 1.5 2.7 1.4-1.1c-.1-.1-1.6-2.9-1.6-2.9zm-4.1 0-.5.9 1.5 2 .7-.7-1.7-2.2zm3.3-4.3-1.1 1.7 1.9 2.6 1.2-1.6-2-2.7z"></path><path class="curve-white_svg__st1" d="m19 27.3-.2 1.6 2.2.3.3-1.6-2.3-.3zm2.1 1.9.1 1.3 2 .7v-1.3l-2.1-.7zm-1.7-3.8-.4 1.9 2.4.3.6-1.8-2.6-.4zm8.1 7.2-.4 1 1.7 1.8.5-.9-1.8-1.9zm-5-8.9-.5 2 2.6.8.7-2c-.1 0-2.8-.8-2.8-.8zm.8 6.2v1.3l2 1.1.2-1.2-2.2-1.2z"></path><path class="curve-white_svg__st1" d="m25.4 31-.2 1.2 1.9 1.4.4-1-2.1-1.6zm6.1.9-1.2 1.4 1.8 2.4 1.3-1.3-1.9-2.5zm-1.2-4.1-1 1.9 2.1 2.2 1.1-1.7-2.2-2.4zm-8.9-.2-.3 1.6 2.2.7.5-1.5-2.4-.8zm3.8-3.1-.7 2 2.5 1.3.8-2-2.6-1.3zM22 25.7l-.6 1.8 2.4.8.7-1.8c0 .1-2.5-.8-2.5-.8z"></path><path class="curve-white_svg__st1" d="m27.8 25.9-.8 2 2.3 1.8 1-1.9-2.5-1.9zm.5 5.4-.8 1.3 1.9 1.9 1-1.2-2.1-2z"></path><path class="curve-white_svg__st1" d="m29.4 29.7-1 1.6 2 2.1 1.2-1.4c-.1-.1-2.2-2.3-2.2-2.3z"></path><path class="curve-white_svg__st2" d="m23.8 28.4-.5 1.5 2.2 1.2.7-1.4c-.1-.1-2.4-1.3-2.4-1.3z"></path><path class="curve-white_svg__st1" d="m26.1 29.6-.7 1.4 2 1.6.8-1.3c.1 0-2.1-1.7-2.1-1.7zm-1.6-3-.7 1.8 2.3 1.2.9-1.7-2.5-1.3z"></path><path class="curve-white_svg__st1" d="m27 27.9-.9 1.7 2.2 1.7 1-1.6-2.3-1.8zm6.2 22-.2 1.2-1.3.3-1.1-.9zm.1-.8v-2.3l.2.4v2.5zm-2.6-10.6-3.2.2-.3 1.5 4.2-.4m2.1-1.4-1.5.9-.5.4m-4.4 2.1 4.9-.5m2.7-.1-1.5.7-.7.2m-2.9 7.2 3.7-.8m-4.1 5.9 3.2-1.1m-4.5.5 4.8-1.5m.1-.2-1.1-.7m-1.2 5.4 1.1-1.6m-3.2 1.3 3.3-1.6m-1.1-.2 1.2.1m-1.2 1.3-1.7 1.3-1.5.6 2.4-1.7 1.1-.5-1 .4 1.3-.6m8.5-3.4 4.8-1.3.9-.7-5.3 1.5-.4.4m-6.6-6.5-5 .9.7 1.5 4.5-.9M27.6 45l5.3-.9-5.3.9zm-.3-1.6 5.2-.7m-2.6-5.5-1.9.2.7-1.3h.4m-.2-.2-.2.2-5.5.2.9-1.2h4-4l1.1-.9h2"></path><path class="curve-white_svg__st1" d="m32.1 35.7-1.1 1 1.3 2.5 1.1 2.6.8 2.7.2 2.8m1-3.1-1.2.3m8.2 3.9-.6 1.3 5.2-1.4.6-1.1z"></path><path class="curve-white_svg__st1" d="m41.8 49.7-1.6.7.2-1.4 2-.6z"></path><path class="curve-white_svg__st1" d="m41.8 49.7-.8 1.1-1.1.7.3-1.1zm-1.4-.7 2-.6.4-1.4-2.1.6z"></path><path class="curve-white_svg__st1" d="m42.8 47-2.1.6.2-1.6 2.2-.6z"></path><path class="curve-white_svg__st1" d="m40.9 46 2.2-.6v-1.6l-2.1.4v1z"></path><path class="curve-white_svg__st1" d="m43.1 43.8-.2-1.6-1.9.3v1.7z"></path><path class="curve-white_svg__st1" d="m41 42.5 1.9-.3-.4-1.6-1.5.2zm.9-3.4-1 .1m-.3-2.8 5-.4.8 1.2-5.3.5-.4-.6m3.3-4.3.7-.1v-2.9l-3.2.4-.1 2.8.1-2.8-1.7.4-.7-2.6v-.6l2.4-.4M54 40.6l.1 1.4m10.8-12.2-3.1-.9v1.7m-4.2-.2 2.8.4-2.7.5-.1-.9-4.5-.4.1 1.9v.1m14.9-3 .4-1.6-2.5-1.5-.4 2 2.2 1.2-2.2-1.2-.3 1.9m4-1.3-.8-1.1.7-1.7 1.2 1.7-.3.7m-33.5-6.8.4-.4.4 2.4m1.5.7-1.1.4m-2.5-5.7V18l-1.1-3.4-.4.8m4.4-11.2-5.7-.8m36.2 11.3-1.1.5m10.7 5-1.2-.3m-14 27.2-6.2 1.1m-13.5 3.1-3.8 1.1m.7-18.2h3.2l1.1.8-4.2.2m1.9-1.6h-2.1m-15 .6 1.1-.7m-4.2-.3 4.1.2m-2.4-1.1 1 .3-.9-.5m-.4.7 1.4-.1"></path><path class="curve-white_svg__st1" d="m41.1 33.2-.8-.2 6.3-.3.9.1zM71.2 26l-.3 1.5m.9-.8-1.2 1.1m-53.9-.3v1.6"></path></g></g><path d="M113.8 51.6c-1.7 0-3.5-.2-5-.9-1.3-.4-2.6-1.3-3.7-2.4-1.1-1.1-1.7-2.2-2.4-3.7s-.9-3-.9-4.8V23.5c0-1.5.2-3.3.9-4.8.7-1.3 1.5-2.6 2.4-3.7 1.1-.9 2.4-1.7 3.7-2.2 1.5-.7 3-.9 5-.9 3.3 0 6.1.9 8.1 2.8 2 1.7 3.3 4.4 3.7 7.6h-4.8c-.2-2-.9-3.5-2.2-4.6s-2.8-1.5-4.8-1.5c-2.2 0-3.9.7-5.2 2-1.1 1.1-1.7 3-1.7 5.2v16.5c0 2.2.7 3.9 1.7 5.2 1.3 1.3 3 2 5.2 2 2 0 3.5-.4 4.8-1.7 1.3-1.1 2-2.6 2.2-4.6h4.8c-.4 3.3-1.5 5.9-3.7 7.6-2 2.4-4.8 3.2-8.1 3.2zm25.2-30v19.2c0 4.4 2.2 6.7 6.3 6.7 4.4 0 6.5-2.2 6.5-6.7V21.6h4.8v19.2c0 3.5-.9 6.1-2.8 8.1-2 2-4.8 2.8-8.3 2.8s-6.3-.9-8.3-2.8c-2-2-2.8-4.6-2.8-8.1V21.6h4.6zm33.1 0v5h.4c.4-1.7 1.5-3 2.8-4.1 1.5-1.1 3.3-1.5 5.4-1.5 3 0 5.4.9 7.4 2.8 1.7 2 2.6 4.6 2.6 8.1v2h-4.8v-1.1c0-2.4-.7-4.1-1.7-5.4s-2.8-2-5-2-3.7.7-5 2-2 3-2 5.2V51h-4.8V21.6h4.7zm24.2 0h5l7.2 20.9c.2.7.4 1.5.7 2.2.2.7.2 1.1.2 1.5s0 .9.2 1.3h.4v-1.3l.2-1.5c.2-.7.4-1.5.7-2.2l6.7-20.9h5.2L212.4 51H207l-10.7-29.4zm37 2.6c-2.2 2-3 4.8-3 8.3v7.8c0 3.5 1.1 6.3 3 8.3 2 2 5 3 8.7 3 3 0 5.4-.7 7.6-2 2.2-1.3 3.5-3 4.1-5.2h-5c-.7.9-1.5 1.7-2.6 2.2-1.1.4-2.6.7-4.1.7-2.2 0-3.9-.7-5-2-1.3-1.3-1.7-3-1.7-5.2v-2.4H254v-5.4c0-3.5-1.1-6.3-3-8.3-2.2-2-5-3-8.7-3-4.2.1-7 1-9 3.2zm15.5 8v1.5h-13.9v-1.5c0-2.2.7-3.9 1.7-5.2 1.3-1.3 2.8-1.7 5.2-1.7 2.2 0 3.9.7 5.2 1.7 1.1 1.3 1.8 3.1 1.8 5.2z" id="curve-white_svg__Layer_3" class="curve-white_svg__st0" style="fill: rgb(255, 255, 255);"></path></svg>