<svg version="1.0" xmlns="http://www.w3.org/2000/svg"
    width="500.000000pt" height="122.000000pt" viewBox="0 0 500.000000 122.000000"
    preserveAspectRatio="xMidYMid meet">

    <g transform="translate(0.000000,122.000000) scale(0.100000,-0.100000)"
        fill="#fff" stroke="none">
        <path
            d="M599 946 c-95 -25 -169 -88 -219 -186 -35 -67 -39 -186 -10 -262 26
-71 97 -150 164 -186 46 -24 61 -27 156 -27 91 0 111 3 148 23 101 54 174 153
188 255 l7 47 -75 0 -74 0 -11 -43 c-23 -84 -95 -139 -183 -139 -49 0 -113 26
-142 59 -46 51 -61 147 -32 209 23 47 77 92 130 106 l44 12 0 73 c0 83 -1 84
-91 59z" />
        <path
            d="M2088 808 c-2 -36 -7 -44 -25 -46 -19 -3 -23 -10 -23 -38 0 -30 3
-34 25 -34 l25 0 0 -124 c0 -115 2 -127 23 -151 26 -30 79 -42 120 -26 21 8
27 17 27 41 0 27 -2 29 -30 24 -52 -11 -60 5 -60 127 l0 109 45 0 c45 0 45 0
45 35 0 35 0 35 -45 35 l-45 0 0 45 0 45 -39 0 c-40 0 -40 0 -43 -42z" />
        <path
            d="M3066 838 c-57 -16 -141 -101 -156 -158 -14 -53 -8 -136 13 -177 61
-116 208 -164 326 -104 53 27 57 38 30 67 l-22 24 -34 -21 c-65 -40 -165 -23
-212 37 -65 83 -35 215 59 254 41 17 134 8 160 -15 20 -18 21 -18 47 7 30 30
26 41 -29 69 -48 25 -128 32 -182 17z" />
        <path
            d="M3380 615 l0 -235 35 0 35 0 0 124 0 124 34 16 c39 18 64 20 100 6
25 -9 25 -11 28 -137 l3 -128 33 -3 34 -3 -4 140 c-3 137 -4 141 -30 167 -21
21 -39 28 -82 32 -30 2 -69 0 -85 -6 l-31 -11 0 75 0 74 -35 0 -35 0 0 -235z" />
        <path
            d="M1274 826 c-121 -38 -195 -169 -161 -286 28 -96 85 -152 176 -176
141 -36 281 74 281 222 l0 54 -105 0 -105 0 0 -45 0 -45 61 0 61 0 -19 -31
c-29 -51 -66 -73 -123 -73 -54 0 -87 18 -124 68 -29 38 -29 124 0 162 55 74
122 90 198 49 l49 -26 29 28 29 28 -33 28 c-33 28 -114 58 -152 56 -12 0 -39
-6 -62 -13z" />
        <path
            d="M4200 785 c0 -32 2 -35 30 -35 28 0 30 3 30 35 0 32 -2 35 -30 35
-28 0 -30 -3 -30 -35z" />
        <path
            d="M1722 745 c-107 -54 -139 -181 -71 -280 50 -73 176 -105 242 -62 23
15 27 15 27 2 0 -11 11 -15 40 -15 l40 0 0 185 0 185 -40 0 c-29 0 -40 -4 -40
-15 0 -14 -3 -14 -24 0 -13 9 -45 18 -72 21 -40 4 -59 1 -102 -21z m138 -70
c81 -42 77 -166 -7 -202 -63 -26 -118 -2 -153 66 -17 33 -5 83 28 113 44 41
83 48 132 23z" />
        <path
            d="M2417 755 c-108 -38 -157 -162 -104 -265 60 -120 212 -142 310 -45
15 15 27 31 27 35 0 3 -15 14 -34 22 -33 16 -34 16 -57 -8 -42 -45 -129 -40
-164 10 -31 43 -24 46 129 46 80 0 147 3 150 8 9 15 -12 93 -35 127 -28 41
-108 85 -153 85 -17 -1 -48 -7 -69 -15z m139 -96 c13 -12 24 -26 24 -31 0 -4
-45 -8 -100 -8 -97 0 -100 1 -90 20 28 52 120 63 166 19z" />
        <path
            d="M3830 699 c-123 -71 -115 -251 14 -310 50 -23 95 -24 144 -4 24 10
38 12 40 5 2 -5 17 -10 33 -10 l29 0 0 165 0 165 -29 0 c-16 0 -31 -5 -33 -11
-2 -6 -14 -5 -33 5 -43 23 -122 20 -165 -5z m161 -75 c34 -33 43 -66 29 -110
-16 -46 -54 -74 -102 -74 -78 0 -134 93 -97 161 32 61 118 72 170 23z" />
        <path d="M4200 550 l0 -170 30 0 30 0 0 170 0 170 -30 0 -30 0 0 -170z" />
        <path
            d="M4457 714 c-4 -4 -28 -7 -52 -5 l-45 2 0 -166 0 -165 35 0 35 0 0
126 0 125 35 15 c42 17 86 18 108 2 14 -11 17 -35 19 -138 l3 -125 33 -3 34
-3 -4 140 c-3 138 -4 141 -30 168 -24 23 -38 28 -95 31 -38 2 -71 0 -76 -4z" />
    </g>
</svg>