<svg xmlns="http://www.w3.org/2000/svg" width="78" height="60" viewBox="0 0 78 60" fill="none">
    <path d="M55.5 27H57H58.5V42H55.5V27Z" fill="white" />
    <path
        d="M55.5 24C55.5 23.1716 56.1716 22.5 57 22.5C57.8284 22.5 58.5 23.1716 58.5 24C58.5 24.8284 57.8284 25.5 57 25.5C56.1716 25.5 55.5 24.8284 55.5 24Z"
        fill="white" />
    <path
        d="M61.5 34.5C61.5 30.3579 64.5 27 69.75 27C73.5 27 77.0867 29.1486 77.9987 32.1695L75.0657 32.9554C74.3185 30.9597 71.6714 30 69.75 30C67.1714 30 64.5 31.5 64.5 34.5C64.5 37.5 67.1714 39 69.75 39C71.6714 39 74.3217 37.9627 75.0673 35.9642L78 36.75C77.0893 39.7731 73.5 42 69.75 42C64.5 42 61.5 38.6421 61.5 34.5Z"
        fill="white" />
    <path fill-rule="evenodd" clip-rule="evenodd"
        d="M46.5 48C49.8046 48 52.4852 45.3285 52.4999 42.0273C52.4942 40.7326 52.0782 39.5155 51.3755 38.5377C52.1136 37.3721 52.5 35.9866 52.5 34.5C52.5 30.3579 49.5 27 44.25 27C39 27 36 30.3579 36 34.5C36 38.6421 39 42 44.25 42C46.2299 42 47.8899 41.5224 49.1896 40.7053C49.3872 41.1042 49.4989 41.5249 49.5 42C49.4848 43.6438 48.1474 45 46.5 45H38.3021L37.5 47.9935L46.5 48ZM44.25 30C41.7647 30 39 31.5 39 34.5C39 37.5 41.7647 39 44.25 39C46.7353 39 49.5 37.5 49.5 34.5C49.5 31.5 46.7353 30 44.25 30Z"
        fill="white" />
    <path d="M0 21H3V30H12V21H15V42H12V33H3V42H0V21Z" fill="white" />
    <path fill-rule="evenodd" clip-rule="evenodd"
        d="M18 34.5C18 30.3579 21 27 26.25 27C30 27 34.1123 29.9473 34.4643 33.7256L21.8875 37.1012C22.9033 38.3671 24.6356 39 26.25 39C27.8979 39 29.6687 38.3405 30.6748 37.0216L34.3563 36.0351C33.7016 39.441 30 42 26.25 42C21 42 18 38.6421 18 34.5ZM26.25 30C28.5 30 30 30.75 30.4447 31.7025L21.0075 34.2312C21.1675 31.4104 24 30 26.25 30Z"
        fill="white" />
    <path d="M57 17.25L64.5 9.75V13.5L57 21V17.25Z" fill="#0CC09C" />
    <path d="M67.5 12.75L78 2.25L67.5 16.5V12.75Z" fill="#0CC09C" />
    <path d="M64.5 9.75L67.5 12.75V16.5L64.5 13.5V9.75Z" fill="#0CC09C" />
    <deepl-alert xmlns="" />
    <deepl-alert xmlns="" />
    <deepl-alert xmlns="" />
</svg>