<svg viewBox="0 0 128 24" focusable="false" xmlns="http://www.w3.org/2000/svg">
    <path d="M10.4736 20.2103H0V4.34119H2.44838V17.966H10.4736V20.2103Z" fill="white"></path>
    <path
        d="M16.8897 20.5277C15.8317 20.5277 14.8418 20.301 13.9199 19.8476C12.998 19.3791 12.2574 18.699 11.6982 17.8073C11.139 16.9005 10.8594 15.8274 10.8594 14.5881C10.8594 13.3488 11.139 12.2833 11.6982 11.3916C12.2574 10.4848 12.998 9.80471 13.9199 9.35131C14.8418 8.88279 15.8317 8.64853 16.8897 8.64853C17.9325 8.64853 18.9149 8.88279 19.8368 9.35131C20.7587 9.80471 21.4993 10.4848 22.0585 11.3916C22.6177 12.2833 22.8973 13.3488 22.8973 14.5881C22.8973 15.8274 22.6177 16.9005 22.0585 17.8073C21.4993 18.699 20.7587 19.3791 19.8368 19.8476C18.9149 20.301 17.9325 20.5277 16.8897 20.5277ZM16.8897 18.3741C17.5396 18.3741 18.1441 18.2229 18.7033 17.9207C19.2625 17.6033 19.7008 17.1574 20.0182 16.5831C20.3507 16.0088 20.5169 15.3438 20.5169 14.5881C20.5169 13.8325 20.3507 13.1675 20.0182 12.5931C19.7008 12.0188 19.2625 11.5805 18.7033 11.2783C18.1441 10.9609 17.5396 10.8022 16.8897 10.8022C16.2247 10.8022 15.6126 10.9609 15.0534 11.2783C14.5093 11.5805 14.071 12.0188 13.7385 12.5931C13.406 13.1675 13.2398 13.8325 13.2398 14.5881C13.2398 15.3438 13.406 16.0088 13.7385 16.5831C14.071 17.1574 14.5093 17.6033 15.0534 17.9207C15.6126 18.2229 16.2247 18.3741 16.8897 18.3741Z"
        fill="white"></path>
    <path
        d="M30.1624 20.5277C29.1044 20.5277 28.1145 20.301 27.1926 19.8476C26.2707 19.3791 25.5301 18.699 24.9709 17.8073C24.4117 16.9005 24.1321 15.8274 24.1321 14.5881C24.1321 13.3488 24.4117 12.2833 24.9709 11.3916C25.5301 10.4848 26.2707 9.80471 27.1926 9.35131C28.1145 8.88279 29.1044 8.64853 30.1624 8.64853C31.2052 8.64853 32.1876 8.88279 33.1095 9.35131C34.0314 9.80471 34.772 10.4848 35.3312 11.3916C35.8904 12.2833 36.17 13.3488 36.17 14.5881C36.17 15.8274 35.8904 16.9005 35.3312 17.8073C34.772 18.699 34.0314 19.3791 33.1095 19.8476C32.1876 20.301 31.2052 20.5277 30.1624 20.5277ZM30.1624 18.3741C30.8123 18.3741 31.4168 18.2229 31.976 17.9207C32.5352 17.6033 32.9735 17.1574 33.2909 16.5831C33.6234 16.0088 33.7896 15.3438 33.7896 14.5881C33.7896 13.8325 33.6234 13.1675 33.2909 12.5931C32.9735 12.0188 32.5352 11.5805 31.976 11.2783C31.4168 10.9609 30.8123 10.8022 30.1624 10.8022C29.4974 10.8022 28.8853 10.9609 28.3261 11.2783C27.782 11.5805 27.3437 12.0188 27.0112 12.5931C26.6787 13.1675 26.5125 13.8325 26.5125 14.5881C26.5125 15.3438 26.6787 16.0088 27.0112 16.5831C27.3437 17.1574 27.782 17.6033 28.3261 17.9207C28.8853 18.2229 29.4974 18.3741 30.1624 18.3741Z"
        fill="white"></path>
    <path
        d="M40.4426 20.2103H38.0849V4.34119H40.4426V12.7972L44.3419 8.96591H47.2664L43.2084 12.9332L47.8785 20.2103H45.2034L41.5535 14.5428L40.4426 15.631V20.2103Z"
        fill="white"></path>
    <path
        d="M53.0774 20.5277C51.823 20.5277 50.7801 20.2179 49.9489 19.5983C49.1328 18.9786 48.5207 18.1776 48.1126 17.1952L50.0169 16.0164C50.2738 16.8023 50.6668 17.4219 51.1957 17.8753C51.7247 18.3287 52.367 18.5554 53.1227 18.5554C53.7273 18.5554 54.226 18.4118 54.6189 18.1247C55.027 17.8224 55.2311 17.4295 55.2311 16.9458C55.2311 16.4924 55.0195 16.1373 54.5963 15.8803C54.1882 15.6083 53.5232 15.3891 52.6013 15.2229C51.4376 14.9962 50.5005 14.6032 49.7902 14.044C49.095 13.4848 48.7474 12.7292 48.7474 11.777C48.7474 10.8098 49.1328 10.0465 49.9035 9.48733C50.6894 8.92813 51.6492 8.64853 52.7827 8.64853C53.9464 8.64853 54.8834 8.88279 55.5938 9.35131C56.3041 9.80471 56.8709 10.4999 57.294 11.437L55.5711 12.4571C55.3142 11.8072 54.9439 11.3085 54.4603 10.9609C53.9917 10.5982 53.4477 10.4168 52.828 10.4168C52.2537 10.4168 51.7776 10.5302 51.3998 10.7569C51.0219 10.9685 50.833 11.2783 50.833 11.6863C50.833 12.1246 51.0673 12.4874 51.5358 12.7745C52.0194 13.0617 52.7298 13.2959 53.6668 13.4773C54.9363 13.7342 55.8734 14.1347 56.4779 14.6788C57.0976 15.2078 57.4074 15.9408 57.4074 16.8778C57.4074 17.5428 57.2336 18.1549 56.886 18.7141C56.5535 19.2733 56.0547 19.7192 55.3897 20.0517C54.7399 20.369 53.9691 20.5277 53.0774 20.5277Z"
        fill="white"></path>
    <path
        d="M59.4783 20.2103V4.34119H66.0074C67.1107 4.34119 68.0628 4.53011 68.8638 4.90794C69.6799 5.27067 70.2996 5.79208 70.7228 6.47219C71.1611 7.15229 71.3802 7.93064 71.3802 8.80722C71.3802 9.97096 71.0553 10.9382 70.4054 11.709C69.7555 12.4647 68.8411 13.0088 67.6623 13.3413L71.5616 20.2103H68.7958L65.0099 13.568H61.9267V20.2103H59.4783ZM65.894 11.4143C66.8915 11.4143 67.6472 11.2103 68.161 10.8022C68.6749 10.379 68.9318 9.75937 68.9318 8.94324C68.9318 8.14223 68.6749 7.53769 68.161 7.12963C67.6472 6.70645 66.8915 6.49486 65.894 6.49486H61.9267V11.4143H65.894Z"
        fill="white"></path>
    <path
        d="M76.3197 20.5277C75.2013 20.5277 74.2945 20.2103 73.5992 19.5756C72.904 18.9257 72.5564 18.0793 72.5564 17.0365C72.5564 15.9786 72.9191 15.1473 73.6446 14.5428C74.3852 13.9382 75.3297 13.5453 76.4784 13.3639L80.0602 12.7972V12.3438C80.0602 11.6939 79.8562 11.2027 79.4482 10.8702C79.0552 10.5377 78.4809 10.3715 77.7252 10.3715C76.9847 10.3715 76.4028 10.5226 75.9796 10.8249C75.5716 11.112 75.3675 11.4748 75.3675 11.913C75.3675 12.0188 75.3826 12.1171 75.4129 12.2078L73.3499 12.9105C73.229 12.6234 73.1685 12.3135 73.1685 11.9811C73.1685 11.3916 73.3499 10.8475 73.7126 10.3488C74.0904 9.83494 74.627 9.42687 75.3222 9.12461C76.0174 8.80722 76.8184 8.64853 77.7252 8.64853C79.2366 8.64853 80.3928 8.98103 81.1938 9.64602C82.0099 10.311 82.418 11.2783 82.418 12.5478V17.4219C82.418 18.0567 82.4709 18.5781 82.5767 18.9862C82.6824 19.3791 82.8714 19.7872 83.1434 20.2103H80.763C80.355 19.6814 80.1509 19.0164 80.1509 18.2154C79.8033 18.9408 79.2819 19.5076 78.5867 19.9156C77.9066 20.3237 77.1509 20.5277 76.3197 20.5277ZM76.8184 18.5781C77.7857 18.5781 78.564 18.2305 79.1535 17.5353C79.758 16.8249 80.0602 15.9181 80.0602 14.8148V14.4974L76.9998 15.0189C76.3046 15.1398 75.768 15.3589 75.3902 15.6763C75.0275 15.9937 74.8461 16.4093 74.8461 16.9232C74.8461 17.437 75.0199 17.8451 75.3675 18.1474C75.7302 18.4345 76.2139 18.5781 76.8184 18.5781Z"
        fill="white"></path>
    <path
        d="M84.8883 20.2103V8.96591H87.246V10.8702C87.5483 10.1901 87.9715 9.65358 88.5155 9.26063C89.0747 8.85256 89.702 8.64853 90.3972 8.64853C90.7297 8.64853 91.0546 8.69387 91.372 8.78455L90.9866 10.9609C90.6994 10.8551 90.3972 10.8022 90.0798 10.8022C89.2486 10.8022 88.5684 11.1574 88.0395 11.8677C87.5105 12.5629 87.246 13.4244 87.246 14.4521V20.2103H84.8883Z"
        fill="white"></path>
    <path
        d="M97.2379 20.5277C96.2102 20.5277 95.2581 20.2784 94.3815 19.7796C93.52 19.2809 92.8323 18.5781 92.3185 17.6713C91.8046 16.7645 91.5477 15.7368 91.5477 14.5881C91.5477 13.4395 91.8046 12.4193 92.3185 11.5276C92.8323 10.6208 93.5276 9.91806 94.4041 9.41932C95.2958 8.90546 96.2782 8.64853 97.3513 8.64853C98.4243 8.64853 99.3689 8.89035 100.185 9.37398C101.016 9.84249 101.659 10.5075 102.112 11.369C102.565 12.2153 102.792 13.1826 102.792 14.2707V15.0869H93.8147C93.8903 16.0995 94.2454 16.9232 94.8802 17.5579C95.515 18.1927 96.316 18.5101 97.2833 18.5101C98.1145 18.5101 98.8022 18.3212 99.3462 17.9433C99.8903 17.5504 100.351 16.9836 100.729 16.2431L102.452 17.2405C101.908 18.3438 101.213 19.1675 100.366 19.7116C99.5201 20.2557 98.4772 20.5277 97.2379 20.5277ZM100.548 13.2506C100.457 12.3891 100.109 11.7166 99.5049 11.2329C98.9004 10.7342 98.1598 10.4848 97.2833 10.4848C96.4369 10.4848 95.7039 10.7493 95.0842 11.2783C94.4646 11.7921 94.0565 12.4496 93.8601 13.2506H100.548Z"
        fill="white"></path>
    <path
        d="M111.948 7.80475C115.09 4.68073 120.184 4.68072 123.325 7.80475L126.039 10.5033L123.325 13.2019C120.184 16.3259 115.09 16.3259 111.948 13.2019L109.234 10.5033L111.948 7.80475Z"
        fill="black"></path>
    <path fill-rule="evenodd" clip-rule="evenodd"
        d="M107.273 10.5076L113.435 4.34137H121.838L128 10.5076L117.637 20.8665L107.273 10.5076ZM122.398 8.26257C119.78 5.63291 115.493 5.63293 112.875 8.26258L110.634 10.5033L112.875 12.744C115.493 15.3737 119.78 15.3737 122.398 12.744L124.639 10.5033L122.398 8.26257Z"
        fill="#0CE466"></path>
    <path
        d="M117.637 12.4639C116.554 12.4639 115.676 11.5865 115.676 10.5033C115.676 9.42002 116.554 8.54266 117.637 8.54266C118.719 8.54266 119.597 9.42002 119.597 10.5033C119.597 11.5865 118.719 12.4639 117.637 12.4639Z"
        fill="black"></path>
    <path fill-rule="evenodd" clip-rule="evenodd"
        d="M114.416 10.5033C114.416 12.2829 115.859 13.7243 117.637 13.7243C119.415 13.7243 120.858 12.2829 120.858 10.5033C120.858 8.72366 119.415 7.28229 117.637 7.28229C115.859 7.28229 114.416 8.72365 114.416 10.5033ZM116.236 10.5033C116.236 11.277 116.864 11.9037 117.637 11.9037C118.41 11.9037 119.037 11.2771 119.037 10.5033C119.037 9.72954 118.41 9.10286 117.637 9.10286C116.864 9.10286 116.236 9.72954 116.236 10.5033Z"
        fill="white"></path>
</svg>