<svg version="1.0" xmlns="http://www.w3.org/2000/svg"
    width="622.000000pt" height="184.000000pt" viewBox="0 0 622.000000 184.000000"
    preserveAspectRatio="xMidYMid meet">

    <g transform="translate(0.000000,184.000000) scale(0.100000,-0.100000)"
        fill="#ffffff" stroke="none">
        <path
            d="M982 1319 c-20 -6 -67 -43 -118 -91 -90 -86 -103 -117 -66 -151 34
-31 61 -21 143 58 100 95 117 97 195 23 l55 -52 45 45 46 44 -61 56 c-80 74
-149 94 -239 68z" />
        <path
            d="M1550 1318 c-27 -7 -115 -89 -370 -343 -223 -222 -344 -336 -363
-340 -48 -12 -107 1 -138 31 -58 56 -61 128 -7 190 l31 35 23 -22 24 -22 0 91
0 92 -92 0 -91 0 23 -24 23 -25 -32 -40 c-46 -57 -64 -108 -64 -176 -1 -148
111 -259 259 -258 107 1 118 10 481 372 388 387 356 369 461 267 80 -76 99
-84 135 -55 46 35 37 64 -45 144 -94 91 -158 112 -258 83z" />
        <path
            d="M1900 953 l0 -97 28 27 28 27 31 -33 c41 -43 53 -69 53 -112 0 -48
-24 -91 -63 -115 -35 -22 -96 -26 -130 -9 -12 6 -99 87 -192 180 l-171 169
-44 -45 -44 -45 169 -170 c192 -192 237 -223 333 -224 78 -1 142 26 191 79 53
57 71 104 71 181 0 77 -23 133 -79 189 l-40 40 27 28 26 27 -97 0 -97 0 0 -97z" />
        <path d="M3817 1032 c-22 -24 -21 -55 1 -75 38 -35 102 -12 102 37 0 49 -70
75 -103 38z" />
        <path d="M5207 1032 c-22 -24 -21 -55 1 -75 38 -35 102 -9 102 40 0 47 -71 71
-103 35z" />
        <path d="M3420 765 l0 -255 50 0 50 0 0 255 0 255 -50 0 -50 0 0 -255z" />
        <path
            d="M4350 765 l0 -255 50 0 50 0 0 126 c0 69 4 134 10 144 15 27 64 41
101 28 46 -16 59 -57 59 -188 l0 -110 45 0 45 0 0 144 c0 132 -2 146 -23 177
-44 66 -129 87 -200 49 l-37 -20 0 80 0 80 -50 0 -50 0 0 -255z" />
        <path
            d="M2420 750 l0 -241 48 3 47 3 5 145 c3 80 7 140 8 134 1 -7 27 -73 58
-148 l56 -136 38 0 37 0 61 148 61 147 1 -147 0 -148 50 0 50 0 0 240 0 241
-56 -3 -57 -3 -70 -167 c-39 -93 -74 -168 -77 -168 -3 0 -38 75 -77 168 l-72
167 -55 3 -56 3 0 -241z" />
        <path
            d="M3597 983 c-4 -3 -7 -26 -7 -50 0 -36 -3 -43 -20 -43 -17 0 -20 -7
-20 -40 0 -33 3 -40 20 -40 19 0 20 -7 20 -102 0 -156 29 -198 138 -198 l52 0
0 40 c0 38 -2 40 -29 40 -51 0 -61 20 -61 126 l0 94 45 0 45 0 0 39 c0 40 0
40 -42 43 l-43 3 -3 48 -3 47 -43 0 c-23 0 -46 -3 -49 -7z" />
        <path
            d="M4060 889 c-33 -13 -78 -56 -98 -94 -10 -19 -16 -54 -15 -97 0 -56 5
-75 27 -108 40 -61 78 -80 160 -80 79 0 122 20 155 74 31 49 27 56 -30 56 -43
0 -54 -4 -71 -25 -14 -18 -29 -25 -54 -25 -96 0 -126 151 -42 213 32 24 69 17
102 -18 18 -20 33 -25 70 -25 53 0 57 10 23 61 -42 64 -153 97 -227 68z" />
        <path
            d="M4835 878 c-111 -65 -124 -246 -23 -332 38 -33 47 -36 101 -36 43 0
69 6 93 21 l34 21 0 -21 c0 -18 6 -21 50 -21 l50 0 0 190 0 190 -50 0 c-44 0
-50 -3 -50 -20 0 -20 0 -20 -30 1 -44 33 -124 36 -175 7z m176 -97 c57 -57 31
-168 -45 -187 -63 -15 -121 38 -121 111 0 94 101 140 166 76z" />
        <path
            d="M5498 881 c-31 -17 -38 -18 -38 -6 0 11 -12 15 -50 15 l-50 0 0 -190
0 -190 50 0 50 0 0 126 c0 69 4 134 10 144 24 45 117 43 142 -4 7 -11 14 -76
16 -143 l4 -123 44 0 44 0 0 138 c0 151 -10 187 -62 225 -40 29 -114 33 -160
8z" />
        <path
            d="M3000 754 c0 -154 10 -190 65 -224 45 -28 133 -28 169 1 l26 20 0
-20 c0 -18 6 -21 50 -21 l50 0 0 190 0 190 -50 0 -50 0 0 -129 c0 -128 0 -130
-26 -150 -36 -28 -79 -27 -109 4 -24 23 -25 30 -25 150 l0 125 -50 0 -50 0 0
-136z" />
        <path d="M3810 700 l0 -190 50 0 50 0 0 190 0 190 -50 0 -50 0 0 -190z" />
        <path d="M5200 700 l0 -190 50 0 50 0 0 190 0 190 -50 0 -50 0 0 -190z" />
    </g>
</svg>