<svg width="229" height="38" viewBox="0 0 229 38" fill="none" xmlns="http://www.w3.org/2000/svg">
<path d="M197.58 10.0472C199.016 11.3917 199.734 13.0722 199.734 15.0889C199.734 17.1056 199.016 18.7963 197.58 20.1611C196.144 21.5056 194.302 22.1778 192.055 22.1778H188.652V29.6944H185V8H192.055C194.302 8 196.144 8.68241 197.58 10.0472ZM195.02 17.7778C195.769 17.0648 196.144 16.1685 196.144 15.0889C196.144 14.0093 195.769 13.1231 195.02 12.4306C194.292 11.7176 193.293 11.3611 192.023 11.3611H188.652V18.8167H192.023C193.293 18.8167 194.292 18.4704 195.02 17.7778Z" fill="white"/>
<path d="M202.701 29.6944V14.4167H206.135V16.4639C206.447 15.8528 206.968 15.3333 207.696 14.9056C208.424 14.4778 209.215 14.2639 210.068 14.2639C210.63 14.2639 211.161 14.325 211.66 14.4472L211.161 17.7167C210.849 17.5944 210.401 17.5333 209.819 17.5333C209.09 17.5333 208.372 17.737 207.665 18.1444C206.978 18.5519 206.468 19.1324 206.135 19.8861V29.6944H202.701Z" fill="white"/>
<path d="M226.628 27.7083C225.067 29.2361 223.132 30 220.822 30C218.512 30 216.566 29.2361 214.984 27.7083C213.424 26.1602 212.643 24.2759 212.643 22.0556C212.643 19.8352 213.424 17.9611 214.984 16.4333C216.566 14.8852 218.512 14.1111 220.822 14.1111C223.132 14.1111 225.067 14.8852 226.628 16.4333C228.209 17.9611 229 19.8352 229 22.0556C229 24.2759 228.209 26.1602 226.628 27.7083ZM220.822 26.8833C222.174 26.8833 223.288 26.425 224.162 25.5083C225.056 24.5713 225.504 23.4204 225.504 22.0556C225.504 20.6907 225.056 19.55 224.162 18.6333C223.288 17.6963 222.174 17.2278 220.822 17.2278C219.448 17.2278 218.314 17.6963 217.419 18.6333C216.545 19.55 216.108 20.6907 216.108 22.0556C216.108 23.4204 216.545 24.5713 217.419 25.5083C218.314 26.425 219.448 26.8833 220.822 26.8833Z" fill="white"/>
<path d="M55.51 24.1796C56.81 25.4996 58.38 26.1596 60.22 26.1596C62.06 26.1596 63.62 25.4996 64.9 24.1796C66.2 22.8396 66.85 21.2296 66.85 19.3496C66.85 17.4696 66.2 15.8696 64.9 14.5496C63.62 13.2096 62.06 12.5396 60.22 12.5396C58.38 12.5396 56.81 13.2096 55.51 14.5496C54.23 15.8696 53.59 17.4696 53.59 19.3496C53.59 21.2296 54.23 22.8396 55.51 24.1796ZM67.99 27.1496C65.85 29.2896 63.26 30.3596 60.22 30.3596C57.18 30.3596 54.58 29.2896 52.42 27.1496C50.28 24.9896 49.21 22.3896 49.21 19.3496C49.21 16.3096 50.28 13.7196 52.42 11.5796C54.58 9.41961 57.18 8.33961 60.22 8.33961C63.26 8.33961 65.85 9.41961 67.99 11.5796C70.15 13.7196 71.23 16.3096 71.23 19.3496C71.23 22.3896 70.15 24.9896 67.99 27.1496Z" fill="white"/>
<path d="M74.1327 29.9996V8.09961H78.2427V29.9996H74.1327Z" fill="white"/>
<path d="M88.0993 35.8196H83.6293L86.5693 29.1596L80.2693 14.9996H84.7693L88.7893 24.7196L92.7793 14.9996H97.3093L88.0993 35.8196Z" fill="white"/>
<path d="M118.199 29.9996V22.0796C118.199 19.6596 117.339 18.4496 115.619 18.4496C114.319 18.4496 113.359 19.0396 112.739 20.2196C112.819 20.5596 112.859 20.9396 112.859 21.3596V29.9996H108.749V22.0796C108.749 19.6596 107.889 18.4496 106.169 18.4496C105.589 18.4496 105.049 18.5996 104.549 18.8996C104.049 19.1796 103.669 19.5596 103.409 20.0396V29.9996H99.2987V14.9996H103.409V16.1696C104.289 15.1696 105.509 14.6696 107.069 14.6696C108.769 14.6696 110.179 15.3296 111.299 16.6496C112.439 15.3296 114.069 14.6696 116.189 14.6696C118.209 14.6696 119.729 15.2896 120.749 16.5296C121.789 17.7696 122.309 19.3796 122.309 21.3596V29.9996H118.199Z" fill="white"/>
<path d="M126.076 35.8196V14.9996H130.186V16.0796C131.166 15.1396 132.446 14.6696 134.026 14.6696C136.186 14.6696 137.956 15.4396 139.336 16.9796C140.736 18.4996 141.436 20.3396 141.436 22.4996C141.436 24.6596 140.736 26.5096 139.336 28.0496C137.956 29.5696 136.186 30.3296 134.026 30.3296C132.426 30.3296 131.146 29.8496 130.186 28.8896V35.8196H126.076ZM133.426 26.5796C134.546 26.5796 135.456 26.1896 136.156 25.4096C136.856 24.6096 137.206 23.6396 137.206 22.4996C137.206 21.3596 136.856 20.3996 136.156 19.6196C135.456 18.8196 134.546 18.4196 133.426 18.4196C132.066 18.4196 130.986 18.9596 130.186 20.0396V24.9296C130.986 26.0296 132.066 26.5796 133.426 26.5796Z" fill="white"/>
<path d="M158.154 14.9996V29.9996H154.044V28.7996C153.064 29.8196 151.834 30.3296 150.354 30.3296C148.454 30.3296 146.964 29.7296 145.884 28.5296C144.824 27.3096 144.294 25.6996 144.294 23.6996V14.9996H148.404V23.0096C148.404 25.3896 149.344 26.5796 151.224 26.5796C152.364 26.5796 153.304 26.0096 154.044 24.8696V14.9996H158.154Z" fill="white"/>
<path d="M167.151 30.3296C164.311 30.3296 162.251 29.3696 160.971 27.4496L163.791 25.0496C164.511 26.2096 165.631 26.7896 167.151 26.7896C167.611 26.7896 168.001 26.6996 168.321 26.5196C168.641 26.3396 168.801 26.0696 168.801 25.7096C168.801 25.3896 168.661 25.1296 168.381 24.9296C168.121 24.7096 167.591 24.4896 166.791 24.2696L165.681 23.9996C164.301 23.6396 163.251 23.0396 162.531 22.1996C161.831 21.3596 161.501 20.3596 161.541 19.1996C161.581 17.8396 162.121 16.7496 163.161 15.9296C164.221 15.0896 165.561 14.6696 167.181 14.6696C169.481 14.6696 171.211 15.5096 172.371 17.1896L169.671 19.3796C168.971 18.4996 168.121 18.0596 167.121 18.0596C166.721 18.0596 166.371 18.1496 166.071 18.3296C165.771 18.5096 165.621 18.7596 165.621 19.0796C165.621 19.6796 166.111 20.1096 167.091 20.3696L168.501 20.7896C171.401 21.5696 172.851 23.1196 172.851 25.4396C172.851 26.8596 172.311 28.0296 171.231 28.9496C170.151 29.8696 168.791 30.3296 167.151 30.3296Z" fill="white"/>
<path fill-rule="evenodd" clip-rule="evenodd" d="M13.5091 34.8105V34.7378V33.2036V28.7501C8.95125 27.3155 5.65455 23.1472 5.65455 18.2287C5.65455 12.1235 10.7341 7.17418 17 7.17418C23.2659 7.17418 28.3455 12.1235 28.3455 18.2287C28.3455 23.1472 25.0488 27.3155 20.4909 28.7501V33.2036V34.7378V34.8105H33V30.3015H26.8227C30.5394 27.4856 32.9273 23.1083 32.9273 18.1924C32.9273 9.69722 25.7964 2.81055 17 2.81055C8.20361 2.81055 1.07273 9.69722 1.07273 18.1924C1.07273 23.1083 3.46059 27.4856 7.17726 30.3015H1V34.8105H13.5091Z" fill="white"/>
</svg>
