<svg version="1.0" xmlns="http://www.w3.org/2000/svg"
    width="1500.000000pt" height="232.000000pt" viewBox="0 0 1500.000000 232.000000"
    preserveAspectRatio="xMidYMid meet">

    <g transform="translate(0.000000,232.000000) scale(0.100000,-0.100000)"
        fill="#ffffff" stroke="none">
        <path
            d="M630 2311 c-79 -25 -158 -89 -195 -161 -40 -77 -39 -120 10 -385 25
-136 44 -249 43 -250 -2 -2 -34 -20 -73 -40 -208 -110 -354 -273 -400 -445
-20 -74 -20 -345 0 -419 90 -338 526 -589 1062 -608 320 -12 608 52 849 187
110 63 267 219 312 312 50 103 65 189 59 353 -5 163 -25 237 -85 331 -73 112
-210 228 -352 299 -30 15 -56 29 -58 30 -2 2 16 101 39 221 47 248 52 327 22
395 -88 199 -345 252 -498 103 -83 -81 -90 -105 -93 -366 l-3 -228 -124 0
-124 0 -3 228 c-3 261 -10 285 -93 366 -74 72 -201 105 -295 77z m175 -108
c43 -22 74 -52 98 -98 20 -37 22 -57 25 -307 l4 -268 21 5 c29 8 254 11 342 6
l70 -5 5 275 c6 305 7 310 77 368 69 57 174 59 254 6 42 -27 89 -112 89 -160
0 -17 -22 -152 -50 -300 -27 -148 -49 -269 -47 -270 1 -1 35 -16 76 -33 103
-45 228 -130 294 -202 32 -34 72 -94 94 -137 l38 -77 3 -167 c3 -139 1 -177
-13 -221 -81 -249 -381 -443 -790 -509 -114 -19 -398 -16 -515 4 -305 53 -574
192 -693 359 -74 104 -90 153 -95 303 -2 73 1 157 7 190 32 177 175 335 402
445 44 21 85 40 90 42 5 2 -12 121 -41 273 -27 148 -50 283 -50 300 0 43 46
131 82 156 67 48 154 56 223 22z" />
        <path
            d="M685 1108 c-58 -45 -84 -173 -51 -251 18 -45 70 -87 108 -87 67 0
129 116 114 212 -14 84 -67 148 -124 148 -11 0 -32 -10 -47 -22z" />
        <path
            d="M1489 1103 c-42 -36 -59 -79 -59 -155 0 -99 51 -178 115 -178 98 0
156 180 94 290 -41 72 -96 88 -150 43z" />
        <path
            d="M10716 1764 c-129 -29 -225 -95 -274 -188 -24 -46 -27 -61 -27 -156
0 -98 2 -109 30 -159 17 -31 51 -71 80 -94 53 -42 186 -110 323 -166 46 -18
99 -47 118 -63 28 -25 34 -37 34 -72 0 -49 -5 -57 -50 -85 -70 -42 -250 -23
-397 43 -34 16 -69 26 -77 23 -22 -8 -117 -169 -114 -192 4 -26 94 -80 178
-106 161 -50 444 -63 561 -25 116 36 193 97 236 184 24 49 27 68 27 147 0 71
-5 101 -23 142 -44 100 -157 177 -395 268 -155 59 -206 124 -157 202 45 72
227 71 371 -2 27 -14 54 -25 59 -25 12 0 121 173 121 192 0 35 -98 92 -215
123 -88 24 -321 29 -409 9z" />
        <path
            d="M2822 1730 l-22 -21 0 -569 c0 -557 0 -570 20 -590 18 -18 33 -20
160 -20 190 0 180 -12 180 210 l0 170 134 0 c282 0 422 62 493 216 31 67 44
183 32 282 -17 139 -84 239 -195 292 -94 44 -151 50 -475 50 -293 0 -306 -1
-327 -20z m557 -258 c58 -29 76 -63 76 -142 0 -120 -51 -160 -202 -160 l-93 0
0 160 0 160 93 0 c68 0 101 -5 126 -18z" />
        <path
            d="M8272 1730 l-22 -21 0 -569 c0 -557 0 -570 20 -590 18 -18 33 -20
160 -20 188 0 180 -9 180 190 0 83 3 150 8 150 4 0 61 -75 127 -166 69 -94
128 -167 140 -170 11 -2 94 -3 185 -2 208 4 207 3 88 144 -46 55 -121 143
-166 197 l-82 97 157 181 c119 136 158 188 158 208 l0 26 -180 0 -180 0 -120
-157 c-66 -86 -123 -157 -127 -157 -5 -1 -8 143 -8 319 0 307 -1 321 -20 340
-18 18 -33 20 -158 20 -125 0 -140 -2 -160 -20z" />
        <path
            d="M4285 1405 c-97 -20 -205 -76 -269 -139 -90 -88 -136 -205 -136 -348
0 -100 15 -170 53 -241 36 -69 81 -111 157 -146 49 -23 66 -26 170 -26 126 1
200 21 261 72 16 14 31 24 33 22 2 -2 11 -19 20 -37 l17 -33 137 3 137 3 3
388 2 388 -74 35 c-41 18 -103 41 -138 49 -91 23 -287 28 -373 10z m239 -241
c25 -9 23 -294 -2 -344 -24 -48 -69 -71 -137 -71 -104 0 -153 69 -142 202 12
143 82 219 204 219 34 0 68 -3 77 -6z" />
        <path
            d="M5518 1405 c-66 -17 -133 -48 -165 -78 l-23 -20 0 22 c0 12 -5 31
-10 42 -10 17 -22 19 -139 19 -98 0 -131 -3 -140 -14 -9 -10 -11 -123 -9 -416
3 -384 4 -402 22 -416 15 -10 54 -14 158 -14 193 0 178 -24 178 290 0 269 5
301 51 334 33 23 110 21 140 -3 24 -19 24 -19 29 -306 5 -269 6 -288 24 -301
30 -21 283 -20 314 2 22 15 22 16 22 324 0 259 -3 317 -16 357 -24 72 -66 118
-139 154 -54 27 -78 32 -152 35 -56 2 -109 -2 -145 -11z" />
        <path
            d="M6505 1414 c-178 -28 -312 -120 -376 -257 -29 -63 -34 -85 -37 -171
-11 -249 87 -393 313 -462 94 -29 336 -27 430 3 95 31 169 73 173 98 3 23 -86
185 -106 192 -7 3 -41 -9 -75 -26 -155 -79 -307 -50 -359 67 -16 36 -19 60
-16 117 9 133 75 195 208 195 64 0 83 -5 147 -36 59 -29 76 -34 88 -24 20 17
105 166 105 185 0 22 -83 72 -160 96 -64 20 -263 34 -335 23z" />
        <path
            d="M7505 1404 c-146 -29 -285 -122 -342 -231 -53 -98 -66 -162 -61 -288
4 -98 8 -118 35 -176 41 -89 83 -133 161 -171 64 -32 71 -33 182 -33 126 1
200 21 261 72 16 14 31 24 33 22 2 -2 11 -19 20 -37 l17 -33 137 3 137 3 3
387 2 387 -39 20 c-159 82 -368 110 -546 75z m243 -243 c11 -6 13 -42 10 -168
-3 -176 -10 -198 -69 -229 -41 -21 -133 -20 -166 1 -57 38 -79 157 -48 261 28
95 95 144 195 144 36 0 71 -4 78 -9z" />
        <path
            d="M9653 1410 c-246 -45 -374 -218 -361 -490 4 -82 10 -108 36 -164 53
-113 146 -189 282 -230 77 -24 248 -32 351 -17 90 14 216 60 243 90 16 18 15
24 -23 99 -22 44 -44 83 -49 86 -5 3 -42 -9 -83 -26 -65 -27 -86 -31 -169 -32
-135 -1 -199 25 -236 96 -31 60 -41 58 270 58 177 0 295 4 314 11 41 14 56 59
46 136 -22 189 -112 306 -276 363 -72 24 -258 35 -345 20z m237 -227 c31 -18
60 -67 60 -102 0 -20 -4 -21 -160 -21 -176 0 -173 -1 -147 63 17 39 35 55 84
73 46 17 122 11 163 -13z" />
        <path
            d="M13246 1404 c-275 -59 -436 -289 -397 -568 23 -167 107 -276 243
-317 126 -39 302 -14 393 55 l33 26 21 -35 20 -35 129 0 c86 0 132 4 140 12 9
9 12 109 12 389 l0 376 -62 30 c-162 79 -360 103 -532 67z m238 -240 c23 -9
24 -310 1 -354 -21 -40 -66 -61 -132 -61 -101 0 -143 51 -143 176 0 157 72
245 202 245 31 0 63 -3 72 -6z" />
        <path
            d="M14317 1410 c-81 -14 -188 -50 -260 -87 l-68 -36 3 -536 c2 -295 7
-543 11 -553 16 -31 61 -40 187 -36 166 4 160 -4 160 218 l0 168 53 -20 c28
-11 86 -22 127 -25 297 -20 484 175 467 487 -8 133 -35 206 -104 281 -68 73
-147 113 -267 134 -94 16 -229 18 -309 5z m234 -261 c57 -28 82 -87 82 -190 0
-89 -27 -158 -76 -193 -39 -29 -116 -28 -154 0 -48 36 -53 56 -53 231 0 184
-8 170 98 172 45 1 74 -5 103 -20z" />
        <path
            d="M11455 1380 c-7 -11 231 -817 247 -837 15 -19 251 -18 267 1 6 7 38
87 71 176 33 90 61 165 63 167 2 2 30 -68 62 -154 31 -87 64 -168 71 -181 14
-21 21 -22 138 -22 87 0 126 4 133 13 20 25 255 829 246 838 -5 5 -75 8 -159
7 l-149 -3 -52 -208 c-28 -115 -53 -210 -56 -213 -2 -3 -31 68 -63 157 -32 90
-66 171 -76 181 -26 26 -160 26 -186 0 -10 -10 -44 -91 -77 -180 -32 -89 -62
-156 -66 -150 -3 7 -25 94 -48 193 -23 99 -46 190 -51 203 -9 21 -13 22 -159
22 -90 0 -152 -4 -156 -10z" />
    </g>
</svg>