<svg xmlns="http://www.w3.org/2000/svg" width="181" height="34" viewBox="0 0 181 34" fill="none">
    <g clip-path="url(#clip0_46_535)">
        <path
            d="M42.5 34L22.8442 0L3.1875 34L42.5 34ZM9.03114 15.9375L18.0625 0H0L9.03114 15.9375ZM34.4725 29.4995L11.2156 29.4995L22.8442 9.38452L34.4725 29.4995Z"
            fill="white" />
        <path
            d="M155.107 23.729C155.822 23.729 156.519 23.7042 157.199 23.6547C157.88 23.6059 158.498 23.5416 159.057 23.4634C159.614 23.3844 160.104 23.3108 160.529 23.2419C160.951 23.1731 161.275 23.1089 161.5 23.0499V13.4284C161.5 12.6223 161.389 11.8751 161.164 11.1861C160.941 10.4976 160.583 9.90213 160.095 9.40051C159.602 8.89802 158.96 8.50463 158.17 8.21965C157.378 7.93467 156.412 7.7915 155.276 7.7915C154.16 7.7915 153.206 7.86103 152.414 7.99821C151.622 8.13608 151.036 8.28319 150.658 8.44041L150.959 10.1229C151.249 10.0246 151.707 9.89751 152.33 9.7396C152.956 9.58239 153.903 9.50344 155.175 9.50344C156.066 9.50344 156.786 9.62589 157.333 9.87216C157.88 10.119 158.304 10.4435 158.606 10.8468C158.905 11.2496 159.101 11.7018 159.19 12.2042C159.266 12.6331 159.303 13.0753 159.315 13.5262H159.323V13.7329C159.323 13.7403 159.325 13.7463 159.325 13.7537V14.6982H159.323V16.3801H159.325V21.7514C158.878 21.8304 158.337 21.8946 157.701 21.9434C157.066 21.9929 156.323 22.0171 155.475 22.0171C154.785 22.0171 154.165 21.9628 153.618 21.8544C153.073 21.7468 152.603 21.5749 152.213 21.3387C151.823 21.1025 151.521 20.7881 151.31 20.3933C151.097 19.9999 150.992 19.519 150.992 18.9477C150.992 18.2981 151.148 17.7776 151.46 17.3836C151.772 16.9902 152.174 16.6798 152.666 16.4536C153.155 16.2275 153.691 16.0804 154.271 16.0107C154.852 15.9426 155.41 15.9085 155.945 15.9085C156.365 15.9085 156.74 15.9205 157.079 15.9426V14.3089C157.051 14.3068 157.025 14.3022 156.998 14.2995C156.652 14.2693 156.323 14.2546 156.011 14.2546C154.964 14.2546 153.993 14.3437 153.1 14.5209C152.208 14.6982 151.438 14.9785 150.791 15.3618C150.145 15.7459 149.642 16.2322 149.285 16.823C148.929 17.413 148.75 18.1208 148.75 18.9477C148.75 19.8139 148.912 20.5466 149.235 21.146C149.557 21.7468 150.005 22.2385 150.574 22.6225C151.143 23.0058 151.811 23.2861 152.581 23.4634C153.351 23.6399 154.194 23.729 155.107 23.729ZM99.8586 23.729C100.571 23.729 101.269 23.7042 101.949 23.6547C102.63 23.6059 103.249 23.5416 103.807 23.4634C104.364 23.3844 104.855 23.3108 105.279 23.2419C105.703 23.1731 106.027 23.1089 106.25 23.0499V13.4284C106.25 12.6223 106.139 11.8751 105.916 11.1861C105.693 10.4976 105.335 9.90213 104.845 9.40051C104.354 8.89802 103.712 8.50463 102.92 8.21965C102.128 7.93467 101.164 7.7915 100.026 7.7915C98.9096 7.7915 97.9556 7.86103 97.1641 7.99821C96.372 8.13608 95.7869 8.28319 95.4076 8.44041L95.7084 10.1229C95.998 10.0246 96.4557 9.89751 97.081 9.7396C97.705 9.58239 98.653 9.50344 99.9245 9.50344C100.818 9.50344 101.535 9.62589 102.084 9.87216C102.63 10.119 103.053 10.4435 103.356 10.8468C103.656 11.2496 103.85 11.7018 103.942 12.2042C104.018 12.6331 104.053 13.0753 104.065 13.5262H104.075V21.7514C103.628 21.8304 103.089 21.8946 102.452 21.9434C101.816 21.9929 101.074 22.0171 100.227 22.0171C99.5344 22.0171 98.9147 21.9628 98.3693 21.8544C97.8222 21.7468 97.3534 21.5749 96.963 21.3387C96.5724 21.1025 96.2717 20.7881 96.0599 20.3933C95.8482 19.9999 95.7426 19.519 95.7426 18.9477C95.7426 18.2981 95.8983 17.7776 96.2111 17.3836C96.5223 16.9902 96.924 16.6798 97.4154 16.4536C97.9066 16.2275 98.4419 16.0804 99.0211 16.0107C99.6019 15.9426 100.159 15.9085 100.694 15.9085C101.115 15.9085 101.488 15.9205 101.829 15.9426V14.3089C101.801 14.3068 101.777 14.3022 101.748 14.2995C101.402 14.2693 101.074 14.2546 100.762 14.2546C99.7134 14.2546 98.7424 14.3437 97.8509 14.5209C96.9583 14.6982 96.1886 14.9785 95.5415 15.3618C94.8938 15.7459 94.3917 16.2322 94.0349 16.823C93.6781 17.413 93.5 18.1208 93.5 18.9477C93.5 19.8139 93.6623 20.5466 93.9848 21.146C94.3087 21.7468 94.7546 22.2385 95.3232 22.6225C95.8924 23.0058 96.5626 23.2861 97.3309 23.4634C98.1008 23.6399 98.9434 23.729 99.8586 23.729ZM73.2964 23.729C74.0093 23.729 74.7066 23.7042 75.3875 23.6547C76.0675 23.6059 76.6869 23.5416 77.245 23.4634C77.8016 23.3844 78.2938 23.3108 78.7172 23.2419C79.1407 23.1731 79.4646 23.1089 79.6875 23.0499V13.4284C79.6875 12.6223 79.576 11.8751 79.3538 11.1861C79.1302 10.4976 78.7726 9.90213 78.2825 9.40051C77.7918 8.89802 77.1499 8.50463 76.3578 8.21965C75.5654 7.93467 74.601 7.7915 73.4632 7.7915C72.3472 7.7915 71.3939 7.86103 70.6018 7.99821C69.8094 8.13608 69.2243 8.28319 68.845 8.44041L69.1466 10.1229C69.4361 10.0246 69.8932 9.89751 70.5187 9.7396C71.1426 9.58239 72.0912 9.50344 73.3629 9.50344C74.2549 9.50344 74.9744 9.62589 75.5214 9.87216C76.0675 10.119 76.4924 10.4435 76.7931 10.8468C77.0945 11.2496 77.2891 11.7018 77.3789 12.2042C77.4547 12.6331 77.491 13.0753 77.5035 13.5262H77.5121L77.5125 13.7433L77.5128 13.7537V14.6982H77.5121V16.3801H77.5128V21.7514C77.0662 21.8304 76.526 21.8946 75.8893 21.9434C75.2542 21.9929 74.5121 22.0171 73.6643 22.0171C72.9725 22.0171 72.3531 21.9628 71.8068 21.8544C71.26 21.7468 70.7911 21.5749 70.4011 21.3387C70.0107 21.1025 69.7093 20.7881 69.4982 20.3933C69.2858 19.9999 69.1802 19.519 69.1802 18.9477C69.1802 18.2981 69.3359 17.7776 69.6485 17.3836C69.9599 16.9902 70.3616 16.6798 70.853 16.4536C71.3438 16.2275 71.8787 16.0804 72.4593 16.0107C73.039 15.9426 73.5978 15.9085 74.1328 15.9085C74.5522 15.9085 74.9263 15.9205 75.2667 15.9426V14.3089C75.239 14.3068 75.2145 14.3022 75.1868 14.2995C74.8405 14.2693 74.512 14.2546 74.1993 14.2546C73.1505 14.2546 72.1802 14.3437 71.2884 14.5209C70.3959 14.6982 69.626 14.9785 68.9789 15.3618C68.3312 15.7459 67.8293 16.2322 67.4723 16.823C67.1162 17.413 66.9375 18.1208 66.9375 18.9477C66.9375 19.8139 67.0996 20.5466 67.4223 21.146C67.7462 21.7468 68.192 22.2385 68.7606 22.6225C69.3305 23.0058 70.0001 23.2861 70.7699 23.4634C71.5396 23.6399 72.3808 23.729 73.2964 23.729ZM167.937 29.0415V22.6252C168.319 22.8843 168.93 23.1578 169.771 23.4467C170.613 23.7342 171.607 23.8789 172.749 23.8789C174.006 23.8789 175.122 23.6799 176.098 23.2821C177.074 22.8843 177.898 22.3323 178.572 21.6253C179.244 20.9191 179.756 20.0741 180.102 19.0884C180.45 18.1033 180.625 17.0243 180.625 15.8504C180.625 14.5968 180.416 13.4731 180.002 12.4779C179.586 11.4833 179.003 10.6378 178.253 9.94083C177.501 9.24477 176.602 8.71289 175.56 8.34416C174.517 7.97612 173.356 7.7915 172.077 7.7915C170.528 7.7915 169.25 7.88138 168.241 8.06081C167.231 8.23937 166.4 8.42885 165.75 8.62768V29.0415H167.937ZM85.1268 23.729V10.0296C85.312 9.94943 85.6991 9.8487 86.2879 9.72726C86.8766 9.60671 87.6559 9.54564 88.6271 9.54564C89.5505 9.54564 90.295 9.59162 90.8618 9.68199C91.4273 9.77324 91.8023 9.85818 91.9873 9.93837L92.4375 8.2453C92.1833 8.14457 91.7278 8.04437 91.0694 7.94294C90.4111 7.84221 89.7124 7.7915 88.9726 7.7915C87.5179 7.7915 86.2816 7.90802 85.2647 8.13966C84.2486 8.37147 83.4515 8.59908 82.875 8.82036V23.729H85.1268ZM51.0628 29.0415V22.6252C51.4435 22.8843 52.0552 23.1578 52.8963 23.4467C53.7381 23.7342 54.7305 23.8789 55.8747 23.8789C57.1312 23.8789 58.2476 23.6799 59.2233 23.2821C60.1998 22.8843 61.0243 22.3323 61.6969 21.6253C62.3702 20.9191 62.8804 20.0741 63.228 19.0884C63.5763 18.1033 63.75 17.0243 63.75 15.8504C63.75 14.5968 63.5423 13.4731 63.1278 12.4779C62.7119 11.4833 62.1288 10.6378 61.3778 9.94083C60.6257 9.24477 59.7287 8.71289 58.6854 8.34416C57.6412 7.97612 56.481 7.7915 55.2021 7.7915C53.6538 7.7915 52.3749 7.88138 51.3652 8.06081C50.3556 8.23937 49.5257 8.42885 48.875 8.62768V29.0415H51.0628ZM114.543 23.729C116.58 23.729 118.187 23.3693 119.363 22.6496C120.537 21.9297 121.125 20.8707 121.125 19.4705C121.125 18.7316 120.979 18.1172 120.689 17.6263C120.396 17.1363 120.017 16.7176 119.547 16.3675C119.076 16.0174 118.532 15.7178 117.919 15.469C117.302 15.2208 116.658 14.9769 115.987 14.7383C115.338 14.499 114.762 14.2808 114.257 14.0809C113.754 13.8825 113.328 13.6676 112.981 13.4379C112.633 13.2068 112.371 12.9416 112.193 12.6406C112.012 12.3401 111.923 11.9799 111.923 11.5584C111.923 11.535 111.926 8.76317 111.928 7.98972L111.929 7.7915H109.72C109.716 7.86933 109.708 10.9919 109.707 11.6249L109.707 11.7345C109.707 12.3939 109.841 12.954 110.11 13.4134C110.38 13.8736 110.736 14.2685 111.185 14.5982C111.632 14.928 112.147 15.2175 112.728 15.4676C113.311 15.7178 113.926 15.9624 114.577 16.2024C115.382 16.502 116.06 16.7618 116.609 16.982C117.156 17.2016 117.599 17.432 117.934 17.6719C118.271 17.9119 118.51 18.1811 118.658 18.4814C118.802 18.7812 118.875 19.1414 118.875 19.561C118.875 20.4404 118.466 21.0651 117.649 21.4349C116.833 21.8053 115.797 21.9896 114.543 21.9896C113.848 21.9896 113.238 21.9501 112.713 21.8699C112.186 21.7904 111.734 21.6945 111.352 21.585C110.971 21.4756 110.669 21.3743 110.446 21.2854C110.222 21.1949 110.076 21.1303 110.009 21.0903L109.438 22.859C109.707 22.9799 110.244 23.1546 111.051 23.3836C111.856 23.6142 113.02 23.729 114.543 23.729ZM130.382 23.729C130.729 23.0612 131.096 22.3106 131.482 21.4758C131.866 20.6417 132.264 19.7502 132.672 18.8014C133.081 17.8518 133.477 16.854 133.858 15.8066C134.242 14.7606 134.607 13.6896 134.954 12.5941C135.303 13.6871 135.67 14.7553 136.054 15.8001C136.438 16.8442 136.835 17.8407 137.246 18.7889C137.656 19.7378 138.055 20.6287 138.442 21.4621C138.829 22.2955 139.2 23.0515 139.553 23.729H141.658C142.849 21.5633 143.944 19.2735 144.936 16.8586C145.93 14.4442 146.847 11.7757 147.688 8.854H145.449C145.193 9.87258 144.873 10.9721 144.487 12.1532C144.102 13.3343 143.686 14.5055 143.244 15.6645C142.798 16.824 142.356 17.9256 141.911 18.9695C141.467 20.0143 141.046 20.9 140.649 21.6284C140.18 20.6691 139.719 19.6427 139.266 18.5483C138.809 17.4546 138.379 16.3467 137.974 15.2256C137.568 14.1032 137.196 13.0009 136.86 11.9177C136.523 10.8339 136.252 9.81331 136.044 8.854H134.087C133.81 9.81197 133.498 10.8326 133.151 11.9171C132.802 13.0016 132.432 14.0998 132.039 15.2126C131.646 16.3258 131.225 17.4299 130.777 18.5247C130.329 19.6205 129.881 20.645 129.435 21.599C129.039 20.8706 128.612 19.9876 128.158 18.9506C127.701 17.9144 127.252 16.8161 126.807 15.656C126.363 14.4963 125.947 13.3272 125.563 12.1473C125.177 10.969 124.854 9.87124 124.597 8.854H122.188C123.023 11.7703 123.934 14.4377 124.925 16.8545C125.914 19.2709 127.005 21.5626 128.2 23.729H130.382ZM172.601 22.6665C172.072 22.6665 171.567 22.6205 171.085 22.5305C170.601 22.44 170.152 22.3233 169.738 22.1818C169.323 22.041 168.961 21.8901 168.651 21.7281C168.341 21.5667 168.082 21.4151 167.875 21.2736V10.3407C168.22 10.2399 168.733 10.1437 169.41 10.0523C170.089 9.96184 170.98 9.9165 172.084 9.9165C174.016 9.9165 175.567 10.4671 176.74 11.5674C177.915 12.6679 178.5 14.2474 178.5 16.3069C178.5 17.1747 178.397 17.9984 178.19 18.7748C177.983 19.5526 177.649 20.2281 177.189 20.804C176.73 21.3792 176.126 21.8337 175.379 22.1667C174.631 22.4995 173.706 22.6665 172.601 22.6665ZM55.7258 22.6665C55.1961 22.6665 54.6908 22.6205 54.2081 22.5305C53.7247 22.44 53.2765 22.3233 52.8624 22.1818C52.4483 22.041 52.0858 21.8901 51.7758 21.7281C51.4658 21.5667 51.2068 21.4151 51 21.2736V10.3407C51.3441 10.2399 51.8568 10.1437 52.5348 10.0523C53.2133 9.96184 54.1047 9.9165 55.2076 9.9165C57.1401 9.9165 58.6925 10.4671 59.8646 11.5674C61.0382 12.6679 61.625 14.2474 61.625 16.3069C61.625 17.1747 61.5216 17.9984 61.3143 18.7748C61.1077 19.5526 60.7738 20.2281 60.3141 20.804C59.8532 21.3792 59.25 21.8337 58.5027 22.1667C57.7547 22.4995 56.8292 22.6665 55.7258 22.6665Z"
            fill="white" />
    </g>
    <defs>
        <clipPath id="clip0_46_535">
            <rect width="180.625" height="34" fill="white" />
        </clipPath>
    </defs>
    <deepl-alert xmlns="" />
    <deepl-alert xmlns="" />
    <deepl-alert xmlns="" />
</svg>