<svg width="166" height="31" viewBox="0 0 166 31" fill="none" xmlns="http://www.w3.org/2000/svg">
<path d="M2.12514 29.7139C0.567446 28.0961 0.573725 25.4852 2.13895 23.8665C3.69685 22.2559 6.21786 22.2674 7.78015 23.8924C9.3234 25.4969 9.31775 28.1178 7.76781 29.7213C6.20677 31.3365 3.68408 31.3331 2.12514 29.7139Z" fill="#7863FB"/>
<path d="M7.75204 13.0159C6.19163 11.4098 3.68548 11.4124 2.12381 13.015C2.08496 13.063 2.04552 13.1105 2.00609 13.158C1.92167 13.2597 1.83728 13.3613 1.75882 13.4677C0.410207 15.3021 0.816215 17.9982 2.63676 19.3145C4.26435 20.4906 6.37099 20.2963 7.79097 18.8383C8.94516 17.6537 10.7383 17.3229 12.2194 18.0158C12.7351 18.257 13.157 18.6245 13.569 19.0173C15.1971 20.5698 17.8156 20.3948 19.2454 18.6485C20.6141 16.9765 20.5239 14.5658 19.0345 13.0159C17.4946 11.4135 17.4904 8.80584 19.025 7.1941C20.2868 5.8687 20.5746 3.9255 19.7469 2.31658C18.4018 -0.298221 14.9124 -0.644865 13.1224 1.65843C11.8377 3.31139 11.9666 5.67867 13.424 7.19432C15.0652 8.90107 14.9313 11.7564 13.1388 13.2816C11.5319 14.6489 9.22748 14.5352 7.75204 13.0159Z" fill="#7863FB"/>
<path d="M2.13784 1.45377C0.572411 3.07181 0.568225 5.68205 2.1278 7.29986C3.68193 8.91182 6.19813 8.91985 7.74724 7.31787C9.31874 5.69246 9.33276 3.08894 7.77821 1.4733C6.21466 -0.151678 3.69909 -0.160355 2.13784 1.45377Z" fill="#7863FB"/>
<path d="M39.695 13.5691C39.695 13.7516 39.8428 13.8994 40.0253 13.8994H43.1864C44.2313 13.8994 45.0005 13.6679 45.494 13.2044C45.9866 12.7408 46.2335 12.1936 46.2335 11.5621C46.2335 10.9312 45.9866 10.3934 45.494 9.94978C45.0005 9.50583 44.2313 9.28415 43.1864 9.28415H40.0253C39.8428 9.28415 39.695 9.43193 39.695 9.61444V13.5691ZM39.3647 25.8821H35.9131C35.7308 25.8821 35.5828 25.7343 35.5828 25.5515V5.50237C35.5828 5.32016 35.7308 5.17208 35.9131 5.17208H43.9553C44.823 5.17208 45.6418 5.34005 46.4113 5.67479C47.1802 6.01072 47.8556 6.46922 48.4379 7.05087C49.0192 7.63282 49.4827 8.30825 49.8282 9.07745C50.173 9.84665 50.346 10.6752 50.346 11.5625C50.346 12.4501 50.1781 13.2888 49.843 14.0773C49.5074 14.8667 49.0492 15.5471 48.4675 16.1187C47.8853 16.6911 47.2048 17.1446 46.4261 17.4796C45.6465 17.8153 44.823 17.9826 43.9553 17.9826H40.0253C39.8428 17.9826 39.695 18.1307 39.695 18.3132V25.5515C39.695 25.7343 39.5469 25.8821 39.3647 25.8821Z" fill="#7863FB"/>
<path d="M65.4946 17.5181L63.8731 13.8691C63.7568 13.6077 63.3856 13.6077 63.2692 13.8691L61.6474 17.5181C61.5504 17.7365 61.7103 17.9825 61.9495 17.9825H65.1925C65.432 17.9825 65.5917 17.7365 65.4946 17.5181ZM64.5165 5.16124L73.5413 25.4175C73.6386 25.636 73.4786 25.8826 73.2398 25.8826H69.4365C69.3062 25.8826 69.1878 25.8057 69.1347 25.6864L67.6227 22.2915C67.5695 22.1722 67.4514 22.0953 67.3209 22.0953H59.8523C59.7208 22.0953 59.603 22.1713 59.5508 22.2918C59.3175 22.8274 59.0647 23.3978 58.7928 24.0038C58.5222 24.6056 58.2792 25.1653 58.0625 25.6823C58.0112 25.8051 57.8925 25.8826 57.7595 25.8826H53.9889C53.75 25.8826 53.59 25.6371 53.6862 25.419L62.5964 5.16272C62.6493 5.04253 62.768 4.96508 62.8988 4.96508H64.2147C64.3449 4.96508 64.4631 5.04194 64.5165 5.16124Z" fill="#7863FB"/>
<path d="M105.596 5.54258L99.2067 25.8582C99.163 25.9956 99.0357 26.0894 98.8912 26.0894H97.2202C97.0887 26.0894 96.9697 26.0114 96.9172 25.8906L91.7734 14.0623C91.6583 13.7979 91.2832 13.7973 91.1674 14.062L85.9955 25.8912C85.9427 26.0117 85.8239 26.0894 85.6928 26.0894H84.0214C83.8769 26.0894 83.7493 25.9956 83.706 25.8579L77.3455 5.60163C77.2787 5.38856 77.4375 5.17222 77.6606 5.17222H81.2589C81.4031 5.17222 81.5301 5.2654 81.574 5.40251L85.05 16.3432C85.1423 16.634 85.5465 16.6545 85.6681 16.3743L90.5267 5.16421C90.5789 5.04313 90.6982 4.96508 90.8297 4.96508H92.0829C92.2144 4.96508 92.3334 5.04283 92.3859 5.16361L97.2739 16.3791C97.3958 16.6586 97.7988 16.6399 97.8914 16.3494C98.4351 14.6451 98.9823 12.9114 99.5331 11.1484C100.149 9.17671 100.761 7.24094 101.368 5.34167C101.412 5.20457 101.539 5.11287 101.683 5.11287H105.281C105.504 5.11287 105.663 5.3295 105.596 5.54258Z" fill="#7863FB"/>
<path d="M113.754 4.96508C113.571 4.96508 113.423 5.11316 113.423 5.29567V25.552C113.423 25.7345 113.571 25.8823 113.754 25.8823H117.176C117.358 25.8823 117.506 25.7345 117.506 25.552V14.5543C117.506 14.2513 117.88 14.1083 118.082 14.3332L128.561 25.9799C128.624 26.0496 128.714 26.0894 128.807 26.0894H130.164C130.346 26.0894 130.494 25.9416 130.494 25.7591V5.50281C130.494 5.3203 130.346 5.17222 130.164 5.17222H126.742C126.559 5.17222 126.411 5.3203 126.411 5.50281V16.5301C126.411 16.8328 126.038 16.9762 125.835 16.7512L115.326 5.07458C115.264 5.00485 115.175 4.96508 115.081 4.96508H113.754Z" fill="#7863FB"/>
<path d="M144.459 9.61488V13.1256C144.459 13.3081 144.607 13.4559 144.789 13.4559H150.844C151.027 13.4559 151.175 13.6039 151.175 13.7865V17.2678C151.175 17.45 151.027 17.598 150.844 17.598H144.789C144.607 17.598 144.459 17.7458 144.459 17.9286V25.5515C144.459 25.734 144.311 25.8821 144.129 25.8821H140.677C140.494 25.8821 140.346 25.734 140.346 25.5515V5.50237C140.346 5.31987 140.494 5.17208 140.677 5.17208H153.33C153.512 5.17208 153.66 5.31987 153.66 5.50237V8.954C153.66 9.13651 153.512 9.28429 153.33 9.28429H144.789C144.607 9.28429 144.459 9.43238 144.459 9.61488Z" fill="#7863FB"/>
<path d="M161.5 25.5515V5.50237C161.5 5.31987 161.648 5.17208 161.83 5.17208H165.252C165.435 5.17208 165.583 5.31987 165.583 5.50237V25.5515C165.583 25.734 165.435 25.8821 165.252 25.8821H161.83C161.648 25.8821 161.5 25.734 161.5 25.5515Z" fill="#7863FB"/>
</svg>
