<svg width="569" height="102" viewBox="0 0 569 102" fill="none" xmlns="http://www.w3.org/2000/svg">
    <path
        d="M17.5639 42.2549C15.0334 39.7244 10.9307 39.7244 8.4002 42.2549C5.86972 44.7854 5.86972 48.8881 8.40021 51.4186L46.2963 89.3147L55.46 80.151L17.5639 42.2549Z"
        fill="#3CEAAA" />
    <path
        d="M46.5822 22.4003C49.1127 19.8698 49.1127 15.7671 46.5822 13.2366C44.0517 10.7061 39.949 10.7061 37.4185 13.2366L8.40012 42.255C5.86963 44.7854 5.86963 48.8882 8.40012 51.4187C10.9306 53.9491 15.0333 53.9491 17.5638 51.4187L46.5822 22.4003Z"
        fill="#3CEAAA" />
    <rect width="12.9594" height="38.8783" rx="6.47972"
        transform="matrix(0.707107 -0.707107 -0.707107 -0.707107 60.3282 45.3096)" fill="#3CEAAA" />
    <path
        d="M64.9101 40.7277C67.4406 38.1972 67.4406 34.0945 64.9101 31.564C62.3796 29.0335 58.2769 29.0335 55.7464 31.564L26.728 60.5824C24.1975 63.1129 24.1975 67.2156 26.728 69.7461C29.2585 72.2766 33.3612 72.2766 35.8917 69.7461L64.9101 40.7277Z"
        fill="#3CEAAA" />
    <path
        d="M84.489 42.2549C87.0194 39.7244 91.1222 39.7244 93.6527 42.2549C96.1831 44.7854 96.1831 48.8881 93.6527 51.4186L55.6738 89.3974L46.5101 80.2337L84.489 42.2549Z"
        fill="#1A5D73" />
    <path
        d="M55.4698 22.4003C52.9393 19.8698 52.9393 15.7671 55.4698 13.2366C58.0003 10.7061 62.103 10.7061 64.6335 13.2366L93.6519 42.255C96.1824 44.7854 96.1824 48.8882 93.6519 51.4187C91.1214 53.9491 87.0187 53.9491 84.4882 51.4187L55.4698 22.4003Z"
        fill="#1A5D73" />
    <rect x="41.7245" y="45.3096" width="12.9594" height="38.8783" rx="6.47972"
        transform="rotate(-135 41.7245 45.3096)" fill="#1A5D73" />
    <path
        d="M37.1426 40.7277C34.6122 38.1972 34.6122 34.0945 37.1426 31.564C39.6731 29.0335 43.7759 29.0335 46.3063 31.564L75.3247 60.5824C77.8552 63.1129 77.8552 67.2156 75.3247 69.7461C72.7942 72.2766 68.6915 72.2766 66.161 69.7461L37.1426 40.7277Z"
        fill="#1A5D73" />
    <rect x="40.999" y="26.235" width="12.9443" height="20.8809"
        transform="rotate(-45 40.999 26.235)" fill="#3CEAAA" />
    <circle cx="51.0122" cy="84.9307" r="6.47972" fill="#1A5D73" />
    <path
        d="M156.353 45.9494C156.353 49.2483 155.478 51.692 153.726 53.2804C151.975 54.828 149.389 55.6018 145.968 55.6018H140.225V72.2187H134.91V29.4547H145.846C149.307 29.4547 151.914 30.2286 153.665 31.7762C155.457 33.2831 156.353 35.6861 156.353 38.985V45.9494ZM151.038 38.4352C151.038 36.8875 150.672 35.7675 149.939 35.0751C149.246 34.3828 148.126 34.0366 146.579 34.0366H140.225V51.02H146.579C148.126 51.02 149.246 50.6738 149.939 49.9814C150.672 49.2483 151.038 48.108 151.038 46.5603V38.4352Z"
        fill="#3CEAAA" />
    <path
        d="M172.24 72.2187C168.656 72.2187 166.029 71.4652 164.36 69.9583C162.69 68.4107 161.855 65.9059 161.855 62.4441V51.4476C161.855 47.9451 162.608 45.4403 164.115 43.9334C165.622 42.4265 168.127 41.673 171.63 41.673H173.279C176.171 41.673 178.35 42.4876 179.816 44.1167C181.323 45.705 182.076 48.0469 182.076 51.1422V59.0841H167.048V63.6659C167.048 64.9285 167.435 65.9059 168.208 66.5983C168.982 67.2907 170.123 67.6368 171.63 67.6368H180.121V72.2187H172.24ZM177.006 54.5022V49.9203C177.006 48.8614 176.659 47.9858 175.967 47.2934C175.275 46.6011 174.399 46.2549 173.34 46.2549H171.019C169.552 46.2549 168.514 46.6011 167.903 47.2934C167.333 47.9451 167.048 48.9225 167.048 50.2258V54.5022H177.006Z"
        fill="#3CEAAA" />
    <path
        d="M190.923 41.673H195.811V43.3225C197.155 42.2228 198.784 41.673 200.698 41.673H205.158V46.5603H200.087C198.743 46.5603 197.745 47.0083 197.094 47.9043C196.442 48.8003 196.116 49.676 196.116 50.5313V72.2187H190.923V41.673Z"
        fill="#3CEAAA" />
    <path
        d="M211.267 41.673H216.155V43.1392C217.417 42.1617 219.046 41.673 221.042 41.673H222.019C225.603 41.673 228.23 42.4468 229.9 43.9945C231.57 45.5014 232.405 47.9858 232.405 51.4476V62.4441C232.405 65.8652 231.55 68.3496 229.839 69.8972C228.169 71.4449 225.563 72.2187 222.019 72.2187H216.46V82.6042H211.267V41.673ZM220.431 46.2549C219.087 46.2549 218.089 46.6214 217.438 47.3545C216.786 48.0469 216.46 48.8003 216.46 49.6149V67.6368H222.63C224.137 67.6368 225.278 67.2907 226.051 66.5983C226.825 65.9059 227.212 64.9285 227.212 63.6659V50.2258C227.212 48.9632 226.825 47.9858 226.051 47.2934C225.278 46.6011 224.137 46.2549 222.63 46.2549H220.431Z"
        fill="#3CEAAA" />
    <path
        d="M251.349 72.2187C247.765 72.2187 245.138 71.4652 243.468 69.9583C241.798 68.4107 240.963 65.9059 240.963 62.4441V51.4476C240.963 47.9451 241.717 45.4403 243.224 43.9334C244.731 42.4265 247.235 41.673 250.738 41.673H252.388C255.279 41.673 257.458 42.4876 258.924 44.1167C260.431 45.705 261.185 48.0469 261.185 51.1422V59.0841H246.156V63.6659C246.156 64.9285 246.543 65.9059 247.317 66.5983C248.091 67.2907 249.231 67.6368 250.738 67.6368H259.23V72.2187H251.349ZM256.114 54.5022V49.9203C256.114 48.8614 255.768 47.9858 255.076 47.2934C254.383 46.6011 253.508 46.2549 252.449 46.2549H250.127C248.661 46.2549 247.622 46.6011 247.011 47.2934C246.441 47.9451 246.156 48.9225 246.156 50.2258V54.5022H256.114Z"
        fill="#3CEAAA" />
    <path
        d="M276.752 72.2187C274.675 72.2187 273.087 71.5467 271.987 70.2027C270.887 68.8587 270.337 67.087 270.337 64.8877V46.2549H266.366V41.673H270.337V34.3421H275.53V41.673H282.617V46.2549H275.53V65.1932C275.53 66.0892 275.754 66.7205 276.202 67.087C276.65 67.4536 277.343 67.6368 278.279 67.6368H282.617V72.2187H276.752Z"
        fill="#3CEAAA" />
    <path
        d="M304.215 70.8136C302.871 71.7503 301.242 72.2187 299.328 72.2187H298.473C295.174 72.2187 292.71 71.4449 291.081 69.8972C289.492 68.3496 288.698 65.8652 288.698 62.4441V41.673H293.891V63.6659C293.891 64.8877 294.237 65.8652 294.93 66.5983C295.663 67.2907 296.64 67.6368 297.862 67.6368H299.939C301.242 67.6368 302.199 67.311 302.81 66.6594C303.462 66.0077 303.829 65.2746 303.91 64.4601V41.673H309.103V72.2187H304.215V70.8136Z"
        fill="#3CEAAA" />
    <path
        d="M336.915 72.2187C336.386 72.2187 335.795 72.0558 335.143 71.73C334.532 71.4041 334.003 70.9561 333.555 70.386C332.618 71.6078 331.376 72.2187 329.828 72.2187H325.613C322.518 72.2187 320.257 71.6078 318.832 70.386C317.447 69.1234 316.755 66.9852 316.755 63.9714V62.7495C316.755 56.4368 319.728 53.2804 325.674 53.2804H332.028V50.2258C332.028 48.9632 331.641 47.9858 330.867 47.2934C330.093 46.6011 328.953 46.2549 327.446 46.2549H319.199V41.673H326.835C330.378 41.673 332.985 42.4468 334.655 43.9945C336.365 45.5421 337.221 48.0265 337.221 51.4476V66.1096C337.221 66.7205 337.445 67.1888 337.893 67.5147C338.381 67.7998 339.175 67.9423 340.275 67.9423V72.2187H336.915ZM329.218 67.6368C330.439 67.6368 331.213 67.3517 331.539 66.7816C331.865 66.2114 332.028 65.4783 332.028 64.5823V57.8622H325.613C324.554 57.8622 323.679 58.2084 322.986 58.9008C322.294 59.5931 321.948 60.4688 321.948 61.5277V64.5823C321.948 65.6412 322.192 66.415 322.681 66.9037C323.169 67.3925 323.943 67.6368 325.002 67.6368H329.218Z"
        fill="#3CEAAA" />
    <path
        d="M352.477 72.2187C351.092 72.2187 349.87 71.73 348.811 70.7525C347.793 69.775 347.284 68.2274 347.284 66.1096V29.4547H352.477V65.8041C352.477 66.4557 352.64 66.9241 352.965 67.2092C353.291 67.4943 353.841 67.6368 354.615 67.6368H355.837V72.2187H352.477Z"
        fill="#3CEAAA" />
    <path
        d="M400.48 45.9494C400.48 49.2483 399.604 51.692 397.853 53.2804C396.102 54.828 393.516 55.6018 390.095 55.6018H384.352V72.2187H379.037V29.4547H389.972C393.434 29.4547 396.041 30.2286 397.792 31.7762C399.584 33.2831 400.48 35.6861 400.48 38.985V45.9494ZM395.165 38.4352C395.165 36.8875 394.799 35.7675 394.066 35.0751C393.373 34.3828 392.253 34.0366 390.706 34.0366H384.352V51.02H390.706C392.253 51.02 393.373 50.6738 394.066 49.9814C394.799 49.2483 395.165 48.108 395.165 46.5603V38.4352Z"
        fill="#3CEAAA" />
    <path
        d="M408.144 41.673H413.031V43.3225C414.375 42.2228 416.004 41.673 417.918 41.673H422.378V46.5603H417.307C415.963 46.5603 414.966 47.0083 414.314 47.9043C413.662 48.8003 413.337 49.676 413.337 50.5313V72.2187H408.144V41.673Z"
        fill="#3CEAAA" />
    <path
        d="M448.547 62.4441C448.547 65.8652 447.692 68.3496 445.981 69.8972C444.311 71.4449 441.705 72.2187 438.162 72.2187H437.367C433.824 72.2187 431.197 71.4449 429.487 69.8972C427.817 68.3496 426.982 65.8652 426.982 62.4441V51.4476C426.982 48.0265 427.817 45.5421 429.487 43.9945C431.197 42.4468 433.824 41.673 437.367 41.673H438.162C441.705 41.673 444.311 42.4468 445.981 43.9945C447.692 45.5421 448.547 48.0265 448.547 51.4476V62.4441ZM443.354 50.2258C443.354 48.9632 442.967 47.9858 442.194 47.2934C441.42 46.6011 440.279 46.2549 438.772 46.2549H436.756C435.25 46.2549 434.109 46.6011 433.335 47.2934C432.562 47.9858 432.175 48.9632 432.175 50.2258V63.6659C432.175 64.9285 432.562 65.9059 433.335 66.5983C434.109 67.2907 435.25 67.6368 436.756 67.6368H438.772C440.279 67.6368 441.42 67.2907 442.194 66.5983C442.967 65.9059 443.354 64.9285 443.354 63.6659V50.2258Z"
        fill="#3CEAAA" />
    <path
        d="M464.441 72.2187C462.364 72.2187 460.775 71.5467 459.676 70.2027C458.576 68.8587 458.026 67.087 458.026 64.8877V46.2549H454.055V41.673H458.026V34.3421H463.219V41.673H470.306V46.2549H463.219V65.1932C463.219 66.0892 463.443 66.7205 463.891 67.087C464.339 67.4536 465.031 67.6368 465.968 67.6368H470.306V72.2187H464.441Z"
        fill="#3CEAAA" />
    <path
        d="M497.647 62.4441C497.647 65.8652 496.792 68.3496 495.081 69.8972C493.411 71.4449 490.805 72.2187 487.261 72.2187H486.467C482.924 72.2187 480.297 71.4449 478.586 69.8972C476.917 68.3496 476.082 65.8652 476.082 62.4441V51.4476C476.082 48.0265 476.917 45.5421 478.586 43.9945C480.297 42.4468 482.924 41.673 486.467 41.673H487.261C490.805 41.673 493.411 42.4468 495.081 43.9945C496.792 45.5421 497.647 48.0265 497.647 51.4476V62.4441ZM492.454 50.2258C492.454 48.9632 492.067 47.9858 491.293 47.2934C490.52 46.6011 489.379 46.2549 487.872 46.2549H485.856C484.349 46.2549 483.209 46.6011 482.435 47.2934C481.661 47.9858 481.274 48.9632 481.274 50.2258V63.6659C481.274 64.9285 481.661 65.9059 482.435 66.5983C483.209 67.2907 484.349 67.6368 485.856 67.6368H487.872C489.379 67.6368 490.52 67.2907 491.293 66.5983C492.067 65.9059 492.454 64.9285 492.454 63.6659V50.2258Z"
        fill="#3CEAAA" />
    <path
        d="M516.595 72.2187C513.011 72.2187 510.384 71.4652 508.714 69.9583C507.045 68.4107 506.21 65.9059 506.21 62.4441V51.4476C506.21 48.0265 507.045 45.5421 508.714 43.9945C510.425 42.4468 513.052 41.673 516.595 41.673H523.254V46.2549H515.984C514.477 46.2549 513.337 46.6011 512.563 47.2934C511.789 47.9858 511.402 48.9632 511.402 50.2258V63.6659C511.402 64.9285 511.789 65.9059 512.563 66.5983C513.337 67.2907 514.477 67.6368 515.984 67.6368H523.254V72.2187H516.595Z"
        fill="#3CEAAA" />
    <path
        d="M551.579 62.4441C551.579 65.8652 550.724 68.3496 549.013 69.8972C547.343 71.4449 544.737 72.2187 541.194 72.2187H540.399C536.856 72.2187 534.229 71.4449 532.519 69.8972C530.849 68.3496 530.014 65.8652 530.014 62.4441V51.4476C530.014 48.0265 530.849 45.5421 532.519 43.9945C534.229 42.4468 536.856 41.673 540.399 41.673H541.194C544.737 41.673 547.343 42.4468 549.013 43.9945C550.724 45.5421 551.579 48.0265 551.579 51.4476V62.4441ZM546.386 50.2258C546.386 48.9632 545.999 47.9858 545.226 47.2934C544.452 46.6011 543.311 46.2549 541.804 46.2549H539.788C538.282 46.2549 537.141 46.6011 536.367 47.2934C535.594 47.9858 535.207 48.9632 535.207 50.2258V63.6659C535.207 64.9285 535.594 65.9059 536.367 66.5983C537.141 67.2907 538.282 67.6368 539.788 67.6368H541.804C543.311 67.6368 544.452 67.2907 545.226 66.5983C545.999 65.9059 546.386 64.9285 546.386 63.6659V50.2258Z"
        fill="#3CEAAA" />
    <path
        d="M565.64 72.2187C564.255 72.2187 563.034 71.73 561.975 70.7525C560.956 69.775 560.447 68.2274 560.447 66.1096V29.4547H565.64V65.8041C565.64 66.4557 565.803 66.9241 566.129 67.2092C566.455 67.4943 567.004 67.6368 567.778 67.6368H569V72.2187H565.64Z"
        fill="#3CEAAA" />
</svg>