<svg xmlns="http://www.w3.org/2000/svg" fill="none" height="49" viewBox="0 0 173 49" width="173">
    <path d="m21.5623 37.7823v11.2184l-.9114-.5192-4.813-2.7338v-11.2145z" fill="#282bdb" />
    <path d="m9.86984 17.8573v24.498l-9.86984-5.6092v-24.4981z" fill="#282bdb" />
    <path d="m43.125 12.248v24.4981l-21.5625 12.2529v-11.2145l11.6887-6.6437v-13.2835z"
        fill="#3581e6" />
    <path
        d="m43.1251 12.249-9.8739 5.6092-11.6887-6.6437-11.68866 6.6437-9.87384-5.6092 21.5625-12.249z"
        fill="#3ec7eb" />
    <g fill="#fff">
        <path
            d="m54.6699 17.8574h6.1922c1.463 0 2.6063.3619 3.4218 1.0896.4162.3906.7411.8655.9523 1.3919s.3037 1.0916.271 1.6566c.0323.5644-.0603 1.1289-.2715 1.6546s-.5359.9999-.9518 1.39c-.7995.7277-1.9588 1.0895-3.4218 1.0895h-3.198v4.9838h-2.9822zm5.8084 6.0537c1.4924 0 2.2386-.6333 2.2386-1.8999.0211-.2666-.0178-.5345-.1138-.7847-.0961-.2502-.2469-.4765-.4418-.6628-.4873-.3467-1.0834-.5125-1.683-.4681h-2.8262v3.8155z" />
        <path
            d="m69.0046 30.6818c-.7349-.3775-1.3399-.9606-1.7389-1.6757-.4021-.7907-.6114-1.6628-.6114-2.547s.2093-1.7562.6114-2.5469c.3995-.7118 1.0047-1.2909 1.7389-1.6639.8172-.3859 1.712-.5862 2.6184-.5862s1.8012.2003 2.6184.5862c.7351.3718 1.3406.9512 1.7389 1.6639.4021.7907.6114 1.6627.6114 2.5469s-.2093 1.7563-.6114 2.547c-.3978.716-1.0031 1.2993-1.7389 1.6757-.8161.3897-1.7113.5922-2.6184.5922s-1.8023-.2025-2.6184-.5922zm4.7211-4.2207c.0554-.7063-.1364-1.4101-.5437-1.9943-.1899-.2214-.4298-.3961-.7004-.5101-.2707-.114-.5647-.1643-.8586-.1468-1.3991 0-2.0987.8837-2.0987 2.6512s.6996 2.6499 2.0987 2.6473c1.4045 0 2.1054-.8851 2.1027-2.6552z" />
        <path d="m78.5234 31.1134v-13.256h2.8862v13.256z" />
        <path
            d="m90.4987 21.9024h2.8302l-5.6564 12.5873h-2.9262l1.7989-3.8942-3.8616-8.7049h3.0021l2.3665 5.8649z" />
        <path
            d="m117.044 27.0356h-6.112c.024.6097.288 1.1863.735 1.6088.493.3593 1.099.5349 1.711.4956.491-.0018.978-.0801 1.443-.232.469-.1544.91-.38 1.307-.6687l.764 1.8999c-.502.3725-1.068.6523-1.671.826-.647.2009-1.321.3031-1.999.3029-1.577 0-2.823-.4301-3.737-1.2902-.464-.4591-.824-1.0084-1.059-1.6126s-.338-1.2501-.305-1.8961c-.012-.8699.199-1.7288.612-2.4978.375-.7076.944-1.2977 1.643-1.7032.727-.4168 1.557-.629 2.399-.6137.582-.0263 1.163.0731 1.703.2912.539.2181 1.023.5497 1.419.9715.77.8392 1.155 1.9799 1.155 3.4222zm-5.513-2.9069c-.355.4232-.565.9466-.599 1.4948h3.685c.008-.5422-.17-1.0711-.503-1.5026-.159-.1743-.356-.3113-.576-.4011-.22-.0899-.458-.1302-.695-.1182-.245-.0091-.488.0333-.714.1242s-.43.2283-.598.4029z" />
        <path
            d="m125.214 29.108-.152 2.069c-.367.0516-.737.0779-1.107.0787-1.427 0-2.471-.3108-3.126-.9244-.656-.6136-.984-1.5341-.984-2.7967v-3.5402h-1.779v-2.1241h1.779v-2.6984h2.878v2.7102h2.351v2.1123h-2.351v3.5402c0 1.1066.523 1.6586 1.568 1.656.309-.0083.617-.0359.923-.0826z" />
        <path
            d="m139.832 21.8828h2.798l-3.794 9.232h-2.446l-2.075-5.208-1.999 5.208h-2.426l-3.822-9.232h2.943l2.218 5.8492 2.215-5.8492h1.951l2.234 5.9003z" />
        <path
            d="m145.481 30.6818c-.735-.3775-1.34-.9606-1.739-1.6757-.402-.7907-.611-1.6628-.611-2.547s.209-1.7562.611-2.5469c.4-.7118 1.005-1.2909 1.739-1.6639.817-.3859 1.712-.5862 2.619-.5862.906 0 1.801.2003 2.618.5862.734.373 1.339.9521 1.739 1.6639.402.7907.611 1.6627.611 2.5469s-.209 1.7563-.611 2.547c-.402.7168-1.012 1.3001-1.751 1.6757-.816.3897-1.711.5922-2.618.5922s-1.803-.2025-2.619-.5922zm4.721-4.2207c.055-.7068-.139-1.4106-.547-1.9943-.189-.2216-.428-.3964-.698-.5105-.271-.1141-.564-.1642-.857-.1464-1.402 0-2.103.8837-2.103 2.6512s.701 2.6499 2.103 2.6473c1.407 0 2.102-.889 2.102-2.6552z" />
        <path
            d="m161.686 23.9949-1.627.1691c-.631.0058-1.237.2444-1.699.6687-.347.4131-.526.9393-.499 1.4751v4.8068h-2.886v-9.232h2.774v1.5734c.466-1.0673 1.44-1.6508 2.922-1.7504l.828-.0708z" />
        <path
            d="m173 31.1134h-3.534l-3.597-4.1184v4.1184h-2.887v-13.256h2.887v7.9733l3.457-3.9335h3.442l-3.937 4.3976z" />
        <path
            d="m103.5 17.8574h2.798v13.256h-2.214l-6.716-8.4413v8.4413h-2.7742v-13.256h2.1986l6.7076 8.406z" />
    </g>
    <deepl-alert xmlns="" />
    <deepl-alert xmlns="" />
    <deepl-alert xmlns="" />
</svg>