<svg width="108" height="32" viewBox="0 0 108 32" fill="none" xmlns="http://www.w3.org/2000/svg">
    <path
        d="M20.4557 27.8276L20.6305 27.7565L23.5616 26.0524L26.5853 24.2976C26.7466 24.2097 26.8925 24.0967 27.0171 23.9628C27.2382 23.7301 27.3818 23.4364 27.4286 23.1209C27.4286 22.9789 27.4286 16.0203 27.4286 15.8681C27.3728 15.5183 27.2115 15.1932 26.9657 14.9349C26.7357 14.7207 26.476 14.5396 26.1944 14.3973L20.6923 11.2223C20.4613 11.1189 20.2106 11.0654 19.9569 11.0654C19.7033 11.0654 19.4526 11.1189 19.2215 11.2223C19.1291 11.2223 18.5017 11.6179 17.1132 12.4193L13.7399 14.3771L10.4078 16.3043C9.37939 16.9332 8.42294 17.4607 8.35094 17.4809C8.11847 17.5975 7.86091 17.6565 7.60021 17.6535C7.34201 17.654 7.08646 17.6023 6.84944 17.5013C6.73631 17.5013 3.66125 15.6856 3.4967 15.5639C3.33567 15.4431 3.19358 15.2995 3.07503 15.1379C2.94343 14.9397 2.84936 14.7197 2.79736 14.4885C2.76062 13.8128 2.76062 13.1356 2.79736 12.4599C2.71463 11.6724 2.73885 10.8775 2.86936 10.0964C2.93694 9.90565 3.03034 9.72481 3.14703 9.55876C3.26375 9.40135 3.40626 9.26419 3.56869 9.15299C3.69211 9.07184 6.65402 7.33728 6.74658 7.26628C6.98526 7.15793 7.24487 7.10184 7.50761 7.10184C7.77036 7.10184 8.03 7.15793 8.26869 7.26628C8.37153 7.317 11.3541 9.05155 11.5802 9.18343C11.7981 9.32923 11.9779 9.52389 12.1048 9.75147C12.1873 9.89096 12.2497 10.0412 12.2899 10.1978V10.35V11.6179C12.2899 12.3179 12.2899 12.896 12.2899 12.896L13.6576 12.115L15.0049 11.3339V10.0659C15.0049 8.65597 15.0049 8.70667 14.9124 8.42264C14.7874 8.08124 14.5662 7.78215 14.2748 7.56045C14.1719 7.48944 8.57719 4.24345 8.3098 4.10144L8.09384 4H8.00128H6.97284L6.81858 4.06085C6.70545 4.11157 5.91355 4.55791 3.73325 5.81573C2.1186 6.74896 0.761047 7.54015 0.709632 7.58073C0.524037 7.70825 0.365801 7.87065 0.244018 8.05865C0.122249 8.24667 0.0393189 8.45653 0 8.67624C0 8.81824 0 8.92984 0 12.399C0 15.8681 0 15.9899 0 16.1217C0.039552 16.3469 0.127186 16.5613 0.257115 16.7507C0.391049 16.9401 0.55414 17.1077 0.740476 17.2477C0.874176 17.3288 6.58203 20.6459 6.72602 20.7168C6.97221 20.8308 7.2408 20.8899 7.51277 20.8899C7.78472 20.8899 8.05336 20.8308 8.29954 20.7168L10.3564 19.5097C12.0328 18.4953 12.5572 18.2215 13.6782 17.6027C14.7992 16.984 15.1078 16.8115 17.0104 15.6652L19.0674 14.4176C19.4984 14.2225 19.9904 14.2043 20.4351 14.3669C20.5071 14.3848 20.5762 14.412 20.6408 14.448C20.7643 14.5089 23.8598 16.3753 23.9524 16.4768C24.3038 16.7516 24.5386 17.1459 24.6106 17.5824C24.6106 17.7649 24.6106 21.5487 24.6106 21.7312C24.5376 22.1804 24.2906 22.5841 23.9216 22.8572C23.8187 22.9281 20.8363 24.6932 20.5997 24.7947C20.365 24.8979 20.111 24.9512 19.854 24.9512C19.5972 24.9512 19.343 24.8979 19.1084 24.7947C19.0261 24.7947 18.4297 24.4092 17.4115 23.7803L15.7558 22.7659C15.4605 22.5435 15.2388 22.24 15.1181 21.8935C15.0358 21.6399 15.0358 21.7109 15.0255 20.2908V18.9924L13.6782 19.7735L12.3311 20.5545V21.8631C12.3311 23.2832 12.3311 23.2731 12.4031 23.5165C12.4615 23.6945 12.5483 23.8624 12.6601 24.0136C12.776 24.1683 12.9146 24.3051 13.0715 24.4193C13.1641 24.4903 18.8514 27.8175 18.9851 27.8884C19.1187 27.9595 19.1907 28 19.7564 28H20.2604L20.4557 27.8276Z"
        fill="#834AFC" />
    <path
        d="M34.6086 12.92H37.3886V14.02C37.6953 13.62 38.0953 13.3133 38.5886 13.1C39.0819 12.8733 39.6486 12.76 40.2886 12.76C41.2219 12.76 42.0353 12.9733 42.7286 13.4C43.4219 13.8267 43.9553 14.4333 44.3286 15.22C44.7153 16.0067 44.9086 16.92 44.9086 17.96C44.9086 19 44.7019 19.9133 44.2886 20.7C43.8886 21.4733 43.3219 22.08 42.5886 22.52C41.8553 22.9467 41.0086 23.16 40.0486 23.16C39.4753 23.16 38.9553 23.0667 38.4886 22.88C38.0219 22.6933 37.6553 22.4333 37.3886 22.1V27.08H34.6086V12.92ZM37.2286 17.96C37.2286 18.8 37.4553 19.48 37.9086 20C38.3619 20.5067 38.9619 20.76 39.7086 20.76C40.4419 20.76 41.0353 20.5067 41.4886 20C41.9419 19.48 42.1686 18.8 42.1686 17.96C42.1686 17.1067 41.9419 16.4267 41.4886 15.92C41.0353 15.4 40.4419 15.14 39.7086 15.14C38.9619 15.14 38.3619 15.4 37.9086 15.92C37.4553 16.4267 37.2286 17.1067 37.2286 17.96ZM51.2212 23.16C50.2079 23.16 49.2946 22.94 48.4812 22.5C47.6679 22.0467 47.0346 21.4267 46.5812 20.64C46.1279 19.84 45.9012 18.9467 45.9012 17.96C45.9012 16.9733 46.1279 16.0867 46.5812 15.3C47.0346 14.5 47.6679 13.88 48.4812 13.44C49.2946 12.9867 50.2079 12.76 51.2212 12.76C52.2346 12.76 53.1479 12.9867 53.9612 13.44C54.7746 13.88 55.4079 14.5 55.8612 15.3C56.3146 16.0867 56.5412 16.9733 56.5412 17.96C56.5412 18.9467 56.3146 19.84 55.8612 20.64C55.4079 21.4267 54.7746 22.0467 53.9612 22.5C53.1479 22.94 52.2346 23.16 51.2212 23.16ZM48.7012 17.96C48.7012 18.7867 48.9346 19.46 49.4012 19.98C49.8679 20.5 50.4746 20.76 51.2212 20.76C51.9679 20.76 52.5746 20.5 53.0412 19.98C53.5079 19.46 53.7412 18.7867 53.7412 17.96C53.7412 17.12 53.5079 16.44 53.0412 15.92C52.5746 15.4 51.9679 15.14 51.2212 15.14C50.4746 15.14 49.8679 15.4 49.4012 15.92C48.9346 16.44 48.7012 17.12 48.7012 17.96ZM58.2219 8.54H61.0019V23H58.2219V8.54ZM65.9586 22.92L62.2986 12.92H65.1386L67.2586 19.42L69.3586 12.92H72.2186L68.5586 22.96L67.1386 27.08H64.4786L65.9586 22.92ZM77.2861 23.16C75.8061 23.16 74.6394 22.6933 73.7861 21.76C72.9461 20.8133 72.5261 19.5467 72.5261 17.96C72.5261 16.92 72.7128 16.0067 73.0861 15.22C73.4728 14.4333 74.0194 13.8267 74.7261 13.4C75.4328 12.9733 76.2728 12.76 77.2461 12.76C77.8461 12.76 78.3861 12.8667 78.8661 13.08C79.3594 13.28 79.7461 13.56 80.0261 13.92V12.92H82.8261V23.6C82.8261 24.6533 82.4794 25.4933 81.7861 26.12C81.0928 26.76 80.1728 27.08 79.0261 27.08H73.9461V24.9H78.5861C79.0128 24.9 79.3594 24.7467 79.6261 24.44C79.9061 24.1467 80.0461 23.7667 80.0461 23.3V21.98C79.7928 22.3533 79.4194 22.6467 78.9261 22.86C78.4328 23.06 77.8861 23.16 77.2861 23.16ZM75.2661 17.96C75.2661 18.8133 75.4861 19.4933 75.9261 20C76.3794 20.5067 76.9794 20.76 77.7261 20.76C78.4728 20.76 79.0728 20.5067 79.5261 20C79.9794 19.4933 80.2061 18.8133 80.2061 17.96C80.2061 17.1067 79.9794 16.4267 79.5261 15.92C79.0728 15.4 78.4728 15.14 77.7261 15.14C76.9794 15.14 76.3794 15.4 75.9261 15.92C75.4861 16.4267 75.2661 17.1067 75.2661 17.96ZM89.8345 23.16C88.8212 23.16 87.9079 22.94 87.0945 22.5C86.2812 22.0467 85.6479 21.4267 85.1945 20.64C84.7412 19.84 84.5145 18.9467 84.5145 17.96C84.5145 16.9733 84.7412 16.0867 85.1945 15.3C85.6479 14.5 86.2812 13.88 87.0945 13.44C87.9079 12.9867 88.8212 12.76 89.8345 12.76C90.8479 12.76 91.7612 12.9867 92.5745 13.44C93.3879 13.88 94.0212 14.5 94.4745 15.3C94.9279 16.0867 95.1545 16.9733 95.1545 17.96C95.1545 18.9467 94.9279 19.84 94.4745 20.64C94.0212 21.4267 93.3879 22.0467 92.5745 22.5C91.7612 22.94 90.8479 23.16 89.8345 23.16ZM87.3145 17.96C87.3145 18.7867 87.5479 19.46 88.0145 19.98C88.4812 20.5 89.0879 20.76 89.8345 20.76C90.5812 20.76 91.1879 20.5 91.6545 19.98C92.1212 19.46 92.3545 18.7867 92.3545 17.96C92.3545 17.12 92.1212 16.44 91.6545 15.92C91.1879 15.4 90.5812 15.14 89.8345 15.14C89.0879 15.14 88.4812 15.4 88.0145 15.92C87.5479 16.44 87.3145 17.12 87.3145 17.96ZM96.6752 12.92H99.4752V14.32C99.7552 13.8267 100.162 13.4467 100.695 13.18C101.228 12.9 101.842 12.76 102.535 12.76C103.282 12.76 103.935 12.9267 104.495 13.26C105.068 13.5933 105.508 14.06 105.815 14.66C106.135 15.26 106.295 15.9467 106.295 16.72V23H103.495V17.34C103.495 16.7267 103.315 16.2267 102.955 15.84C102.595 15.44 102.128 15.24 101.555 15.24C100.942 15.24 100.442 15.4533 100.055 15.88C99.6685 16.2933 99.4752 16.8267 99.4752 17.48V23H96.6752V12.92Z"
        fill="#ffffff" />
</svg>