<svg version="1.0" xmlns="http://www.w3.org/2000/svg"
    width="1200.000000pt" height="364.000000pt" viewBox="0 0 1200.000000 364.000000"
    preserveAspectRatio="xMidYMid meet">

    <g transform="translate(0.000000,364.000000) scale(0.100000,-0.100000)"
        fill="#ffffff" stroke="none">
        <path
            d="M11292 2093 c3 -1188 -2 -1102 71 -1217 101 -160 349 -224 583 -150
l54 17 0 173 0 173 -42 -19 c-56 -26 -133 -26 -175 0 -67 40 -63 -26 -63 1085
l0 1005 -215 0 -215 0 2 -1067z" />
        <path
            d="M4150 3108 c-168 -24 -308 -95 -431 -217 -143 -143 -196 -284 -186
-491 9 -178 66 -299 203 -429 97 -92 190 -146 372 -218 392 -155 456 -188 511
-263 39 -54 50 -133 27 -194 -21 -56 -75 -109 -145 -144 -52 -25 -65 -27 -181
-27 -188 1 -326 47 -480 160 l-64 48 -153 -159 c-84 -87 -152 -162 -153 -166
0 -11 119 -99 203 -150 158 -95 321 -141 556 -158 272 -19 443 19 622 141 120
81 229 232 264 365 19 75 19 240 -1 324 -24 104 -80 206 -154 281 -112 114
-249 191 -515 289 -345 127 -445 206 -445 352 0 72 31 132 96 181 63 48 128
67 228 67 142 0 279 -47 384 -129 l49 -39 158 158 157 158 -63 51 c-82 66
-262 156 -362 181 -146 36 -355 48 -497 28z" />
        <path
            d="M6093 2460 c-70 -13 -148 -43 -216 -84 l-57 -35 0 45 0 44 -210 0
-210 0 0 -1210 0 -1210 210 0 210 0 0 406 0 405 28 -19 c102 -72 217 -105 367
-104 177 1 319 49 461 156 308 231 426 696 273 1069 -88 214 -240 377 -441
472 -42 20 -100 43 -130 51 -68 18 -218 26 -285 14z m184 -390 c162 -57 273
-197 303 -382 41 -254 -62 -489 -255 -579 -160 -76 -333 -58 -473 49 l-32 25
2 410 3 410 51 28 c120 68 275 83 401 39z" />
        <path
            d="M7995 2460 c-135 -21 -302 -89 -405 -165 -82 -60 -202 -196 -253
-286 -253 -448 -67 -1016 406 -1234 140 -65 310 -92 470 -75 134 14 198 33
322 95 190 95 309 215 400 400 70 143 80 193 79 390 0 159 -2 176 -28 255 -80
244 -234 422 -461 532 -55 26 -136 57 -180 68 -93 24 -263 33 -350 20z m274
-392 c81 -27 132 -61 192 -126 99 -106 139 -212 139 -362 0 -143 -43 -256
-136 -358 -95 -105 -202 -152 -347 -152 -252 0 -452 199 -474 472 -28 362 300
638 626 526z" />
        <path
            d="M9995 2460 c-197 -32 -390 -132 -522 -274 -78 -83 -114 -136 -163
-238 -55 -116 -71 -184 -77 -328 -6 -146 9 -243 56 -366 88 -228 305 -433 544
-512 501 -166 1053 128 1166 621 41 178 35 338 -20 503 -96 289 -338 504 -651
579 -80 19 -255 27 -333 15z m250 -382 c146 -36 280 -168 336 -329 29 -85 32
-239 5 -319 -49 -147 -148 -263 -273 -323 -65 -31 -73 -32 -189 -32 -119 0
-121 0 -196 38 -178 87 -282 262 -282 472 1 202 105 375 276 459 105 52 207
63 323 34z" />
    </g>
</svg>