<svg width="208" height="40" viewBox="0 0 208 40" fill="none" xmlns="http://www.w3.org/2000/svg">
    <path
        d="M26.3947 18.8354C29.9192 16.8274 33.0521 14.98 33.0521 14.98L17.1526 5.94385V23.7953C17.7008 23.6145 19.1302 22.8916 20.9121 21.9278L26.3947 25.1808V18.8354Z"
        fill="url(#paint0_linear_258_1124)"></path>
    <path
        d="M17.1527 5.94385L1.25317 14.3173C1.25317 14.3173 15.1359 22.47 17.1527 23.1326V5.94385Z"
        fill="url(#paint1_linear_258_1124)"></path>
    <path
        d="M26.3948 25.1606L17.1332 19.6787L4.99316 26.8875L17.1527 34.0964L29.3319 26.8875V23.4136L26.3948 25.1606Z"
        fill="url(#paint2_linear_258_1124)"></path>
    <path d="M12.1597 14.0763V27.0281L17.1723 30V17.0482L12.1597 14.0763Z"
        fill="url(#paint3_linear_258_1124)"></path>
    <path d="M17.1724 17.0482V29.9799L22.185 27.008V14.0763L17.1724 17.0482Z"
        fill="url(#paint4_linear_258_1124)"></path>
    <path d="M9.57504 20.0803L4.99316 22.7912V26.8876L12.4926 22.4498L9.57504 20.0803Z"
        fill="url(#paint5_linear_258_1124)"></path>
    <path d="M9.82943 19.9397L4.99301 22.7911L0.117432 19.9196L4.95385 17.0682L9.82943 19.9397Z"
        fill="url(#paint6_linear_258_1124)"></path>
    <path d="M0 10.1606V16.0442L17.1526 26.2048V20.3213L0 10.1606Z"
        fill="url(#paint7_linear_258_1124)"></path>
    <path d="M5.01265 22.7912L0 19.8193V29.8193L17.1526 39.98V34.0964L5.01265 26.9077V22.7912Z"
        fill="url(#paint8_linear_258_1124)"></path>
    <path
        d="M17.1526 0L0 10.1606L5.01265 13.1325L17.1526 5.94377L26.3947 11.4056L31.4074 8.43373L17.1526 0Z"
        fill="url(#paint9_linear_258_1124)"></path>
    <path d="M12.1597 14.0763L17.1723 17.0482L22.1458 14.0964L17.1332 11.1245L12.1597 14.0763Z"
        fill="url(#paint10_linear_258_1124)"></path>
    <path d="M26.3948 11.4056V25.1606L31.4074 22.1887V8.43372L26.3948 11.4056Z"
        fill="url(#paint11_linear_258_1124)"></path>
    <path
        d="M17.1331 20.3213V26.2048L29.2731 19.0161V26.9277L17.1331 34.1165V40L34.2857 29.8394V10.1606L17.1331 20.3213Z"
        fill="url(#paint12_linear_258_1124)"></path>
    <path
        d="M101.861 10.6106V29.6046H104.907V19.7222H115.222V17.3273H104.936V11.3814C104.936 10.2528 105.166 9.8949 106.459 9.8949H119.015V7.5H105.079C103.097 7.5 101.861 8.24325 101.861 10.6106Z"
        fill="#ffffff"></path>
    <path
        d="M58.3599 27.1822H45.4876V29.5771H59.2506C62.8134 29.5771 64.049 27.0997 64.049 24.0992C64.049 20.6582 62.325 19.5296 59.2506 18.5661L50.5446 15.7858C48.4758 15.1252 48.3609 13.969 48.3609 12.7578C48.3609 10.7208 49.2229 9.92246 50.9756 9.92246H62.8996V7.52756H50.4009C46.7231 7.52756 45.1428 9.53707 45.1428 12.7027C45.1428 15.7583 46.3209 17.2723 49.1079 18.1532L58.2162 21.0436C60.5436 21.7593 60.8022 22.9155 60.8022 24.0992C60.8022 25.9986 60.1126 27.1822 58.3599 27.1822Z"
        fill="#ffffff"></path>
    <path
        d="M68.5887 35H71.4907L81.9494 12.8678H79.0474L72.6975 26.7142L66.5774 12.8678H63.6754L71.2609 29.6046L68.5887 35Z"
        fill="#ffffff"></path>
    <path
        d="M83.2424 15.5931C83.2424 13.8589 84.0182 12.8404 85.9146 12.8404H92.1783C95.971 12.8404 98.0973 14.4094 98.0973 18.2633V29.5771H95.3389V18.7588C95.3389 16.474 94.4769 14.9875 91.8335 14.9875H87.0351C86.403 14.9875 86.0008 15.2077 86.0008 16.0611V29.6047H83.2424V15.5931Z"
        fill="#ffffff"></path>
    <path
        d="M133.898 26.8518C133.898 28.6136 133.122 29.6046 131.226 29.6046H124.761C120.969 29.6046 118.842 28.0355 118.842 24.1817V12.8678H121.601V23.7137C121.601 25.9985 122.463 27.485 125.106 27.485H130.106C130.738 27.485 131.14 27.2647 131.14 26.4114V12.8678H133.898V26.8518Z"
        fill="#ffffff"></path>
    <path
        d="M138.237 24.2368C138.237 27.5951 139.472 29.6046 143.811 29.6046H145.909V27.4575H144.759C142.087 27.4575 141.024 26.6592 141.024 24.0716V15.015H145.909V12.8679H140.995V7.5H138.237V12.8679H135.651V15.015H138.237V24.2368Z"
        fill="#ffffff"></path>
    <path
        d="M162.717 26.8518C162.717 28.6136 161.941 29.6046 160.045 29.6046H153.58C149.787 29.6046 147.661 28.0355 147.661 24.1817V12.8678H150.42V23.7137C150.42 25.9985 151.282 27.485 153.925 27.485H158.924C159.557 27.485 159.959 27.2647 159.959 26.4114V12.8678H162.717V26.8518Z"
        fill="#ffffff"></path>
    <path
        d="M172.458 12.8404C168.148 12.8404 166.021 14.7398 166.021 18.8689L166.05 29.6047H168.808V19.5571C168.808 16.474 169.929 14.9875 172.946 14.9875H174.354V12.8404H172.458Z"
        fill="#ffffff"></path>
    <path fill-rule="evenodd" clip-rule="evenodd"
        d="M181.106 29.6046C175.906 29.6046 174.814 26.3288 174.814 21.2913C174.814 15.1251 176.882 12.6752 182.773 12.6752C187.427 12.6752 190.732 14.1341 190.732 19.1717C190.732 21.0986 190.128 22.0896 188.117 22.0896H177.687C177.687 24.8148 178.175 27.43 181.71 27.43H190.272V29.5771L181.106 29.6046ZM186.996 19.9424C187.628 19.9424 187.801 19.4745 187.801 19.0891V18.979C187.801 15.8133 185.703 14.8223 182.773 14.8223C179.181 14.8223 177.658 16.1436 177.658 19.97L186.996 19.9424Z"
        fill="#ffffff"></path>
    <path
        d="M202.972 27.43H193.059V29.5771H203.69C206.994 29.5771 208 27.953 208 25.3654C208 22.1171 205.845 21.5115 202.311 20.6582L198.834 19.8048C196.938 19.3368 195.587 18.8689 195.587 17.0245C195.587 15.5105 196.22 14.9875 197.829 14.9875H206.994V12.8128H197.541C194.438 12.8128 192.8 14.1617 192.8 16.9695C192.8 19.7773 194.294 21.016 197.627 21.8143L200.817 22.5851L200.993 22.6264C203.586 23.2335 205.098 23.5873 205.098 25.3103C205.098 26.6867 204.408 27.43 202.972 27.43Z"
        fill="#ffffff"></path>
    <defs>
        <linearGradient id="paint0_linear_258_1124" x1="25.2985" y1="-5.22059" x2="24.7411"
            y2="25.9577" gradientUnits="userSpaceOnUse">
            <stop stop-color="#0098A6"></stop>
            <stop offset="1" stop-color="#002D4D"></stop>
        </linearGradient>
        <linearGradient id="paint1_linear_258_1124" x1="9.20769" y1="34.457" x2="9.20769"
            y2="-3.71416" gradientUnits="userSpaceOnUse">
            <stop stop-color="#0098A6"></stop>
            <stop offset="1" stop-color="#002D4D"></stop>
        </linearGradient>
        <linearGradient id="paint2_linear_258_1124" x1="-9.82251" y1="7.53311" x2="9.39417"
            y2="43.1875" gradientUnits="userSpaceOnUse">
            <stop offset="0.27" stop-color="#0098A6"></stop>
            <stop offset="1" stop-color="#002D4D"></stop>
        </linearGradient>
        <linearGradient id="paint3_linear_258_1124" x1="14.9173" y1="9.02689" x2="10.6599"
            y2="31.2961" gradientUnits="userSpaceOnUse">
            <stop stop-color="#0098A6"></stop>
            <stop offset="1" stop-color="#002D4D"></stop>
        </linearGradient>
        <linearGradient id="paint4_linear_258_1124" x1="19.6835" y1="-0.00883144" x2="19.6835"
            y2="30.052" gradientUnits="userSpaceOnUse">
            <stop stop-color="#0098A6"></stop>
            <stop offset="1" stop-color="#002D4D"></stop>
        </linearGradient>
        <linearGradient id="paint5_linear_258_1124" x1="22.3106" y1="14.8935" x2="2.4515"
            y2="28.6801" gradientUnits="userSpaceOnUse">
            <stop offset="0.27" stop-color="#0098A6"></stop>
            <stop offset="1" stop-color="#002D4D"></stop>
        </linearGradient>
        <linearGradient id="paint6_linear_258_1124" x1="-9.6613" y1="10.8378" x2="12.3558"
            y2="49.813" gradientUnits="userSpaceOnUse">
            <stop offset="0.27" stop-color="#0098A6"></stop>
            <stop offset="1" stop-color="#002D4D"></stop>
        </linearGradient>
        <linearGradient id="paint7_linear_258_1124" x1="-10.8728" y1="4.87714" x2="45.3004"
            y2="48.7863" gradientUnits="userSpaceOnUse">
            <stop offset="0.088" stop-color="#26FFED"></stop>
            <stop offset="0.39" stop-color="#18C4CD"></stop>
            <stop offset="0.631" stop-color="#0B90B1"></stop>
            <stop offset="0.869" stop-color="#0370A0"></stop>
            <stop offset="0.994" stop-color="#006499"></stop>
        </linearGradient>
        <linearGradient id="paint8_linear_258_1124" x1="-13.8348" y1="15.1224" x2="53.2178"
            y2="48.3155" gradientUnits="userSpaceOnUse">
            <stop offset="0.098" stop-color="#26FFED"></stop>
            <stop offset="0.381" stop-color="#18C4CD"></stop>
            <stop offset="0.631" stop-color="#0B90B1"></stop>
            <stop offset="0.869" stop-color="#0370A0"></stop>
            <stop offset="0.993" stop-color="#006499"></stop>
        </linearGradient>
        <linearGradient id="paint9_linear_258_1124" x1="38.9905" y1="-6.34897" x2="22.4667"
            y2="57.209" gradientUnits="userSpaceOnUse">
            <stop stop-color="#26FFED"></stop>
            <stop offset="0.315" stop-color="#18C4CD"></stop>
            <stop offset="0.631" stop-color="#0B90B1"></stop>
            <stop offset="0.869" stop-color="#0370A0"></stop>
            <stop offset="1" stop-color="#006499"></stop>
        </linearGradient>
        <linearGradient id="paint10_linear_258_1124" x1="2.6121" y1="23.6272" x2="40.4542"
            y2="-47.2379" gradientUnits="userSpaceOnUse">
            <stop stop-color="#26FFED"></stop>
            <stop offset="0.315" stop-color="#18C4CD"></stop>
            <stop offset="0.631" stop-color="#0B90B1"></stop>
            <stop offset="0.869" stop-color="#0370A0"></stop>
            <stop offset="1" stop-color="#006499"></stop>
        </linearGradient>
        <linearGradient id="paint11_linear_258_1124" x1="28.9704" y1="-1.65128" x2="27.9663"
            y2="24.0474" gradientUnits="userSpaceOnUse">
            <stop stop-color="#0098A6"></stop>
            <stop offset="1" stop-color="#002D4D"></stop>
        </linearGradient>
        <linearGradient id="paint12_linear_258_1124" x1="-16.1635" y1="46.8476" x2="57.5829"
            y2="34.1684" gradientUnits="userSpaceOnUse">
            <stop stop-color="#26FFED"></stop>
            <stop offset="0.315" stop-color="#18C4CD"></stop>
            <stop offset="0.631" stop-color="#0B90B1"></stop>
            <stop offset="0.869" stop-color="#0370A0"></stop>
            <stop offset="1" stop-color="#006499"></stop>
        </linearGradient>
    </defs>
</svg>