<?xml version="1.0" encoding="UTF-8"?>
<svg width="1352px" height="291px" viewBox="0 0 1352 291" version="1.1" xmlns="http://www.w3.org/2000/svg" xmlns:xlink="http://www.w3.org/1999/xlink">
    <!-- Generator: Sketch 51.1 (57501) - http://www.bohemiancoding.com/sketch -->
    <title>Thorchain_logo_white_text</title>
    <desc>Created with Sketch.</desc>
    <defs>
        <linearGradient x1="0%" y1="50%" x2="100%" y2="50%" id="linearGradient-1">
            <stop stop-color="#00CCFF" offset="0%"></stop>
            <stop stop-color="#33FF99" offset="100%"></stop>
        </linearGradient>
    </defs>
    <g id="Symbols" stroke="none" stroke-width="1" fill="none" fill-rule="evenodd">
        <g id="Thorchain_logo_white_text" fill-rule="nonzero">
            <g id="Shape">
                <path d="M0,290.5 L202.81,205.09 L138.65,140 L0,290.5 Z M74.49,75 L138.65,140 L253.26,0 L74.49,75 Z" fill="url(#linearGradient-1)"></path>
                <polygon fill="#FFFFFF" points="352.75 106.63 321 106.63 321 90 403 90 403 106.66 371.35 106.66 371.35 200.66 352.75 200.66"></polygon>
                <polygon fill="#FFFFFF" points="442.75 90 461.2 90 461.2 137.86 507.85 137.86 507.85 90 526.45 90 526.45 200.7 507.85 200.7 507.85 154.5 461.2 154.5 461.2 200.7 442.75 200.7"></polygon>
                <path d="M590.35,197.3 C584.05,194.433333 579.3,189 576.1,181 C572.9,173 571.3,161.226667 571.3,145.68 C571.3,130.18 572.923333,118.33 576.17,110.13 C579.416667,101.93 584.193333,96.3366667 590.5,93.35 C596.8,90.4033333 605.25,88.9266667 615.85,88.92 C626.45,88.9133333 634.973333,90.39 641.42,93.35 C647.766667,96.3033333 652.543333,101.853333 655.75,110 C658.956667,118.146667 660.556667,130.023333 660.55,145.63 C660.55,161.13 658.923333,172.903333 655.67,180.95 C652.416667,188.996667 647.666667,194.446667 641.42,197.3 C635.173333,200.146667 626.65,201.573333 615.85,201.58 C605.05,201.586667 596.55,200.16 590.35,197.3 Z M631.67,181.92 C635.323333,179.92 637.95,176.146667 639.55,170.6 C641.15,165.053333 641.95,156.72 641.95,145.6 C641.95,134.1 641.123333,125.5 639.47,119.8 C637.816667,114.1 635.193333,110.296667 631.6,108.39 C628,106.503333 622.75,105.556667 615.85,105.55 C609.15,105.55 604,106.523333 600.4,108.47 C596.8,110.416667 594.15,114.216667 592.45,119.87 C590.75,125.516667 589.9,134.093333 589.9,145.6 C589.9,156.8 590.673333,165.133333 592.22,170.6 C593.766667,176.066667 596.36,179.84 600,181.92 C603.6,183.92 608.9,184.92 615.9,184.92 C622.766667,184.92 628.023333,183.92 631.67,181.92 Z" fill="#FFFFFF"></path>
                <path d="M705.4,90 L750.4,90 C759.8,90 767.25,92.4766667 772.75,97.43 C778.25,102.383333 781,111.35 781,124.33 C781,134.13 779.273333,141.276667 775.82,145.77 C772.374141,150.273539 767.642093,153.624681 762.25,155.38 L783.55,200.67 L764.8,200.67 L745.6,158.08 C739.5,158.08 732.25,157.976667 723.85,157.77 L723.85,200.67 L705.4,200.67 L705.4,90 Z M747.25,143.25 C752.05,143.25 755.773333,141.876667 758.42,139.13 C761.066667,136.383333 762.4,131.46 762.42,124.36 C762.42,117.56 761.086667,112.893333 758.42,110.36 C755.753333,107.826667 752.03,106.576667 747.25,106.61 L723.85,106.61 L723.85,143.2 L747.25,143.25 Z" fill="#FFFFFF"></path>
                <path d="M839.8,197.15 C834.2,194.196667 829.923333,188.62 826.97,180.42 C824.016667,172.22 822.543333,160.373333 822.55,144.88 C822.55,130.166667 824.05,118.74 827.05,110.6 C830.05,102.46 834.45,96.81 840.25,93.65 C846.036667,90.4966667 853.536667,88.92 862.75,88.92 C868.801362,88.9258688 874.843038,89.4039871 880.82,90.35 C886.06592,91.1263358 891.254133,92.2521746 896.35,93.72 L896.35,108 C893.35,107.406667 889.073333,106.86 883.52,106.36 C877.966667,105.86 872.3,105.61 866.52,105.61 C859.92,105.61 854.843333,106.633333 851.29,108.68 C847.736667,110.726667 845.163333,114.553333 843.57,120.16 C841.97,125.76 841.17,134.093333 841.17,145.16 C841.17,156.226667 841.92,164.576667 843.42,170.21 C844.92,175.823333 847.42,179.673333 850.92,181.76 C854.42,183.846667 859.57,184.896667 866.37,184.91 C876.394799,184.993585 886.414835,184.442483 896.37,183.26 L896.37,197.51 C887.27,200.176667 875.92,201.53 862.32,201.57 C852.906667,201.576667 845.4,200.103333 839.8,197.15 Z" fill="#FFFFFF"></path>
                <polygon fill="#FFFFFF" points="940 90 958.45 90 958.45 137.86 1005.1 137.86 1005.1 90 1023.7 90 1023.7 200.7 1005.1 200.7 1005.1 154.5 958.45 154.5 958.45 200.7 940 200.7"></polygon>
                <path d="M1100.5,90 L1123.9,90 L1159.9,200.7 L1140.55,200.7 L1132,174.42 L1092,174.42 L1083.6,200.67 L1064.6,200.67 L1100.5,90 Z M1127.5,157.8 L1111.9,105.91 L1096.3,157.8 L1127.5,157.8 Z" fill="#FFFFFF"></path>
                <polygon fill="#FFFFFF" points="1200.55 90 1219 90 1219 200.7 1200.55 200.7"></polygon>
                <polygon fill="#FFFFFF" points="1267.89 90 1282.74 90 1333.14 169.05 1333.14 90 1351.74 90 1351.74 200.7 1336.89 200.7 1286.49 121.7 1286.49 200.7 1267.89 200.7"></polygon>
            </g>
        </g>
    </g>
</svg>