<svg version="1.0" xmlns="http://www.w3.org/2000/svg"
 width="1400.000000pt" height="154.000000pt" viewBox="0 0 1400.000000 154.000000"
 preserveAspectRatio="xMidYMid meet">

<g transform="translate(0.000000,154.000000) scale(0.100000,-0.100000)"
fill="#ffffff" stroke="none">
<path d="M685 1521 c-26 -12 -147 -126 -352 -332 -329 -332 -333 -337 -333
-429 1 -71 30 -108 351 -426 247 -245 322 -314 353 -324 49 -16 127 -7 169 19
18 11 170 158 338 328 278 280 307 312 319 356 14 52 10 99 -15 150 -8 18
-156 173 -328 344 -261 260 -319 313 -352 322 -58 16 -104 13 -150 -8z m750
-751 l0 -50 -155 -155 -155 -155 -180 180 -180 180 180 180 180 180 155 -155
155 -155 0 -50z m-845 175 l175 -175 -178 -178 -177 -177 -155 156 c-153 153
-155 156 -155 199 0 43 3 46 152 197 84 84 155 153 158 153 3 0 84 -79 180
-175z"/>
<path d="M8035 1406 c-213 -42 -386 -171 -472 -351 -118 -249 -64 -571 126
-748 146 -137 320 -196 544 -185 169 9 306 65 414 171 l52 50 -76 71 c-116
108 -106 105 -159 56 -25 -23 -71 -54 -102 -68 -51 -24 -68 -27 -172 -27 -104
0 -121 3 -172 27 -159 74 -247 247 -218 432 22 142 93 240 218 299 62 30 75
32 172 32 127 -1 193 -23 269 -91 59 -53 48 -56 164 52 l76 71 -47 46 c-63 62
-151 113 -247 143 -99 32 -264 41 -370 20z"/>
<path d="M12112 1406 c-148 -29 -274 -111 -326 -215 -50 -98 -50 -243 -1 -326
57 -99 144 -145 391 -209 194 -50 228 -63 267 -99 35 -34 40 -90 10 -135 -29
-46 -96 -66 -218 -66 -132 0 -232 25 -344 85 -40 22 -74 38 -75 37 -1 -2 -23
-50 -49 -108 -55 -121 -59 -110 58 -166 109 -52 211 -75 365 -81 160 -6 246 9
356 61 84 40 142 94 180 168 23 43 28 70 32 144 5 113 -16 171 -89 239 -66 62
-126 87 -350 145 -251 65 -281 82 -283 159 -1 52 26 89 88 120 41 21 62 24
144 24 108 -1 191 -19 290 -63 l63 -29 16 37 c8 20 28 68 44 106 16 37 29 70
29 73 0 10 -132 64 -205 83 -104 28 -292 35 -393 16z"/>
<path d="M13395 1414 c-11 -2 -45 -9 -75 -15 -80 -16 -172 -61 -224 -109 -122
-113 -151 -313 -65 -444 59 -88 154 -134 423 -202 76 -19 156 -44 176 -54 83
-42 103 -113 50 -173 -39 -45 -100 -62 -220 -61 -121 0 -216 24 -326 80 -84
43 -85 43 -93 21 -5 -12 -25 -58 -45 -101 -20 -44 -35 -85 -32 -92 14 -37 183
-105 322 -129 314 -55 583 33 675 220 75 154 35 326 -96 413 -64 42 -130 66
-312 113 -177 45 -246 72 -268 105 -33 51 -6 137 53 168 105 54 318 35 471
-43 24 -13 44 -21 46 -19 13 14 85 205 80 215 -7 19 -104 61 -195 85 -72 18
-298 33 -345 22z"/>
<path d="M1820 1280 l0 -120 205 0 205 0 0 -510 0 -510 145 0 145 0 0 510 0
510 200 0 200 0 0 120 0 120 -550 0 -550 0 0 -120z"/>
<path d="M3165 1388 c-3 -7 -4 -290 -3 -628 l3 -615 148 -3 147 -3 0 176 0
175 133 0 132 0 120 -175 120 -175 153 0 c83 0 152 3 152 6 0 3 -61 93 -136
200 -75 108 -134 196 -133 198 2 1 24 14 49 28 63 36 136 117 168 186 35 75
43 228 17 318 -41 145 -156 249 -331 300 -80 23 -731 34 -739 12z m643 -243
c106 -32 159 -113 149 -226 -7 -84 -41 -133 -115 -167 -53 -25 -69 -27 -219
-30 l-163 -4 0 221 0 221 148 0 c105 0 164 -5 200 -15z"/>
<path d="M4951 1358 c-10 -24 -130 -293 -266 -598 -136 -305 -253 -570 -261
-588 l-14 -32 148 0 149 0 55 132 55 133 293 0 294 0 54 -132 55 -133 153 0
153 0 -32 73 c-19 39 -145 323 -282 630 l-249 557 -143 0 -144 0 -18 -42z
m262 -490 l96 -233 -100 -3 c-54 -1 -143 -1 -197 0 l-98 3 95 232 c53 128 99
233 102 233 3 0 49 -105 102 -232z"/>
<path d="M6040 770 l0 -630 145 0 145 0 2 376 3 377 309 -377 308 -376 119 0
119 0 0 630 0 631 -142 -3 -143 -3 -5 -375 -5 -375 -309 378 -308 377 -119 0
-119 0 0 -630z"/>
<path d="M8985 1388 c-3 -7 -4 -290 -3 -628 l3 -615 148 -3 147 -3 0 261 0
260 283 -2 282 -3 3 -258 2 -257 145 0 145 0 0 630 0 630 -145 0 -145 0 0
-250 0 -250 -285 0 -285 0 -2 248 -3 247 -143 3 c-108 2 -144 0 -147 -10z"/>
<path d="M10527 1393 c-4 -3 -7 -287 -7 -630 l0 -623 490 0 490 0 0 115 0 115
-342 2 -343 3 -3 142 -3 143 293 2 293 3 3 113 3 112 -296 0 -295 0 0 135 0
135 330 0 330 0 0 120 0 120 -468 0 c-258 0 -472 -3 -475 -7z"/>
</g>
</svg>
