<svg version="1.0" xmlns="http://www.w3.org/2000/svg"
    width="332.000000pt" height="94.000000pt" viewBox="0 0 332.000000 94.000000"
    preserveAspectRatio="xMidYMid meet">

    <g transform="translate(0.000000,94.000000) scale(0.100000,-0.100000)"
        fill="#fff" stroke="none">
        <path
            d="M70 700 l0 -120 -30 0 -30 0 0 -175 0 -175 30 0 c27 0 30 -3 30 -30
l0 -30 60 0 c57 0 60 -1 60 -25 l0 -25 215 0 215 0 0 25 c0 24 3 25 55 25 54
0 55 0 55 30 0 27 3 30 30 30 l30 0 0 175 0 175 -30 0 -30 0 0 120 0 120 -85
0 -85 0 0 -30 0 -30 -160 0 -160 0 0 30 0 30 -85 0 -85 0 0 -120z m170 30 l0
-30 160 0 160 0 0 30 0 30 60 0 60 0 0 -90 c0 -89 0 -90 25 -90 l25 0 0 -155
0 -155 -55 0 c-54 0 -55 0 -55 -30 l0 -30 -90 0 c-53 0 -90 4 -90 10 0 6 9 10
20 10 11 0 20 5 20 10 0 6 9 10 20 10 18 0 20 7 20 70 0 63 -2 70 -20 70 -17
0 -20 -7 -20 -40 0 -33 -3 -40 -20 -40 -11 0 -20 5 -20 10 0 6 -18 10 -40 10
-22 0 -40 -4 -40 -10 0 -5 -9 -10 -20 -10 -16 0 -20 7 -20 36 0 27 5 37 20 41
11 3 20 14 20 24 0 12 -7 19 -20 19 -13 0 -20 -7 -20 -20 0 -13 -7 -20 -20
-20 -18 0 -20 -7 -20 -70 0 -63 2 -70 20 -70 11 0 20 -4 20 -10 0 -5 9 -10 20
-10 11 0 20 -4 20 -10 0 -6 -35 -10 -85 -10 l-85 0 -7 30 c-5 29 -8 30 -59 30
l-54 0 0 155 0 155 30 0 30 0 0 90 0 90 55 0 c54 0 55 0 55 -30z" />
        <path
            d="M140 710 c0 -22 5 -30 18 -30 23 0 42 19 42 42 0 13 -8 18 -30 18
-27 0 -30 -3 -30 -30z" />
        <path
            d="M600 722 c0 -19 36 -46 50 -37 6 4 10 17 10 31 0 20 -5 24 -30 24
-22 0 -30 -5 -30 -18z" />
        <path
            d="M240 460 c0 -27 3 -30 30 -30 27 0 30 3 30 30 0 27 -3 30 -30 30 -27
0 -30 -3 -30 -30z" />
        <path
            d="M500 460 c0 -27 3 -30 30 -30 27 0 30 3 30 30 0 27 -3 30 -30 30 -27
0 -30 -3 -30 -30z" />
        <path
            d="M440 410 c0 -13 7 -20 20 -20 13 0 20 7 20 20 0 13 -7 20 -20 20 -13
0 -20 -7 -20 -20z" />
        <path
            d="M1040 482 l0 -168 48 -47 c45 -44 51 -47 102 -47 36 0 59 5 72 17 17
15 19 15 36 0 13 -12 36 -17 73 -17 52 0 57 2 102 48 l47 48 0 167 0 167 -65
0 -65 0 0 -144 c0 -146 -6 -170 -35 -146 -12 10 -15 42 -15 151 l0 139 -60 0
-60 0 0 -139 c0 -109 -3 -141 -15 -151 -29 -24 -35 0 -35 146 l0 144 -65 0
-65 0 0 -168z" />
        <path
            d="M1550 435 l0 -215 155 0 155 0 0 215 0 215 -155 0 -155 0 0 -215z
m180 0 c0 -84 0 -85 -25 -85 -25 0 -25 1 -25 85 0 84 0 85 25 85 25 0 25 -1
25 -85z" />
        <path
            d="M1890 435 l0 -215 65 0 65 0 0 112 0 112 28 -27 c35 -33 39 -33 74 0
l28 27 0 -112 0 -112 65 0 65 0 0 215 0 215 -52 0 c-49 0 -55 -3 -100 -47
l-48 -47 -48 47 c-43 43 -52 47 -95 47 l-47 0 0 -215z" />
        <path
            d="M2310 435 l0 -215 128 0 c121 0 130 1 150 23 33 35 31 121 -3 157
l-25 26 25 24 c21 20 25 32 25 84 0 51 -4 64 -27 88 -26 28 -28 28 -150 28
l-123 0 0 -215z m170 59 c0 -21 -4 -25 -22 -22 -15 2 -24 11 -26 26 -3 18 1
22 22 22 21 0 26 -5 26 -26z m0 -119 c0 -20 -5 -25 -25 -25 -20 0 -25 5 -25
25 0 20 5 25 25 25 20 0 25 -5 25 -25z" />
        <path
            d="M2640 435 l0 -215 65 0 65 0 0 45 c0 41 2 45 25 45 23 0 25 -4 25
-45 l0 -45 65 0 65 0 0 215 0 215 -155 0 -155 0 0 -215z m180 35 c0 -47 -2
-50 -25 -50 -23 0 -25 3 -25 50 0 47 2 50 25 50 23 0 25 -3 25 -50z" />
        <path
            d="M2980 585 l0 -65 35 0 35 0 0 -150 0 -150 80 0 80 0 0 150 0 150 35
0 35 0 0 65 0 65 -150 0 -150 0 0 -65z" />
    </g>
</svg>