<svg version="1.0" xmlns="http://www.w3.org/2000/svg"
    width="330.000000pt" height="110.000000pt" viewBox="0 0 330.000000 110.000000"
    preserveAspectRatio="xMidYMid meet">

    <g transform="translate(0.000000,110.000000) scale(0.100000,-0.100000)"
        fill="#ffffff" stroke="none">
        <path
            d="M210 905 l-44 -45 117 -118 117 -117 0 -108 0 -107 70 0 70 0 0 107
0 108 117 117 117 118 -44 45 c-24 25 -49 45 -55 45 -6 0 -53 -43 -105 -95
-52 -52 -99 -95 -105 -95 -6 0 -53 43 -105 95 -52 52 -97 95 -100 95 -3 0 -26
-20 -50 -45z" />
        <path
            d="M1095 803 c4 -10 31 -81 60 -158 29 -77 62 -162 73 -190 30 -77 11
-115 -60 -115 l-38 0 0 -51 0 -52 70 5 c115 9 103 -9 245 357 41 107 75 201
75 208 0 11 -14 13 -57 11 l-56 -3 -46 -137 c-25 -75 -49 -139 -52 -142 -3 -3
-13 20 -23 52 -9 31 -31 96 -48 145 l-30 87 -60 0 c-53 0 -59 -2 -53 -17z" />
        <path
            d="M1635 802 c-148 -69 -153 -302 -8 -374 60 -29 170 -32 220 -5 36 19
79 72 85 102 3 17 -3 20 -45 23 -42 3 -51 0 -76 -27 -41 -43 -100 -44 -143 -1
-16 16 -28 38 -26 47 3 16 19 18 151 21 l147 3 0 45 c0 60 -31 118 -82 151
-55 37 -162 44 -223 15z m166 -91 c16 -16 29 -34 29 -40 0 -14 -176 -15 -185
-1 -4 6 7 24 24 40 41 41 91 41 132 1z" />
        <path
            d="M2082 807 c-38 -12 -92 -69 -92 -97 0 -17 7 -20 50 -20 39 0 54 5 74
25 45 45 136 23 136 -34 0 -16 -10 -19 -88 -23 -60 -3 -96 -9 -118 -22 -98
-58 -81 -197 29 -227 51 -13 118 -4 150 22 32 24 37 24 37 -1 0 -17 7 -20 50
-20 l50 0 0 151 c0 179 -9 207 -74 239 -47 22 -146 26 -204 7z m164 -254 c-13
-55 -80 -87 -125 -62 -32 18 -38 45 -15 70 13 15 31 19 82 19 l64 0 -6 -27z" />
        <path
            d="M2430 616 l0 -206 60 0 60 0 0 124 c0 147 11 170 85 182 l45 6 0 50
0 51 -37 -6 c-21 -4 -50 -16 -65 -27 -34 -25 -36 -25 -40 3 -3 19 -10 22 -55
25 l-53 3 0 -205z" />
        <path
            d="M2720 615 l0 -205 55 0 55 0 0 108 c0 122 11 175 43 197 30 21 80 19
108 -4 23 -18 24 -26 27 -160 l4 -141 54 0 54 0 0 148 c0 166 -10 200 -69 239
-49 33 -135 32 -185 -2 l-36 -24 -6 24 c-6 22 -11 25 -55 25 l-49 0 0 -205z" />
        <path
            d="M145 590 c-24 -73 -18 -199 13 -263 33 -65 97 -128 167 -163 52 -25
71 -29 145 -29 71 1 94 5 140 27 68 34 134 97 168 163 40 79 42 234 2 295 -8
12 -18 6 -60 -35 -46 -45 -50 -53 -45 -82 20 -112 -87 -233 -206 -233 -121 1
-223 116 -205 230 5 33 2 40 -48 89 l-54 53 -17 -52z" />
    </g>
</svg>